<svg width="28" height="28" viewBox="0 0 28 28" fill="none" xmlns="http://www.w3.org/2000/svg">
<path d="M14 3.5C13.9133 3.5 13.8293 3.5113 13.7426 3.51292C13.6489 3.50861 13.5563 3.5 13.4615 3.5V3.52748C7.92239 3.81017 3.5 8.39192 3.5 14C3.5 19.6086 7.92239 24.1893 13.4615 24.4725V24.5C13.5563 24.5 13.6489 24.4914 13.7426 24.4876C13.8288 24.4898 13.9128 24.5 14 24.5C19.7895 24.5 24.5 19.7901 24.5 14C24.5 8.20992 19.7895 3.5 14 3.5ZM20.6069 14.8077H22.8437C22.7549 15.7893 22.5045 16.7241 22.1211 17.5883C21.3058 16.7709 20.7895 15.8146 20.6069 14.8077ZM20.6075 13.1923C20.79 12.1854 21.3064 11.2291 22.1216 10.4122C22.505 11.2759 22.7554 12.2107 22.8442 13.1923H20.6075ZM21.3101 8.96323C19.9898 10.1484 19.1757 11.6195 18.9679 13.1923H16.8948C16.8097 10.4542 16.3003 7.78401 15.3618 5.23117C17.822 5.6124 19.9521 6.99784 21.3101 8.96323ZM13.5956 22.8647C11.5635 22.7721 9.70792 22.001 8.25354 20.7642L9.93839 19.4648C11.5618 18.2135 12.5488 16.5819 12.7793 14.8082H15.2815C15.1889 17.5894 14.6268 20.2935 13.5956 22.8647ZM8.95138 9.81562C10.1592 10.7466 10.9098 11.9248 11.137 13.1923H5.15684C5.32107 11.3842 6.02646 9.73052 7.11307 8.39729L8.95138 9.81562ZM11.137 14.8077C10.9103 16.0752 10.1597 17.2539 8.95138 18.1849L7.11307 19.6032C6.02592 18.2695 5.31999 16.6164 5.1563 14.8077H11.137ZM12.7788 13.1923C12.5483 11.4186 11.5608 9.78763 9.93784 8.53625L8.253 7.23692C9.70738 5.99954 11.5629 5.229 13.5951 5.13639C14.6268 7.70646 15.1884 10.4112 15.2805 13.1923H12.7788ZM15.3623 22.7688C16.3008 20.2165 16.8102 17.5463 16.8953 14.8077H18.9679C19.1752 16.3811 19.9893 17.8521 21.3101 19.0373C19.9521 21.0032 17.822 22.3881 15.3623 22.7688Z" fill="#253670"/>
</svg>
