<svg width="24" height="24" viewBox="0 0 24 24" fill="none" xmlns="http://www.w3.org/2000/svg">
<path d="M22 12C22 12.355 21.98 12.705 21.943 13.051L21.015 13.436C19.485 14.071 18.758 15.826 19.391 17.358L19.775 18.283C19.332 18.831 18.832 19.331 18.285 19.774L17.359 19.39C15.828 18.756 14.074 19.483 13.439 21.014L13.054 21.944C12.709 21.979 12.356 22 12 22C11.645 22 11.295 21.979 10.949 21.943L10.564 21.013C9.93003 19.482 8.17498 18.757 6.64398 19.39L5.716 19.774C5.169 19.332 4.66901 18.832 4.22601 18.285L4.61102 17.357C5.24502 15.827 4.517 14.073 2.987 13.437L2.05603 13.052C2.02003 12.706 2 12.355 2 12C2 11.645 2.02001 11.293 2.05701 10.947L2.987 10.562C4.517 9.92801 5.24402 8.17303 4.61102 6.64203L4.22699 5.71399C4.66999 5.16699 5.168 4.66798 5.716 4.22498L6.64301 4.60901C8.17401 5.24301 9.92801 4.51602 10.562 2.98602L10.948 2.05499C11.293 2.01999 11.645 2 12 2C12.355 2 12.706 2.02003 13.052 2.05603L13.436 2.98602C14.072 4.51802 15.827 5.24299 17.359 4.60999L18.284 4.22699C18.833 4.66899 19.332 5.168 19.774 5.716L19.391 6.64099C18.757 8.17199 19.485 9.92599 21.014 10.563L21.944 10.948C21.98 11.293 22 11.645 22 12ZM12 8C9.791 8 8 9.791 8 12C8 14.209 9.791 16 12 16C14.209 16 16 14.209 16 12C16 9.791 14.209 8 12 8Z" fill="#989CB4"/>
</svg>
