<svg width="28" height="28" viewBox="0 0 28 28" fill="none" xmlns="http://www.w3.org/2000/svg">
<path d="M23.28 13.9481C23.28 13.5146 23.4445 13.1066 23.7382 12.8058L24.2308 12.3967L24.1406 11.9206C23.7482 9.85736 22.7732 7.97814 21.3193 6.48687C19.866 4.9956 18.0345 3.99512 16.0243 3.59254L15.5607 3.5L15.1668 3.99998C14.5688 4.61304 13.5537 4.6493 12.9024 3.96319L12.5343 3.50053L12.0718 3.5936C10.0605 3.99563 8.22962 4.99613 6.77626 6.4874C2.76688 10.6019 2.76688 17.2958 6.77626 21.4093C8.71846 23.4021 11.3009 24.5 14.0478 24.5H14.0483C16.7947 24.5 19.3766 23.4021 21.3193 21.4093C22.7727 19.9175 23.7482 18.0388 24.1401 15.9761L24.2302 15.4999L23.743 15.0962C23.4445 14.7894 23.28 14.3815 23.28 13.9481ZM16.1466 5.28238C17.6801 5.67143 19.0744 6.47873 20.2008 7.63505C21.3272 8.79138 22.1145 10.2221 22.4937 11.7956C22.3329 11.9817 22.2037 12.1873 22.0898 12.4011C20.6074 13.1288 19.8691 14.3209 19.2089 15.3896C18.835 15.9956 18.4817 16.5681 18.0113 17.0496C15.787 19.3314 12.4816 19.5143 10.4851 17.4663C8.48907 15.4177 8.6673 12.0255 10.8911 9.74426C11.3615 9.26214 11.9184 8.90069 12.5079 8.51813C13.4814 7.88721 14.5577 7.17623 15.2775 5.83593C15.5908 5.70011 15.8861 5.51938 16.1466 5.28238ZM20.2013 20.261C18.5576 21.9471 16.3728 22.8762 14.0488 22.8762H14.0483C11.7238 22.8762 9.53847 21.9471 7.89527 20.261C4.50288 16.7796 4.50288 11.1159 7.89527 7.63452C9.02168 6.47874 10.416 5.67143 11.9495 5.28238C12.3165 5.61678 12.7516 5.84187 13.2162 5.97173C12.769 6.42409 12.2374 6.77255 11.6621 7.1459C11.0251 7.5593 10.3669 7.98622 9.7721 8.59604C6.92128 11.5212 6.74303 15.922 9.36656 18.6139C10.6085 19.8882 12.2232 20.5186 13.8822 20.5186C15.7279 20.5186 17.6284 19.7389 19.1298 18.1984C19.7236 17.5886 20.1407 16.9127 20.5446 16.2585C20.9291 15.6368 21.2871 15.0633 21.7639 14.5909C21.873 15.1488 22.1193 15.6682 22.4937 16.1011C22.1151 17.6741 21.3277 19.1047 20.2013 20.261Z" fill="#253670"/>
</svg>
