<svg width="28" height="28" viewBox="0 0 28 28" fill="none" xmlns="http://www.w3.org/2000/svg">
<path d="M14 3.5C8.21046 3.5 3.5 8.21046 3.5 14C3.5 19.7895 8.21046 24.5 14 24.5C19.7895 24.5 24.5 19.7895 24.5 14C24.5 8.21046 19.7895 3.5 14 3.5ZM22.8846 14C22.8846 15.5222 22.4985 16.9562 21.8206 18.2097C21.7867 16.5065 21.3225 14.8298 20.4427 13.306C19.6711 11.97 18.613 10.8376 17.3541 9.97554C17.6077 9.77792 17.8705 9.59057 18.1526 9.42742C19.0233 8.92503 19.9968 8.62779 20.9887 8.53302C22.1722 10.0423 22.8846 11.9377 22.8846 14ZM5.11538 14C5.11538 13.524 5.16385 13.0598 5.23654 12.6038C5.79493 13.1821 6.42492 13.6936 7.12546 14.098C8.44954 14.8626 9.93515 15.2519 11.4299 15.2519C12.2145 15.2519 13.0001 15.1383 13.7674 14.9224C14.4776 15.6181 15.0241 16.4478 15.3822 17.3573C14.1502 18.0029 12.7777 18.3433 11.3728 18.3433C9.079 18.3433 6.93861 17.4553 5.31246 15.8496C5.18484 15.2525 5.11538 14.6348 5.11538 14ZM16.7855 5.56932C17.8263 5.91447 18.7842 6.44218 19.6151 7.12226C18.823 7.3161 18.0557 7.61924 17.3455 8.02901C15.3284 9.19424 13.8885 11.123 13.3172 13.3673C12.3572 13.636 11.3637 13.6947 10.395 13.5498C10.451 12.16 10.843 10.8015 11.5457 9.58569C12.7023 7.581 14.5595 6.16647 16.7855 5.56932ZM14.8825 13.7571C15.1297 12.7911 15.5755 11.9016 16.1856 11.1348C17.3605 11.8784 18.3416 12.8967 19.0438 14.1136C20.1918 16.1027 20.4922 18.4009 19.9134 20.6118C19.11 21.3312 18.1774 21.9046 17.1522 22.2961C17.3735 21.5239 17.4908 20.7211 17.4908 19.9145C17.4914 17.5862 16.5405 15.3747 14.8825 13.7571ZM13.7087 5.12991C12.2489 6.01137 11.0277 7.25149 10.1468 8.77695C9.37461 10.1123 8.92392 11.5947 8.80707 13.1169C8.50876 12.9963 8.21531 12.8622 7.93316 12.6996C7.06946 12.2004 6.32962 11.5134 5.754 10.7111C7.03016 7.52337 10.0989 5.24783 13.7087 5.12991ZM6.49115 18.7272C7.97084 19.5306 9.63523 19.9586 11.3723 19.9586C12.915 19.9586 14.4248 19.6086 15.8012 18.9484C15.8458 19.2672 15.8765 19.5882 15.8765 19.9145C15.8765 20.9069 15.6525 21.8879 15.2482 22.7866C14.8395 22.8442 14.4249 22.8846 14.0005 22.8846C10.8392 22.8846 8.06615 21.2203 6.49115 18.7272Z" fill="#253670"/>
</svg>
