<svg width="24" height="24" viewBox="0 0 24 24" fill="none" xmlns="http://www.w3.org/2000/svg">
<path d="M16 3H8C5.8 3 4 4.8 4 7C4 9.2 5.8 11 8 11H16C18.2 11 20 9.2 20 7C20 4.8 18.2 3 16 3ZM16 9C14.896 9 14 8.104 14 7C14 5.896 14.896 5 16 5C17.104 5 18 5.896 18 7C18 8.104 17.104 9 16 9ZM16 13H8C5.8 13 4 14.8 4 17C4 19.2 5.8 21 8 21H16C18.2 21 20 19.2 20 17C20 14.8 18.2 13 16 13ZM8 19C6.896 19 6 18.104 6 17C6 15.896 6.896 15 8 15C9.104 15 10 15.896 10 17C10 18.104 9.104 19 8 19Z" fill="#989CB4"/>
</svg>
