<svg width="32" height="32" viewBox="0 0 32 32" fill="none" xmlns="http://www.w3.org/2000/svg">
<path d="M0 4C0 1.79086 1.79086 0 4 0H28C30.2091 0 32 1.79086 32 4V28C32 30.2091 30.2091 32 28 32H4C1.79086 32 0 30.2091 0 28V4Z" fill="white"/>
<path fill-rule="evenodd" clip-rule="evenodd" d="M16 26C21.5228 26 26 21.5228 26 16C26 10.4772 21.5228 6 16 6C10.4772 6 6 10.4772 6 16C6 21.5228 10.4772 26 16 26Z" fill="white"/>
<mask id="mask0" mask-type="alpha" maskUnits="userSpaceOnUse" x="6" y="6" width="20" height="20">
<path fill-rule="evenodd" clip-rule="evenodd" d="M16 26C21.5228 26 26 21.5228 26 16C26 10.4772 21.5228 6 16 6C10.4772 6 6 10.4772 6 16C6 21.5228 10.4772 26 16 26Z" fill="white"/>
</mask>
<g mask="url(#mask0)">
<rect x="1.49335" y="6.08008" width="29.12" height="20.8" fill="#0A17A7"/>
<path fill-rule="evenodd" clip-rule="evenodd" d="M8.43402 19.9467L-1.39127 26.5739L0.159562 28.8731L12.5867 20.4909V28.2667H19.52V20.4909L31.9471 28.8731L33.4979 26.5739L23.6726 19.9467H30.6133V13.0134H23.6726L33.4979 6.38611L31.9471 4.08691L19.52 12.4691V4.69335H12.5867V12.4691L0.159562 4.08692L-1.39127 6.38611L8.43402 13.0134H1.49333V19.9467H8.43402Z" fill="white"/>
<path d="M20.908 12.6655L34.08 4" stroke="#DB1F35" stroke-width="0.666667" stroke-linecap="round"/>
<path d="M22.3066 20.3255L34.1146 28.2844" stroke="#DB1F35" stroke-width="0.666667" stroke-linecap="round"/>
<path d="M9.81909 12.643L-2.49765 4.34229" stroke="#DB1F35" stroke-width="0.666667" stroke-linecap="round"/>
<path d="M11.155 20.2292L-2.49765 29.283" stroke="#DB1F35" stroke-width="0.666667" stroke-linecap="round"/>
<path fill-rule="evenodd" clip-rule="evenodd" d="M1.49335 18.5601H13.9733V26.8801H18.1333V18.5601H30.6133V14.4001H18.1333V6.08008H13.9733V14.4001H1.49335V18.5601Z" fill="#E6273E"/>
</g>
<path d="M4 1H28V-1H4V1ZM31 4V28H33V4H31ZM28 31H4V33H28V31ZM1 28V4H-1V28H1ZM4 31C2.34315 31 1 29.6569 1 28H-1C-1 30.7614 1.23858 33 4 33V31ZM31 28C31 29.6569 29.6569 31 28 31V33C30.7614 33 33 30.7614 33 28H31ZM28 1C29.6569 1 31 2.34315 31 4H33C33 1.23858 30.7614 -1 28 -1V1ZM4 -1C1.23858 -1 -1 1.23858 -1 4H1C1 2.34315 2.34315 1 4 1V-1Z" fill="#989CB4" fill-opacity="0.4"/>
</svg>
