<svg width="32" height="20" viewBox="0 0 32 20" fill="none" xmlns="http://www.w3.org/2000/svg">
<path d="M0 4C0 1.79086 1.79086 0 4 0H28C30.2091 0 32 1.79086 32 4V16C32 18.2091 30.2091 20 28 20H4C1.79086 20 0 18.2091 0 16V4Z" fill="#253670" fill-opacity="0.05"/>
<path d="M11 7.5L16 12.5L21 7.5" stroke="#1C2546" stroke-width="2"/>
<path d="M4 1H28V-1H4V1ZM31 4V16H33V4H31ZM28 19H4V21H28V19ZM1 16V4H-1V16H1ZM4 19C2.34315 19 1 17.6569 1 16H-1C-1 18.7614 1.23858 21 4 21V19ZM31 16C31 17.6569 29.6569 19 28 19V21C30.7614 21 33 18.7614 33 16H31ZM28 1C29.6569 1 31 2.34315 31 4H33C33 1.23858 30.7614 -1 28 -1V1ZM4 -1C1.23858 -1 -1 1.23858 -1 4H1C1 2.34315 2.34315 1 4 1V-1Z" fill="#989CB4" fill-opacity="0.2"/>
</svg>
