<svg width="28" height="28" viewBox="0 0 28 28" fill="none" xmlns="http://www.w3.org/2000/svg">
<path d="M14 3.5C8.21046 3.5 3.5 8.21046 3.5 14C3.5 19.7895 8.21046 24.5 14 24.5C19.7895 24.5 24.5 19.7895 24.5 14C24.5 8.21046 19.7895 3.5 14 3.5ZM19.1364 19.803L17.5792 17.6605L18.984 13.3377L21.5029 12.5192L22.8771 14.1481C22.8448 16.0865 22.1868 17.871 21.0996 19.3184L19.1364 19.803ZM8.86362 19.803L6.90039 19.3184C5.81269 17.871 5.15523 16.0865 5.12293 14.1481L6.49654 12.5192L9.01599 13.3377L10.4208 17.6594L8.86362 19.803ZM11.893 16.9615L10.5894 12.9527L14.0011 10.4752L17.4106 12.9522L16.1075 16.9615H11.893ZM21.1642 8.76777L21.0038 10.983L18.5473 11.781L14.8077 9.06446V6.48092L16.9238 5.61992C18.6378 6.22031 20.1105 7.32846 21.1642 8.76777ZM11.0762 5.62046L13.1923 6.48146V9.06608L9.45323 11.781L6.99624 10.983L6.83632 8.76777C7.88955 7.329 9.36224 6.22031 11.0762 5.62046ZM11.2135 22.4307L10.1705 20.7523L11.7514 18.5764H16.2486L17.8295 20.7523L16.7865 22.4302C15.9088 22.7209 14.9741 22.8841 14 22.8841C13.0259 22.8841 12.0912 22.7215 11.2135 22.4307Z" fill="#253670"/>
</svg>
