<svg width="32" height="32" viewBox="0 0 32 32" fill="none" xmlns="http://www.w3.org/2000/svg">
<path fill-rule="evenodd" clip-rule="evenodd" d="M20.6875 16C20.6875 18.5891 18.5891 20.6875 16 20.6875C13.4109 20.6875 11.3125 18.5891 11.3125 16C11.3125 15.7328 11.3406 15.4719 11.3891 15.2188H9.75V21.4641C9.75 21.8984 10.1016 22.25 10.5359 22.25H21.4656C21.8984 22.25 22.25 21.8984 22.25 21.4641V15.2188H20.6109C20.6594 15.4719 20.6875 15.7328 20.6875 16ZM16 19.125C17.725 19.125 19.125 17.725 19.125 16C19.125 14.275 17.725 12.875 16 12.875C14.275 12.875 12.875 14.275 12.875 16C12.875 17.725 14.275 19.125 16 19.125ZM19.75 12.7188H21.6234C21.8828 12.7188 22.0938 12.5078 22.0938 12.25V10.3766C22.0938 10.1172 21.8828 9.90625 21.6234 9.90625H19.75C19.4906 9.90625 19.2797 10.1172 19.2797 10.3766V12.25C19.2812 12.5078 19.4922 12.7188 19.75 12.7188ZM23.8125 22.0766C23.8125 23.0312 23.0312 23.8125 22.0766 23.8125H9.92344C8.96875 23.8125 8.1875 23.0312 8.1875 22.0766V9.92344C8.1875 8.96875 8.96875 8.1875 9.92344 8.1875H22.0766C23.0312 8.1875 23.8125 8.96875 23.8125 9.92344V22.0766Z" fill="#1C2546" fill-opacity="0.8"/>
<path d="M4 1H28V-1H4V1ZM31 4V28H33V4H31ZM28 31H4V33H28V31ZM1 28V4H-1V28H1ZM4 31C2.34315 31 1 29.6569 1 28H-1C-1 30.7614 1.23858 33 4 33V31ZM31 28C31 29.6569 29.6569 31 28 31V33C30.7614 33 33 30.7614 33 28H31ZM28 1C29.6569 1 31 2.34315 31 4H33C33 1.23858 30.7614 -1 28 -1V1ZM4 -1C1.23858 -1 -1 1.23858 -1 4H1C1 2.34315 2.34315 1 4 1V-1Z" fill="#989CB4" fill-opacity="0.4"/>
</svg>
