<svg width="40" height="40" viewBox="0 0 40 40" fill="none" xmlns="http://www.w3.org/2000/svg">
<path d="M20.3229 38.993L19.9944 38.8907C19.6061 38.7688 10.4256 35.7627 5.19216 23.5008C2.20492 16.5031 2.49505 4.59119 2.50849 4.08771L2.52599 3.46912L3.06515 3.16421C3.26641 3.05045 8.12556 0.384277 20.3229 0.384277C32.5203 0.384277 37.3801 3.05112 37.5807 3.16421L38.1205 3.46912L38.138 4.08771C38.1514 4.59119 38.4409 16.5031 35.4543 23.5014C30.2203 35.7627 21.0391 38.7688 20.6514 38.8907L20.3229 38.993Z" fill="#162228"/>
<path d="M38.7923 2.90243C38.7923 2.90243 33.6558 0 20.4023 0C7.14887 0 2.01239 2.90243 2.01239 2.90243C2.01239 2.90243 1.64824 16.2057 4.86771 23.7485C10.472 36.8808 20.4023 40 20.4023 40C20.4023 40 30.3327 36.8815 35.9369 23.7485C39.1564 16.2057 38.7923 2.90243 38.7923 2.90243ZM34.9522 23.4046C29.6521 35.7709 20.4023 38.8335 20.4023 38.8335C20.4023 38.8335 11.1518 35.7702 5.85246 23.4046C2.80801 16.302 3.01398 3.68593 3.01398 3.68593C3.01398 3.68593 7.87044 1.16582 20.4023 1.16582C32.9342 1.16582 37.79 3.68593 37.79 3.68593C37.79 3.68593 37.9953 16.302 34.9522 23.4046Z" fill="url(#paint0_linear)"/>
<path d="M5.08903 5.06604C5.08903 5.06604 4.83998 13.0033 6.36995 19.2443H15.6716L19.3871 13.1521L13.4867 3.47953C7.47721 3.99715 5.08903 5.06604 5.08903 5.06604ZM14.8854 15.2111H12.5134C12.4077 15.0408 10.6475 12.2124 10.6475 12.2124L9.60624 13.0612C9.60624 13.0612 9.60624 14.8893 9.60624 15.2111H7.64818V8.48676H9.60624C9.60624 8.80985 9.60624 11.0627 9.60624 11.0627C9.60624 11.0627 12.0442 8.59581 12.1513 8.48676H14.4856C13.966 8.99429 11.9675 10.9456 11.9675 10.9456C11.9675 10.9456 14.528 14.6881 14.8854 15.2111ZM20.4022 3.20288C18.5565 3.20288 16.9067 3.25404 15.4313 3.33952L20.4022 11.4888L25.3737 3.34019C23.8976 3.25404 22.2478 3.20288 20.4022 3.20288ZM35.7147 5.06604C35.7147 5.06604 33.3265 3.99715 27.3163 3.47885L21.4159 13.1514L25.1321 19.2437H34.4331C35.9644 13.0033 35.7147 5.06604 35.7147 5.06604Z" fill="url(#paint1_linear)"/>
<path d="M26.6488 23.6662C26.6488 23.6662 26.1204 23.7255 25.765 23.3754C25.485 23.0995 25.1087 22.5327 25.1087 22.5327L20.4024 14.8156L15.6953 22.5327C15.6953 22.5327 15.3197 23.0988 15.0397 23.3754C14.6843 23.7248 14.1559 23.6662 14.1559 23.6662H7.95999C12.7377 33.6188 20.4024 36.3247 20.4024 36.3247C20.4024 36.3247 28.067 33.6188 32.8447 23.6662H26.6488Z" fill="url(#paint2_linear)"/>
<path d="M19.2379 24.7747L19.8915 25.8779C20.082 26.2185 20.259 26.5584 20.4361 26.8721H20.4637C20.6407 26.518 20.8042 26.1774 20.9813 25.851L21.5669 24.7747H23.8137L21.6214 27.9477L23.8406 31.4337H21.4982L20.8312 30.2356C20.6407 29.9084 20.4771 29.5678 20.3135 29.2279H20.2725C20.1089 29.582 19.9319 29.9084 19.7683 30.2356L19.1423 31.4337H16.8686L19.1289 28.0433L16.9231 24.7753L19.2379 24.7747Z" fill="#162228"/>
<path d="M32.6367 8.49762V15.156H30.5669V10.0767H29.1231V11.3025C29.1231 12.9226 28.9319 14.0528 28.1834 14.6518C27.7614 15.1015 27.1758 15.292 26.2503 15.292L26.0328 13.6987C26.3324 13.6442 26.6184 13.5217 26.7679 13.3312C27.1488 12.9502 27.2034 12.3236 27.2034 11.1934V8.49695L32.6367 8.49762Z" fill="#162228"/>
<defs>
<linearGradient id="paint0_linear" x1="2.00021" y1="19.9999" x2="38.8044" y2="19.9999" gradientUnits="userSpaceOnUse">
<stop stop-color="#C1C1C1"/>
<stop offset="1" stop-color="#C1C1C1"/>
</linearGradient>
<linearGradient id="paint1_linear" x1="5.07395" y1="11.2236" x2="35.7299" y2="11.2236" gradientUnits="userSpaceOnUse">
<stop stop-color="#A0A0A0"/>
<stop offset="0.5398" stop-color="#FCFCFC"/>
<stop offset="1" stop-color="#A0A0A0"/>
</linearGradient>
<linearGradient id="paint2_linear" x1="7.95939" y1="25.5702" x2="32.8448" y2="25.5702" gradientUnits="userSpaceOnUse">
<stop stop-color="#999999"/>
<stop offset="1" stop-color="white"/>
</linearGradient>
</defs>
</svg>
