<svg width="40" height="40" viewBox="0 0 40 40" fill="none" xmlns="http://www.w3.org/2000/svg">
<path d="M20.368 9.09204C21.1312 9.35112 21.7931 9.84682 22.2991 10.4714C22.1968 10.4316 21.9937 10.3536 21.893 10.3141C22.0974 10.7256 22.1586 11.1826 22.1478 11.6385C21.736 11.8697 21.2595 11.9685 20.8586 12.2097C20.3077 11.7977 19.7448 11.4048 19.1942 10.995C18.6094 11.401 18.0371 11.825 17.4642 12.2476C17.6849 12.9198 17.8955 13.5953 18.1205 14.2669C18.7778 14.2669 19.437 14.2756 20.0946 14.2677C20.3112 14.3238 20.3014 14.0368 20.3726 13.9147C20.5464 13.4093 20.6677 12.8852 20.8808 12.3946C21.2143 12.0137 21.8015 12.0519 22.2585 11.9715C22.553 12.3034 22.7301 12.7246 22.81 13.1589C22.8671 13.0904 22.9846 12.9493 23.0431 12.8787C23.0027 13.605 22.8073 14.3514 22.3495 14.9289C22.3503 14.8444 22.3522 14.6714 22.3527 14.5864C22.0219 14.9007 21.6217 15.1381 21.1745 15.2394C20.9024 14.9308 20.6325 14.6205 20.3445 14.3281C20.4874 14.7236 20.72 15.0764 20.9252 15.4416C20.6696 15.8166 20.302 16.0865 19.9747 16.3927C20.0724 16.3978 20.2676 16.4089 20.3645 16.4141C19.6227 16.7053 18.7745 16.6975 18.0279 16.4308C18.1289 16.4184 18.3278 16.3927 18.4275 16.3805C18.056 16.1206 17.7163 15.8141 17.4493 15.4435C17.6472 15.0737 17.8668 14.7169 18.0563 14.3419C17.7333 14.6154 17.4607 14.9405 17.1727 15.2518C16.7449 15.1143 16.3426 14.9018 16.018 14.5877C16.0218 14.6787 16.0283 14.8601 16.031 14.9505C15.5651 14.3576 15.3594 13.5999 15.3223 12.8567C15.3845 12.9312 15.5096 13.0806 15.5724 13.1545C15.6309 12.7003 15.8561 12.2953 16.1279 11.9346C16.5224 12.0156 16.9157 12.1066 17.3102 12.1834C16.9999 11.9217 16.5725 11.858 16.2582 11.6149C16.1166 11.201 16.3283 10.7416 16.4626 10.3444C16.3757 10.3726 16.1994 10.4286 16.1128 10.457C16.5584 9.81731 17.2368 9.37928 17.9556 9.10097L17.6784 9.43938C18.137 9.36926 18.5959 9.45481 19.032 9.59775C19.0723 9.98976 19.1094 10.3801 19.1698 10.7697C19.2932 10.3896 19.2873 9.98489 19.3458 9.59234C19.7808 9.45698 20.2343 9.37035 20.6929 9.42639C20.6128 9.34354 20.4495 9.17651 20.368 9.09204Z" fill="white"/>
<path d="M18.0957 0H18.2717C18.6015 1.74319 18.9588 3.48395 19.2339 5.23554C18.9158 5.43885 18.5097 5.44399 18.1626 5.58829C16.8039 6.05827 15.7004 7.08269 14.9838 8.3134C13.4271 7.42109 11.8761 6.51417 10.3262 5.61022C11.8648 2.67584 14.8508 0.595323 18.0957 0Z" fill="#8D267F"/>
<path d="M19.3524 1.4209C22.6098 0.809066 26.1119 1.82943 28.5885 4.02094C28.7509 4.13762 28.5308 4.31089 28.4631 4.41674C27.3689 5.65422 26.3187 6.93529 25.2017 8.14949C24.9207 8.1124 24.739 7.84952 24.5054 7.71145C23.253 6.79099 21.639 6.53678 20.1216 6.7252C19.8798 4.95575 19.5899 3.19063 19.3524 1.4209Z" fill="#DD1F26"/>
<path d="M8.50159 5.59375C9.49217 6.00254 10.3991 6.59272 11.358 7.07272C11.9953 7.44307 12.6867 7.72625 13.288 8.15697C12.4184 9.66274 12.2793 11.5475 12.9152 13.1654C13.0338 13.3671 12.766 13.4247 12.6366 13.4843C11.1173 14.0539 9.61291 14.6695 8.08684 15.2221C7.88109 15.2919 7.83263 15.0355 7.7709 14.9037C6.65877 11.8846 6.93788 8.40333 8.50159 5.59375Z" fill="#05539F"/>
<path d="M28.1436 5.98811C28.2368 5.83488 28.4022 5.90608 28.4945 6.02141C30.8649 8.24081 32.1625 11.555 31.9248 14.7937L31.8452 14.8684C30.3113 14.8113 28.779 14.7133 27.2437 14.6556C27.0014 14.6505 26.7602 14.6212 26.525 14.5644C26.6251 13.2489 26.2597 11.8975 25.4959 10.8186C25.2301 10.4264 24.8836 10.0969 24.5906 9.72681C25.781 8.48608 26.9551 7.22965 28.1436 5.98811Z" fill="#EE8E22"/>
<path d="M20.8964 27.2324C21.793 26.8303 22.8786 27.6991 22.6788 28.6604C22.5852 29.5763 21.4346 30.1199 20.6706 29.6023C19.7778 29.0866 19.9318 27.5784 20.8964 27.2324Z" fill="#1F1410"/>
<path d="M18.2504 8.64302C19.0076 8.49249 19.8144 8.50522 20.548 8.7643C22.011 9.24213 23.1467 10.593 23.3625 12.1186C23.6459 13.7348 22.8557 15.4466 21.4818 16.3283C20.1265 17.2112 18.2507 17.2223 16.897 16.3302C15.5204 15.4569 14.731 13.7473 15.0028 12.1332C15.2313 10.446 16.5873 8.99577 18.2504 8.64302ZM20.368 9.09133C20.4497 9.1758 20.6127 9.34284 20.6939 9.42703C20.2356 9.37099 19.7821 9.4579 19.346 9.59299C19.2875 9.98527 19.2938 10.39 19.1703 10.7706C19.1102 10.3813 19.0731 9.99041 19.0325 9.5984C18.5958 9.45492 18.1375 9.36991 17.6789 9.44003L17.9561 9.10162C17.2371 9.37993 16.5589 9.81823 16.113 10.4577C16.1999 10.4295 16.3759 10.3735 16.4631 10.3453C16.3288 10.7425 16.1168 11.2027 16.2587 11.6158C16.5732 11.8587 17.0007 11.9223 17.3107 12.1844C16.9163 12.1064 16.5224 12.0154 16.1284 11.9353C15.8564 12.2951 15.6317 12.7001 15.5729 13.1554C15.5104 13.0813 15.385 12.9321 15.3228 12.8582C15.3593 13.6016 15.5653 14.3583 16.0315 14.9514C16.0288 14.861 16.0223 14.6794 16.0188 14.5887C16.3431 14.9027 16.7452 15.1152 17.1734 15.2527C17.462 14.9425 17.7344 14.6171 18.0571 14.3431C17.8681 14.7181 17.6486 15.0749 17.4501 15.4447C17.7171 15.8153 18.0571 16.1218 18.4285 16.3817C18.3292 16.3936 18.1299 16.4196 18.0287 16.4323C18.7759 16.699 19.6235 16.7068 20.3658 16.4155C20.2686 16.4104 20.0729 16.399 19.9763 16.3939C20.303 16.0879 20.6707 15.8172 20.9262 15.4431C20.7205 15.0776 20.4882 14.7246 20.3453 14.3299C20.6341 14.6217 20.9038 14.9319 21.1753 15.2406C21.6225 15.139 22.0235 14.9011 22.3546 14.5876C22.3527 14.6723 22.3519 14.8456 22.3508 14.93C22.8078 14.3518 23.0032 13.6046 23.0441 12.8799C22.9854 12.9505 22.8681 13.0916 22.8105 13.1601C22.7311 12.7261 22.5535 12.3046 22.259 11.9729C21.8026 12.0533 21.2156 12.0152 20.8824 12.3961C20.669 12.8872 20.548 13.411 20.3737 13.9167C20.3019 14.0372 20.3125 14.3252 20.0954 14.2692C19.4375 14.2768 18.7788 14.2684 18.1213 14.2684C17.896 13.5965 17.6859 12.9213 17.465 12.2488C18.0381 11.8259 18.6099 11.4022 19.1952 10.9964C19.7459 11.4066 20.3082 11.7994 20.8591 12.2112C21.26 11.9697 21.7365 11.8709 22.1496 11.6399C22.1594 11.1838 22.0979 10.7268 21.8935 10.3155C21.9948 10.3551 22.1973 10.4333 22.2996 10.4726C21.7928 9.84611 21.1312 9.35042 20.368 9.09133Z" fill="#1F1410"/>
<path d="M0.000270725 28.5027C0.778062 28.5027 1.55585 28.5013 2.3331 28.5027C2.33175 30.8003 2.33716 33.0985 2.33067 35.3961C3.25735 35.408 4.18486 35.3899 5.11127 35.4072C5.10207 36.0908 5.10586 36.7755 5.10667 37.4601C3.40598 37.4669 1.70313 37.4601 0 37.4628C0.000270724 34.4762 0.000270725 31.4888 0.000270725 28.5027Z" fill="#1F1410"/>
<path d="M14.2572 28.5171C15.0396 28.4878 15.8228 28.5035 16.6049 28.5065C16.5957 30.8044 16.6036 33.1023 16.6003 35.4C17.5251 35.4 18.4499 35.4 19.3731 35.4C19.3717 36.0873 19.3763 36.7736 19.3706 37.461C17.6713 37.4678 15.9739 37.4556 14.2762 37.4667C14.2504 34.4844 14.2878 31.5004 14.2572 28.5171Z" fill="#1F1410"/>
<path d="M6.23778 31.4927C6.93436 30.5352 8.1629 29.9818 9.34326 30.17C9.94102 30.2284 10.4378 30.5961 10.8956 30.9532C10.8896 30.7339 10.885 30.517 10.8823 30.2972C11.6062 30.2918 12.3291 30.2931 13.053 30.2972C13.0449 32.6871 13.0636 35.0766 13.0449 37.4662C12.3161 37.4581 11.5881 37.4622 10.8596 37.4635C10.8596 37.2773 10.8569 37.0916 10.8496 36.9067C10.5675 36.9968 10.3571 37.2388 10.0823 37.3536C8.82997 37.9378 7.17449 37.6457 6.28489 36.5585C5.17059 35.1331 5.15434 32.9411 6.23778 31.4927ZM8.84811 32.2356C8.34185 32.3745 7.9206 32.7678 7.7514 33.2635C7.41056 34.1764 7.88731 35.4206 8.90252 35.6291C9.93588 35.8847 11.0299 34.9769 10.9584 33.9105C11.0201 32.8301 9.90014 31.9037 8.84811 32.2356Z" fill="#1F1410"/>
<path d="M24.4603 30.9057C25.2262 30.1534 26.4268 29.9544 27.4266 30.2953C27.8381 30.436 28.1654 30.7295 28.503 30.9913C28.503 30.7604 28.503 30.5294 28.5022 30.298C29.2029 30.2893 29.9019 30.2923 30.6028 30.2966C30.596 32.4061 30.6068 34.5148 30.5976 36.6248C30.5919 37.5144 30.2955 38.4343 29.6225 39.0432C28.4521 40.1112 26.6361 40.2384 25.211 39.6545C24.2887 39.2941 23.5953 38.4484 23.4505 37.4635C24.2667 37.4635 25.0819 37.4535 25.8978 37.4716C26.2923 38.2093 27.3159 38.1595 27.9532 37.7973C28.4275 37.5301 28.4551 36.9331 28.4329 36.4518C27.8381 36.8955 27.1361 37.2642 26.3735 37.2318C25.145 37.2789 24.0228 36.399 23.6105 35.2698C23.0563 33.8228 23.3024 31.993 24.4603 30.9057ZM26.4369 32.1037C25.2993 32.5163 25.1276 34.2202 25.9447 35.0208C26.5709 35.6163 27.6911 35.4517 28.1833 34.76C28.6471 34.1504 28.627 33.2489 28.1979 32.6254C27.8086 32.0915 27.0538 31.9007 26.4369 32.1037Z" fill="#1F1410"/>
<path d="M32.2957 31.4524C32.9871 30.5335 34.1702 29.9953 35.3186 30.1643C35.9329 30.22 36.4578 30.5752 36.9167 30.9621C36.9197 30.7374 36.924 30.5135 36.9305 30.2883C37.6379 30.2983 38.3448 30.2931 39.053 30.2931C39.0581 32.6801 39.0441 35.0655 39.0592 37.4516C38.3358 37.4736 37.6125 37.4597 36.8883 37.4597C36.8883 37.2516 36.8883 37.0418 36.8913 36.8317C36.297 37.326 35.5525 37.6793 34.765 37.6414C33.5857 37.6872 32.4089 37.0139 31.9015 35.9399C31.2326 34.5243 31.313 32.7069 32.2957 31.4524ZM34.821 32.2502C33.6252 32.5797 33.3299 34.2384 34.096 35.1193C34.615 35.7905 35.6554 35.8227 36.3043 35.3267C37.1904 34.6967 37.2088 33.2343 36.3763 32.5515C35.951 32.1944 35.3489 32.0978 34.821 32.2502Z" fill="#1F1410"/>
<path d="M20.2905 30.2924C21.0093 30.2959 21.7278 30.2978 22.4476 30.2908C22.4566 32.6815 22.449 35.0728 22.4522 37.4628C21.731 37.4628 21.0085 37.4628 20.2878 37.4628C20.2886 35.0728 20.2835 32.6815 20.2905 30.2924Z" fill="#1F1410"/>
<path d="M7.09139 16.5092C8.66213 15.8508 10.2063 15.1217 11.7947 14.5061C12.4409 16.1248 13.8246 17.4061 15.4884 17.9207C15.7486 17.9546 15.5829 18.2272 15.5596 18.3891C15.0526 19.9666 14.5793 21.5541 14.0707 23.1311C10.966 22.304 8.32237 19.9772 6.99799 17.0626C6.95088 16.8866 6.83745 16.5679 7.09139 16.5092Z" fill="#168DCD"/>
<path d="M24.9549 15.1921C26.7466 15.2923 28.5363 15.4472 30.3237 15.6023C30.2221 18.4002 28.9243 21.1023 26.9217 23.0412C26.507 23.4184 26.0917 23.8052 25.6009 24.0865C24.5104 22.6676 23.4779 21.2044 22.4136 19.7641C23.3471 19.0378 24.1685 18.1211 24.5648 16.99C24.7968 16.4169 24.881 15.8013 24.9549 15.1921Z" fill="#FDEE1C"/>
<path d="M17.7975 19.858C18.9418 19.8293 20.0269 19.3835 20.9785 18.7703C21.9656 20.2641 23.023 21.7193 23.9511 23.2486C22.2566 24.5245 20.1279 25.1629 18.0217 25.2861H17.0768C16.165 25.2181 15.2494 25.1039 14.3788 24.8131C14.8217 23.0813 15.3323 21.3671 15.7855 19.6382C16.4525 19.7378 17.1174 19.9062 17.7975 19.858Z" fill="#099146"/>
</svg>
