<svg width="40" height="40" viewBox="0 0 40 40" fill="none" xmlns="http://www.w3.org/2000/svg">
<path d="M20.3467 19.7869H23.3067L25.3067 12.0535L24.8267 11.0135C22.2133 12.6935 19.92 14.8269 18.08 17.3336L18.7734 20.9869L20.3467 19.7869Z" fill="#FFB71B"/>
<path d="M24.4 10.133L22.6934 6.45297C22.64 6.3463 22.56 6.2663 22.4534 6.23964C22.3467 6.21297 22.2134 6.2663 22.1334 6.31964L16.72 10.2396L17.8134 16.0263C19.6534 13.7063 21.8934 11.7063 24.4 10.133Z" fill="#FFB71B"/>
<path d="M21.4933 25.3597L22.6133 20.7731H20.6666L18.96 22.0531L19.5466 25.0397L21.4933 25.3597Z" fill="#FFB71B"/>
<path d="M23.1201 30.587L21.7601 26.4003L19.4668 26.027L19.1468 29.4936C20.4535 29.9736 21.7601 30.347 23.1201 30.587Z" fill="#FFB71B"/>
<path d="M17.28 22.1335L18.7733 20.9868L18.08 17.3335C17.5467 18.0535 17.04 18.8268 16.5867 19.6002L17.28 22.1335Z" fill="#FF671D"/>
<path d="M16.2132 18.2928C16.6932 17.5195 17.2532 16.7462 17.8132 16.0262L16.7199 10.2395L14.4799 11.8662L16.2132 18.2928Z" fill="#FF671D"/>
<path d="M18.3466 24.8262L19.5466 25.0395L18.9599 22.0529L17.9199 22.8795L18.3466 24.8262Z" fill="#FF671D"/>
<path d="M17.4666 28.7731C18.0266 29.0398 18.5866 29.2798 19.1733 29.4931L19.4933 26.0264L18.2933 25.8131L17.4666 28.7731Z" fill="#FF671D"/>
<path d="M21.2001 32.5868C22.0534 32.5868 22.8801 32.5068 23.7067 32.3468L23.8934 32.9335L23.4667 31.6535C21.9734 31.4135 20.4801 31.0402 19.0667 30.5068L18.8801 32.3735C19.6267 32.5068 20.4001 32.5868 21.2001 32.5868Z" fill="#FFB71B"/>
<path d="M23.8934 32.9071C23.8134 32.9338 23.7334 32.9604 23.6534 32.9871C23.7334 32.9604 23.8134 32.9338 23.8934 32.9071Z" fill="#28357F"/>
<path d="M23.6798 32.3204C22.8798 32.4804 22.0532 32.5604 21.1732 32.5604C20.3732 32.5604 19.6265 32.4804 18.8798 32.347L19.0665 30.4804C18.4265 30.2404 17.8132 30.0004 17.1998 29.707L16.6398 31.707L16.2932 32.9604C16.4265 32.987 16.5332 33.0404 16.6665 33.067C16.6932 33.067 16.7198 33.067 16.7465 33.0937C16.8532 33.1204 16.9598 33.147 17.0665 33.1737H17.0932C17.1198 33.1737 17.1198 33.1737 17.1465 33.1737C17.1732 33.1737 17.1998 33.1737 17.2265 33.2004C17.2532 33.2004 17.3065 33.227 17.3332 33.227C17.3598 33.227 17.3865 33.227 17.4132 33.2537C17.4665 33.2537 17.4932 33.2804 17.5465 33.2804H17.5732H17.5998C17.6265 33.2804 17.6532 33.2804 17.6798 33.307C17.7332 33.307 17.8132 33.3337 17.8665 33.3337H17.8932H17.9198C17.9465 33.3337 17.9465 33.3337 17.9732 33.3337C18.0265 33.3337 18.1065 33.3604 18.1598 33.3604H18.1865C18.3732 33.387 18.5598 33.4137 18.7465 33.4137C19.1465 33.4404 19.5465 33.467 19.9465 33.467C20.4798 33.467 20.9865 33.4404 21.4932 33.387H21.5198C21.6265 33.387 21.7332 33.3604 21.8398 33.3337H21.8665H21.8932C21.9998 33.307 22.1065 33.307 22.1865 33.2804C22.2398 33.2804 22.2932 33.2537 22.3198 33.2537C22.3732 33.2537 22.4265 33.227 22.4798 33.227C22.5865 33.2004 22.6932 33.1737 22.8265 33.147C22.8532 33.147 22.8532 33.147 22.8798 33.147C23.1198 33.0937 23.3332 33.0404 23.5732 32.9604C23.6532 32.9337 23.7332 32.907 23.8132 32.8804L23.6798 32.3204Z" fill="#FF671D"/>
<path d="M11.6267 11.8403C13.3867 9.78696 15.7867 8.32029 18.5067 7.70696L20.16 6.50696C20.1067 6.50696 20.0534 6.50696 20 6.50696C19.3067 6.50696 18.6134 6.56029 17.9467 6.66696H17.92C17.8134 6.69362 17.7334 6.69362 17.6267 6.72029C17.6 6.72029 17.5734 6.72029 17.52 6.74696C17.44 6.77362 17.3867 6.77362 17.3067 6.80029C17.2534 6.80029 17.2 6.82696 17.1467 6.82696C17.0934 6.82696 17.04 6.85362 17.0134 6.85362C16.9334 6.88029 16.8534 6.88029 16.8 6.90696C16.7734 6.90696 16.7467 6.90696 16.72 6.93362C16.64 6.96029 16.5334 6.98696 16.4534 7.01362H16.4267C14.24 7.62696 12.2667 8.77362 10.6934 10.2936C10.9334 10.827 11.28 11.3336 11.6267 11.8403Z" fill="#001A70"/>
<path d="M8.6132 20.0003C8.6132 17.2536 9.4932 14.6936 11.0132 12.6403C10.6132 12.1336 10.2665 11.6003 9.94654 11.0403C8.55987 12.5869 7.54654 14.427 6.98654 16.4803C6.98654 16.507 6.95987 16.5603 6.95987 16.587C6.95987 16.6403 6.9332 16.6669 6.9332 16.7203C6.90654 16.7736 6.90654 16.8536 6.87987 16.9069C6.87987 16.9336 6.87987 16.9603 6.8532 16.9869C6.82654 17.0669 6.82654 17.147 6.79987 17.227C6.79987 17.2536 6.79987 17.2536 6.79987 17.2803C6.7732 17.387 6.7732 17.4669 6.74654 17.5736C6.74654 17.5736 6.74654 17.5736 6.74654 17.6003C6.58654 18.4003 6.5332 19.2003 6.5332 20.0003C6.5332 20.6936 6.58654 21.3603 6.6932 22.0269C7.35987 21.7603 8.02654 21.5203 8.71987 21.3069C8.63987 20.8803 8.6132 20.4536 8.6132 20.0003Z" fill="#001A70"/>
<path d="M11.1734 27.5733C10.0267 26.0533 9.20006 24.24 8.82673 22.2933C8.16006 22.5067 7.49339 22.7467 6.85339 23.0133C6.85339 23.0133 6.85339 23.0133 6.85339 23.04C6.88006 23.1733 6.90673 23.3067 6.96006 23.44C6.96006 23.4667 6.96006 23.4667 6.98673 23.4933C7.01339 23.6267 7.06673 23.76 7.09339 23.8933V23.92C7.70673 25.9467 8.80006 27.7867 10.2401 29.3067C10.5067 28.6933 10.8001 28.1067 11.1734 27.5733Z" fill="#001A70"/>
<path d="M15.3332 32.6404L15.7066 31.3071C14.2132 30.5871 12.9066 29.5738 11.8132 28.3738C11.4932 28.8804 11.1999 29.4404 10.9866 30.0271C12.2666 31.1471 13.7332 32.0538 15.3332 32.6404Z" fill="#001A70"/>
<path d="M29.3066 10.3731C29.3333 10.3464 29.3333 10.3198 29.36 10.2664C29.3333 10.2398 29.3333 10.2398 29.3066 10.2131C29.2533 10.1598 29.1733 10.0798 29.12 10.0264C29.0933 9.99976 29.0666 9.9731 29.04 9.9731C28.96 9.8931 28.88 9.8131 28.7733 9.75976C28.7733 9.75976 28.7733 9.75976 28.7466 9.75976C27.4933 8.66643 26.0266 7.83976 24.4533 7.27976C24.4266 7.27976 24.4 7.2531 24.3466 7.2531C24.2666 7.22643 24.1866 7.19976 24.1066 7.1731H24.08L24.4 7.86643C26.24 8.31976 27.8933 9.19976 29.3066 10.3731Z" fill="#001A70"/>
<path d="M29.0134 30.0264C28.9867 29.9731 28.9867 29.9464 28.96 29.8931C27.7067 30.8797 26.24 31.6264 24.6667 32.0797L24.8267 32.5864C26.3734 31.9997 27.7867 31.1197 29.0134 30.0264Z" fill="#001A70"/>
<path d="M11.6268 11.8401C12.3201 12.7467 13.1201 13.5201 14.0534 14.1601L13.3334 11.4667L18.5068 7.7334C15.7868 8.2934 13.3868 9.78673 11.6268 11.8401Z" fill="#001A70"/>
<path d="M26.3467 11.9735L25.76 14.2669C27.2534 13.2802 28.48 11.9469 29.3067 10.3735C27.92 9.20021 26.2667 8.32021 24.4534 7.84021L26.3467 11.9735Z" fill="#001A70"/>
<path d="M15.7067 31.3071L17.44 25.2271L17.2267 24.2671C14.96 24.9338 13.0667 26.4271 11.84 28.3738C12.9067 29.6004 14.24 30.5871 15.7067 31.3071Z" fill="#0047BA"/>
<path d="M16.6133 23.4397L15.8933 20.7731C13.4933 21.0397 11.1467 21.5731 8.85333 22.3197C9.22667 24.2664 10.0267 26.0797 11.2 27.5997C12.4533 25.6531 14.3733 24.1864 16.6133 23.4397Z" fill="#001A70"/>
<path d="M8.69325 21.3064C10.9333 20.5864 13.2533 20.0797 15.6266 19.7864L14.4799 15.5197C13.1466 14.773 11.9733 13.7864 11.0399 12.613C9.54658 14.693 8.63992 17.2264 8.63992 19.973C8.61325 20.453 8.63992 20.8797 8.69325 21.3064Z" fill="#0047BA"/>
<path d="M22.7733 24.2671L22.48 25.4138L24.64 32.0804C26.2133 31.6271 27.68 30.8804 28.9333 29.8938C27.8666 27.2004 25.5466 25.1204 22.7733 24.2671Z" fill="#0047BA"/>
<path d="M23.6268 20.7196L22.9868 23.3329C24.5601 23.7863 26.0001 24.6129 27.2001 25.7329C28.2668 26.7196 29.1201 27.9196 29.7068 29.2529C29.7068 29.2796 29.7334 29.3063 29.7334 29.3063C29.9734 29.0663 30.1868 28.8263 30.4001 28.5596C31.7068 26.9863 32.6401 25.0929 33.1201 23.0396C30.1068 21.8129 26.9068 21.0396 23.6268 20.7196Z" fill="#001A70"/>
<path d="M7.09318 23.893C7.06651 23.7597 7.01318 23.6264 6.98651 23.493C7.01318 23.6264 7.03984 23.7597 7.09318 23.893Z" fill="white"/>
<path d="M6.96006 23.4397C6.93339 23.3063 6.88006 23.173 6.85339 23.0397C6.90673 23.173 6.93339 23.3063 6.96006 23.4397Z" fill="white"/>
<path d="M22.4 33.2535C22.3467 33.2535 22.32 33.2802 22.2667 33.2802C22.32 33.2802 22.3733 33.2802 22.4 33.2535Z" fill="white"/>
<path d="M22.9068 33.1733C22.8001 33.2 22.6935 33.2267 22.5601 33.2533C22.6935 33.2267 22.8001 33.2 22.9068 33.1733Z" fill="white"/>
<path d="M17.3332 33.2267C17.2798 33.2267 17.2532 33.2001 17.1998 33.2001C17.2532 33.2001 17.3065 33.2001 17.3332 33.2267Z" fill="white"/>
<path d="M17.5465 6.74639C17.5732 6.74639 17.5998 6.74639 17.6532 6.71973C17.5998 6.71973 17.5732 6.74639 17.5465 6.74639Z" fill="white"/>
<path d="M24.1332 7.1731C24.2132 7.19976 24.2932 7.22643 24.3732 7.2531C24.3198 7.22643 24.2132 7.19976 24.1332 7.1731Z" fill="white"/>
<path d="M29.1201 10.0535C29.1734 10.1068 29.2534 10.1601 29.3067 10.2401C29.2267 10.1868 29.1734 10.1335 29.1201 10.0535Z" fill="white"/>
<path d="M28.7734 9.78613C28.8534 9.86613 28.9334 9.94613 29.04 9.99947C28.96 9.91947 28.88 9.83947 28.7734 9.78613Z" fill="white"/>
<path d="M17.1467 6.82659C17.2 6.82659 17.2533 6.79993 17.3067 6.79993C17.2533 6.79993 17.2 6.79993 17.1467 6.82659Z" fill="white"/>
<path d="M16.7733 6.90673C16.8533 6.88006 16.9333 6.88006 16.9866 6.85339C16.9333 6.88006 16.8533 6.88006 16.7733 6.90673Z" fill="white"/>
<path d="M16.4268 7.01359C16.5068 6.98693 16.6135 6.96026 16.6935 6.93359C16.6135 6.96026 16.5068 6.98693 16.4268 7.01359Z" fill="white"/>
<path d="M33.4133 21.3867C33.4133 21.4401 33.4133 21.4667 33.3866 21.5201C33.4133 21.4667 33.4133 21.4401 33.4133 21.3867Z" fill="white"/>
<path d="M33.4666 20.8531C33.4666 20.8798 33.4666 20.9065 33.4666 20.9331C33.4399 20.9065 33.4666 20.8798 33.4666 20.8531Z" fill="white"/>
<path d="M24.9067 17.5466L24.32 19.8133C27.4133 20.1866 30.4267 20.9333 33.3333 22.0533C33.36 21.9199 33.3867 21.7599 33.3867 21.6266C33.3867 21.5999 33.3867 21.5733 33.3867 21.5466C33.3867 21.4933 33.3867 21.4666 33.4133 21.4133C33.4133 21.3599 33.4133 21.3066 33.44 21.2533C33.44 21.2266 33.44 21.1733 33.44 21.1466C33.44 21.0933 33.44 21.0399 33.4667 20.9599C33.4667 20.9333 33.4667 20.9066 33.4667 20.8799C33.4667 20.7999 33.4667 20.7466 33.4667 20.6666C33.4667 20.6399 33.4667 20.6133 33.4667 20.6133C33.4667 20.5333 33.4667 20.4266 33.4667 20.3466C33.4667 20.2399 33.4667 20.1599 33.4667 20.0533C33.4667 18.1066 33.0667 16.2399 32.2933 14.5066C30.24 16.1599 27.7067 17.2533 24.9067 17.5466Z" fill="#001A70"/>
<path d="M30.5334 11.5736C30.3734 11.387 30.2401 11.2003 30.0801 11.0403L30.0534 11.0669C28.9867 12.9869 27.3601 14.5869 25.4134 15.6269L24.9067 17.5469C27.7067 17.2536 30.2401 16.1603 32.2934 14.4803C31.8401 13.4403 31.2534 12.4803 30.5334 11.5736Z" fill="#0047BA"/>
<path fill-rule="evenodd" clip-rule="evenodd" d="M20 0C8.96 0 0 8.96 0 20C0 31.04 8.96 40 20 40C31.04 40 40 31.04 40 20C40 8.96 31.04 0 20 0ZM20 34.5333C11.9733 34.5333 5.46667 28.0267 5.46667 20C5.46667 11.9733 11.9733 5.46667 20 5.46667C28.0267 5.46667 34.5333 11.9733 34.5333 20C34.5333 28.0267 28.0267 34.5333 20 34.5333Z" fill="#001A70"/>
<path fill-rule="evenodd" clip-rule="evenodd" d="M6.90651 29.6001H6.87984L5.83984 31.4134V31.4401L6.10651 31.7334L6.13318 31.7601L8.10651 31.0668L7.83984 30.7201H7.81318L6.42651 31.2001L7.17318 29.9468V29.9201L6.90651 29.6001Z" fill="white"/>
<path fill-rule="evenodd" clip-rule="evenodd" d="M8.39995 31.3333L8.13328 31.5999V31.6266L8.55995 32.0266L7.46661 33.1733V33.1999L7.73328 33.4399H7.75995L8.85328 32.2933L9.27995 32.6933L9.54661 32.4266L8.39995 31.3333Z" fill="white"/>
<path fill-rule="evenodd" clip-rule="evenodd" d="M9.97338 32.72L8.77338 34.2933V34.32L9.28004 34.72C9.57338 34.9333 9.92004 34.96 10.16 34.64C10.2934 34.48 10.32 34.24 10.2134 34.08C10.3467 34.1066 10.48 34.0533 10.5867 33.92C10.8 33.6533 10.6667 33.3066 10.3734 33.0933L9.97338 32.72ZM10.0267 33.28L10.1334 33.36C10.2667 33.4666 10.2667 33.5466 10.2134 33.6533C10.1334 33.7333 10.0534 33.76 9.92004 33.6533L9.81338 33.5733L10.0267 33.28ZM9.57338 33.8933L9.76004 34.0266C9.86671 34.1066 9.92004 34.2133 9.81338 34.3466C9.70671 34.48 9.60004 34.4533 9.49338 34.3733L9.30671 34.24L9.57338 33.8933Z" fill="white"/>
<path fill-rule="evenodd" clip-rule="evenodd" d="M11.9467 34.08L11.4401 35.0666C11.1734 35.5733 11.3867 36.08 11.8134 36.2933C12.2401 36.5066 12.7467 36.3733 13.0134 35.8666L13.4934 34.88V34.8533L13.1734 34.6933H13.1467L12.6667 35.6266C12.5067 35.9733 12.2134 36.0266 11.9734 35.92C11.7334 35.7866 11.6267 35.5466 11.7867 35.2L12.2667 34.2666V34.24L11.9467 34.08Z" fill="white"/>
<path fill-rule="evenodd" clip-rule="evenodd" d="M13.9467 35.04H13.92L13.3067 36.9067V36.9334L13.6534 37.04H13.68L14.08 35.8134L14.6134 37.36L14.64 37.3867L15.0134 37.4934L15.6534 35.6267L15.6267 35.6L15.28 35.4934L14.8534 36.72L14.32 35.2L14.2934 35.1734L13.9467 35.04Z" fill="white"/>
<path fill-rule="evenodd" clip-rule="evenodd" d="M16.1868 35.7329V35.7596L15.7335 37.6529L15.7601 37.6796L16.1068 37.7596H16.1335L16.5601 35.8396L16.1868 35.7329Z" fill="white"/>
<path fill-rule="evenodd" clip-rule="evenodd" d="M17.0398 35.9468L16.9865 36.3201H17.0132L17.5732 36.4001L17.3865 37.9734L17.7598 38.0268L17.9732 36.4534L18.5598 36.5334L18.6132 36.1601V36.1334L17.0398 35.9468Z" fill="white"/>
<path fill-rule="evenodd" clip-rule="evenodd" d="M19.0665 36.1595L19.0399 36.1862L19.0132 38.1329L19.0399 38.1595L20.3999 38.1862V38.1595V37.7862L19.4132 37.7595V37.3329H20.1332V36.9595V36.9329H19.4399V36.5595L20.3999 36.5862V36.5595V36.2129V36.1862L19.0665 36.1595Z" fill="white"/>
<path fill-rule="evenodd" clip-rule="evenodd" d="M20.9601 36.1598L21.0935 38.1331H21.1201L21.7868 38.0798C22.4001 38.0264 22.8001 37.5464 22.7468 37.0131C22.6935 36.4798 22.2401 36.0531 21.6268 36.1064L20.9601 36.1598ZM21.3601 36.5331L21.6535 36.5064C22.0268 36.4798 22.2935 36.6931 22.3201 37.0398C22.3468 37.3864 22.1068 37.6531 21.7335 37.6798L21.4401 37.7064L21.3601 36.5331Z" fill="white"/>
<path fill-rule="evenodd" clip-rule="evenodd" d="M23.6534 35.7605V35.7872L24.1334 37.6805H24.16L25.2534 37.4139V37.3872L25.1734 37.0405L25.1467 37.0139L24.4267 37.2005L24.0267 35.6805L23.6534 35.7605Z" fill="white"/>
<path fill-rule="evenodd" clip-rule="evenodd" d="M25.1732 35.333V35.3597L25.8666 37.173L25.8932 37.1997L27.1732 36.693V36.6664L27.0399 36.3197H27.0132L26.1065 36.6664L25.9466 36.2664L26.5866 36.0264L26.6132 35.9997L26.4799 35.653H26.4532L25.8132 35.893L25.6799 35.573L26.5599 35.2264V35.1997L26.4266 34.853L25.1732 35.333Z" fill="white"/>
<path fill-rule="evenodd" clip-rule="evenodd" d="M27.28 34.4537L27.6534 36.4804H27.68L28.08 36.267V36.2404L28 35.8404L28.6667 35.4937L29.0134 35.7604H29.04L29.44 35.547V35.5204L27.68 34.2404H27.6534L27.28 34.4537ZM27.7334 34.7737L28.2934 35.227L27.8667 35.4404L27.7334 34.7737Z" fill="white"/>
<path fill-rule="evenodd" clip-rule="evenodd" d="M30.1601 33.1736L29.8668 32.8536C29.6535 32.907 29.4401 33.0403 29.2535 33.227C28.8001 33.627 28.7468 34.2936 29.1201 34.7203C29.4935 35.147 30.1601 35.1736 30.6135 34.7736C30.8001 34.6136 30.9335 34.4003 31.0135 34.187L30.3201 33.4136H30.2935L29.7868 33.867V33.8936L30.0268 34.1603H30.0535L30.2668 33.9736L30.5068 34.2403C30.4801 34.3203 30.3735 34.4003 30.3201 34.4803C30.0268 34.747 29.6535 34.6936 29.4135 34.4536C29.2001 34.187 29.2001 33.8136 29.4668 33.5736C29.7068 33.3603 29.9201 33.227 30.1601 33.1736Z" fill="white"/>
<path fill-rule="evenodd" clip-rule="evenodd" d="M30.3734 32.3997L31.1201 33.2263C31.5201 33.653 32.0267 33.6263 32.4001 33.3063C32.7467 32.9863 32.8267 32.453 32.4267 32.0263L31.6801 31.2263H31.6534L31.3867 31.4663V31.493L32.0801 32.2663C32.3467 32.5597 32.3201 32.8263 32.1067 33.013C31.9201 33.1997 31.6267 33.1997 31.3601 32.933L30.6667 32.1597H30.6401L30.3734 32.3997Z" fill="white"/>
<path fill-rule="evenodd" clip-rule="evenodd" d="M32.1068 30.747L33.6268 31.9737H33.6535L34.5068 30.907L34.2135 30.667H34.1868L33.5735 31.4404L33.2268 31.147L33.6801 30.6137V30.587L33.3868 30.3737H33.3601L32.9335 30.907L32.6401 30.6937L33.2535 29.947V29.9204L32.9601 29.707H32.9335L32.1068 30.747Z" fill="white"/>
<path fill-rule="evenodd" clip-rule="evenodd" d="M5.14673 9.49281V9.51948L6.6934 10.6928H6.72006L7.54673 9.62615V9.59948L7.2534 9.35948L7.22673 9.38615L6.64006 10.1595L6.2934 9.89281L6.6934 9.33281V9.30615L6.40006 9.09282L5.9734 9.65281L5.68006 9.43948L6.26673 8.66615L5.9734 8.42615H5.94673L5.14673 9.49281Z" fill="white"/>
<path fill-rule="evenodd" clip-rule="evenodd" d="M6.96008 7.30668L7.81342 8.42668C7.86675 8.50668 7.89342 8.56001 7.92008 8.61335L7.73342 8.77335V8.80001L8.34675 9.44001H8.37342L8.64008 9.17335V9.14668L8.26675 8.80001L9.20008 7.92001L9.54675 8.26668H9.57342L9.84008 8.00001V7.97335L9.22675 7.33335H9.20008L9.04008 7.49335L7.94675 6.34668H7.92008L6.96008 7.30668ZM7.46675 7.36001L7.92008 6.90668L8.74675 7.76001L8.21342 8.26668C8.18675 8.21335 8.16008 8.18668 8.13342 8.16001L7.46675 7.36001Z" fill="white"/>
<path fill-rule="evenodd" clip-rule="evenodd" d="M8.98663 5.51992L8.95996 5.54659L10.08 7.14659H10.1066L10.4266 6.93326V6.90659L10.5066 5.27992L11.2533 6.34659H11.28L11.5733 6.13326L10.48 4.50659H10.4533L10.1333 4.71993L10.1066 4.74659L10.0266 6.37326L9.30663 5.30659H9.27996L8.98663 5.51992Z" fill="white"/>
<path fill-rule="evenodd" clip-rule="evenodd" d="M11.4666 3.94681H11.4399L12.2933 5.73347L12.6399 5.57347V5.54681L12.2933 4.82681L13.1199 4.42681L13.4666 5.17347H13.4933L13.8133 5.01347L12.9866 3.22681H12.9599L12.6399 3.38681L12.9333 4.05347L12.1333 4.45347L11.8133 3.78681H11.7866L11.4666 3.94681Z" fill="white"/>
<path fill-rule="evenodd" clip-rule="evenodd" d="M14.6932 2.61289L14.4799 4.71956H14.5065L14.9332 4.61289V4.58623L14.9599 4.15956L15.6532 3.97289L15.8932 4.31956H15.9199L16.3465 4.21289V4.18623L15.0932 2.50623H15.0665L14.6932 2.61289ZM15.0132 3.03956L15.4132 3.62623L14.9865 3.75956L15.0132 3.03956Z" fill="white"/>
<path fill-rule="evenodd" clip-rule="evenodd" d="M18.1867 1.92029L17.6267 2.00029C17.2267 2.02695 17.04 2.34695 17.0667 2.66695C17.0933 2.88029 17.2 3.04029 17.3867 3.09362L16.8267 4.08029H16.8533L17.3067 4.02695V4.00029L17.7867 3.14695L17.92 3.12029L18.0267 3.89362H18.0533L18.4267 3.84029V3.81362L18.1867 1.92029ZM17.84 2.37362L17.8933 2.77362L17.76 2.80029C17.6 2.82695 17.52 2.77362 17.4933 2.64029C17.4667 2.50695 17.5467 2.42695 17.7067 2.40029L17.84 2.37362Z" fill="white"/>
<path fill-rule="evenodd" clip-rule="evenodd" d="M20.8799 1.84009H20.8532L20.5066 3.17342C20.4532 3.36009 20.3199 3.41342 20.1332 3.41342H20.1066L20.0799 3.76009V3.78675C20.4532 3.81342 20.7199 3.70675 20.8266 3.30675L21.1199 2.24009L21.7332 2.29342L21.5999 3.86675V3.89342L21.9732 3.92009H21.9999L22.1866 1.97342V1.94675L20.8799 1.84009Z" fill="white"/>
<path fill-rule="evenodd" clip-rule="evenodd" d="M23.3067 2.13306H23.28L22.8533 4.05306L23.2267 4.15972L23.2533 4.13306L24.5067 3.11972L24.2133 4.37306L24.24 4.39972L24.5867 4.47972L24.6133 4.45306L25.0667 2.55972L25.04 2.53306L24.6667 2.45306H24.64L23.3867 3.49306L23.68 2.23972L23.6533 2.21306L23.3067 2.13306Z" fill="white"/>
<path fill-rule="evenodd" clip-rule="evenodd" d="M26.2133 2.93384H26.1866L25.4399 4.74717V4.77384L25.7866 4.90717H25.8133L26.3999 3.4405L27.2533 3.78717H27.2799L27.4133 3.4405V3.41384L26.2133 2.93384Z" fill="white"/>
<path fill-rule="evenodd" clip-rule="evenodd" d="M28.4801 3.94629L26.8534 5.30629V5.33296L27.2267 5.54629H27.2534L27.5734 5.25296L28.1867 5.59962L28.1334 6.02629V6.05296L28.5067 6.26629H28.5334L28.8001 4.18629V4.15962L28.4801 3.94629ZM28.4001 4.47962L28.2667 5.17296L27.8667 4.95962L28.4001 4.47962Z" fill="white"/>
<path fill-rule="evenodd" clip-rule="evenodd" d="M30.8799 5.49341L29.6266 7.01341V7.04008L30.1333 7.44007C30.4266 7.68007 30.7733 7.68007 31.0133 7.38674C31.1466 7.22674 31.1733 6.98674 31.0933 6.82674C31.2266 6.85341 31.3599 6.80008 31.4666 6.66674C31.6799 6.40008 31.5733 6.05341 31.2799 5.84007L30.8799 5.49341ZM30.9333 6.02674L31.0399 6.10674C31.1733 6.21341 31.1733 6.29341 31.0933 6.40007C31.0133 6.48007 30.9333 6.50674 30.7999 6.40007L30.6933 6.32008L30.9333 6.02674ZM30.4533 6.64007L30.6399 6.77341C30.7466 6.85341 30.7999 6.96007 30.6933 7.09341C30.5866 7.22674 30.4799 7.20007 30.3733 7.12007L30.1866 6.98674L30.4533 6.64007Z" fill="white"/>
<path fill-rule="evenodd" clip-rule="evenodd" d="M32.4799 6.79993H32.4533L32.1866 7.06659L32.5866 7.49326L31.4666 8.58659V8.61326L31.7066 8.87993H31.7333L32.8533 7.78659L33.2799 8.21326L33.5466 7.94659V7.91993L32.4799 6.79993Z" fill="white"/>
<path fill-rule="evenodd" clip-rule="evenodd" d="M34.2401 8.74695L32.6401 9.89361V9.92028L33.0401 10.4536C33.2801 10.7736 33.6267 10.8536 33.9467 10.6136C34.2667 10.3736 34.2667 10.0269 34.0534 9.70695L33.8934 9.49361L34.1867 9.28028L34.6667 9.92028H34.6934L34.9867 9.70695V9.68028L34.2401 8.74695ZM33.5467 9.73361L33.6801 9.92028C33.7867 10.0536 33.7867 10.1603 33.6801 10.2669C33.5467 10.3736 33.4401 10.3203 33.3334 10.1869L33.2001 10.0003L33.5467 9.73361Z" fill="white"/>
<path d="M31.0665 18.1337H31.2799C31.3599 18.1337 31.4132 18.1071 31.4399 18.0804C31.4665 18.0537 31.4932 18.0271 31.4932 17.9471C31.4932 17.8671 31.4665 17.8137 31.4132 17.7871C31.3865 17.7604 31.3332 17.7604 31.2799 17.7604H31.0665V18.1337ZM30.7999 18.3737V16.9871H31.7065L31.6265 17.2271H31.0932V17.5204H31.3065C31.4932 17.5204 31.5732 17.5737 31.6532 17.6271C31.7065 17.6804 31.7865 17.7604 31.7865 17.9471C31.7865 18.1337 31.7065 18.2404 31.6265 18.2937C31.5465 18.3471 31.4399 18.3737 31.2799 18.3737H30.7999ZM29.9999 18.3737V17.2271H29.5999V16.9871H30.6932L30.6132 17.2271H30.2665V18.3737H29.9999ZM28.9065 17.5471H29.0665C29.1199 17.5471 29.1465 17.5471 29.1732 17.5471C29.2265 17.5204 29.2799 17.4671 29.2799 17.3871C29.2799 17.3071 29.2265 17.2537 29.1732 17.2271C29.1465 17.2271 29.1199 17.2271 29.0665 17.2271H28.9332V17.5471H28.9065ZM28.9065 17.7871V18.1337H29.0932C29.1465 18.1337 29.1999 18.1337 29.2532 18.0804C29.2799 18.0537 29.3065 18.0004 29.3065 17.9471C29.3065 17.8937 29.3065 17.8671 29.2799 17.8404C29.2265 17.7871 29.1999 17.7871 29.0932 17.7871H28.9065ZM29.3332 17.6271C29.3865 17.6537 29.4399 17.6804 29.4665 17.7071C29.5465 17.7871 29.5732 17.8671 29.5732 17.9737C29.5732 18.1604 29.4665 18.2937 29.3065 18.3471C29.2532 18.3737 29.1999 18.3737 29.0932 18.3737H28.5865V16.9871H29.0399C29.1199 16.9871 29.1999 16.9871 29.2532 17.0137C29.4132 17.0671 29.5199 17.1737 29.5199 17.3337C29.5199 17.4137 29.4932 17.4937 29.4399 17.5471C29.4399 17.5737 29.3865 17.6004 29.3332 17.6271Z" fill="white"/>
<path d="M28.4 16.6396H27.2533L27.1467 16.8796H28.32L28.4 16.6396Z" fill="white"/>
<path d="M28.2666 16.9871H27.12L27.04 17.2271H28.1866L28.2666 16.9871Z" fill="white"/>
<path d="M28.16 17.3335H26.9866L26.9066 17.5735H28.0533L28.16 17.3335Z" fill="white"/>
<path d="M31.3066 10.9598C29.3332 8.50642 26.6132 6.74642 23.5732 5.97309C23.3866 5.59976 23.0666 5.35976 22.7199 5.27976C22.3466 5.19976 21.9466 5.27976 21.5999 5.51976L21.4399 5.59976C20.9599 5.54642 20.4799 5.51976 19.9999 5.51976C12.0266 5.51976 5.5199 11.9998 5.5199 19.9998C5.5199 27.9998 11.9999 34.4798 19.9999 34.4798C27.9732 34.4798 34.4799 27.9998 34.4799 19.9998C34.4799 16.7198 33.3332 13.5198 31.3066 10.9598ZM33.4932 19.9998C33.4932 20.6931 33.4399 21.3598 33.3332 22.0264C30.4266 20.9064 27.4132 20.1598 24.3199 19.7864L25.4132 15.6264C27.3866 14.5864 29.0132 12.9598 30.0799 11.0398C30.2399 11.2264 30.3999 11.3864 30.5332 11.5731C32.4532 13.9731 33.4932 16.9064 33.4932 19.9998ZM17.2266 24.2664L17.4399 25.2264L15.3332 32.6398C13.7332 32.0531 12.2666 31.1464 11.0132 30.0264C12.0799 27.2531 14.3466 25.1464 17.2266 24.2664ZM18.2932 25.8131L21.7599 26.3998L23.1199 30.5598C21.1466 30.2131 19.2532 29.5998 17.4666 28.7464L18.2932 25.8131ZM22.4799 25.4398L22.7732 24.2931C25.5999 25.1464 27.9199 27.2798 29.0132 30.0531C27.7866 31.1464 26.3732 32.0264 24.8266 32.6131L22.4799 25.4398ZM21.4932 25.3598L18.3466 24.8264L17.9199 22.8531L20.6666 20.7464H22.6132L21.4932 25.3598ZM20.3466 19.7864L17.2799 22.1331L16.5866 19.5998C18.6132 16.1331 21.4399 13.1731 24.8266 11.0398L25.3066 12.0798L23.3066 19.8131H20.3466V19.7864ZM24.1066 7.14642C26.0532 7.75976 27.8666 8.85309 29.3332 10.2664C28.5066 11.8664 27.2532 13.2531 25.7332 14.2398L26.3199 11.9464L24.1066 7.14642ZM22.4532 6.21309C22.5332 6.23976 22.6132 6.31976 22.6932 6.42642L24.3999 10.1331C21.0932 12.2131 18.2932 15.0131 16.2132 18.2931L14.4532 11.8664L22.1332 6.31976C22.2399 6.26642 22.3466 6.18642 22.4532 6.21309ZM20.1866 6.53309L13.3332 11.4664L14.0799 14.1598C12.6399 13.1731 11.4666 11.8398 10.6666 10.2931C13.0932 7.97309 16.3732 6.53309 19.9999 6.53309C20.0532 6.50642 20.1066 6.50642 20.1866 6.53309ZM9.94656 11.0398C10.9866 12.9331 12.5599 14.5064 14.4532 15.5464L15.5999 19.8131C12.5332 20.1598 9.54656 20.9064 6.66656 22.0264C6.5599 21.3598 6.50656 20.6931 6.50656 19.9998C6.50656 16.5598 7.81323 13.4131 9.94656 11.0398ZM6.85323 23.0131C9.73323 21.8664 12.7732 21.1198 15.8666 20.7731L16.5866 23.4398C13.7332 24.3998 11.4132 26.5331 10.2132 29.2798C8.58656 27.5731 7.41323 25.4131 6.85323 23.0131ZM16.2666 32.9598L17.1732 29.7331C19.1732 30.6664 21.2799 31.3064 23.4399 31.6531L23.8666 32.9331C22.6399 33.3064 21.3332 33.4931 19.9999 33.4931C18.7199 33.4931 17.4666 33.3064 16.2666 32.9598ZM29.7599 29.2798C29.1732 27.9198 28.3199 26.6931 27.2266 25.7064C26.0266 24.5864 24.5599 23.7598 23.0132 23.3064L23.6532 20.6931C26.9332 21.0131 30.1066 21.7864 33.1732 22.9864C32.5866 25.4131 31.4132 27.5731 29.7599 29.2798Z" fill="white"/>
</svg>
