<svg width="40" height="40" viewBox="0 0 40 40" fill="none" xmlns="http://www.w3.org/2000/svg">
<path d="M0 27.5455C0 22.697 0 17.8485 0 13C13.3333 13 26.6667 13 40 13C40 17.8485 40 22.697 40 27.5455C26.6667 27.5455 13.3333 27.5455 0 27.5455ZM19.6696 24.996C19.6696 24.9394 19.6696 24.8924 19.6696 24.8453C19.6696 22.6813 19.6696 20.517 19.6696 18.353C19.6696 18.334 19.6699 18.3148 19.6693 18.2962C19.6669 18.2099 19.7021 18.1907 19.7744 18.1912C20.2429 18.1942 20.7115 18.1926 21.18 18.1931C21.204 18.1931 21.2283 18.1974 21.2624 18.2007C21.2624 18.2461 21.2624 18.2867 21.2624 18.3273C21.2624 20.4916 21.2624 22.6559 21.2624 24.8201C21.2624 24.8423 21.2619 24.8645 21.2624 24.8867C21.264 24.9806 21.2789 24.9957 21.3731 24.9957C22.2821 24.996 23.1912 24.996 24.1003 24.9954C24.1243 24.9954 24.1485 24.9906 24.1821 24.9876C24.1821 24.7582 24.1821 24.5337 24.1821 24.3097C24.1821 24.0814 24.1821 23.8531 24.1821 23.6251C24.1821 23.4003 24.1821 23.1755 24.1821 22.9504C24.1821 22.7221 24.1821 22.4938 24.1821 22.2658C24.1821 22.041 24.1821 21.8159 24.1821 21.5912C24.1821 21.3661 24.1821 21.141 24.1821 20.916C24.1821 20.6877 24.1821 20.4596 24.1821 20.2319C24.1821 20.0068 24.1821 19.7818 24.1821 19.5567C24.1821 19.3284 24.1819 19.1004 24.1821 18.8723C24.1824 18.6486 24.1829 18.4252 24.1835 18.2039C24.3392 18.1804 25.7192 18.1888 25.7907 18.2137C25.7907 18.2521 25.7907 18.2929 25.7907 18.334C25.7907 19.4526 25.7907 20.5711 25.7907 21.6896C25.7907 22.0791 25.7901 22.4692 25.7909 22.859C25.7909 22.895 25.7963 22.9312 25.7992 22.9702C26.3069 22.9702 26.8035 22.9702 27.2997 22.9702C27.7936 22.9702 28.2869 22.9699 28.7805 22.9704C29.276 22.971 29.772 22.9677 30.2795 22.9726C30.2795 23.0235 30.2795 23.0605 30.2795 23.0979C30.2795 23.6935 30.2792 24.2891 30.2795 24.8848C30.2795 24.987 30.2875 24.9957 30.3843 24.9957C31.284 24.996 32.1837 24.996 33.0832 24.9954C33.1072 24.9954 33.1312 24.9906 33.1573 24.9881C33.1573 21.8113 33.1573 18.6416 33.1573 15.4721C32.9963 15.4508 30.3563 15.4597 30.2784 15.4843C30.2784 17.0697 30.2784 18.6589 30.2784 20.2611C30.0904 20.2611 29.9136 20.2611 29.7363 20.2611C29.5613 20.2611 29.3864 20.2622 29.2115 20.2611C29.0355 20.2595 28.8589 20.2668 28.6744 20.2554C28.6744 18.6524 28.6744 17.0629 28.6744 15.4632C28.6229 15.4632 28.58 15.4632 28.5365 15.4632C24.0821 15.4632 19.6275 15.4632 15.1728 15.4632C15.148 15.4632 15.1224 15.461 15.0981 15.4662C15.0821 15.4694 15.0627 15.4802 15.0541 15.4938C14.9605 15.6455 14.8691 15.7983 14.7771 15.9506C14.7312 16.0267 14.6861 16.1029 14.6387 16.1781C14.5421 16.3312 14.4419 16.4822 14.3475 16.6366C14.2499 16.7965 14.1595 16.961 14.0627 17.1214C13.9589 17.2929 13.8523 17.4627 13.7459 17.6324C13.6363 17.8068 13.5227 17.9786 13.4152 18.1542C13.2387 18.4425 13.0669 18.7341 12.8909 19.0225C12.7389 19.2719 12.5837 19.5194 12.4288 19.7669C12.4136 19.7912 12.3912 19.8107 12.3723 19.8326C12.3536 19.792 12.3512 19.7588 12.3509 19.7252C12.3509 19.1515 12.3509 18.578 12.3509 18.0046C12.3509 17.1966 12.3509 16.3886 12.3509 15.5806C12.3509 15.5441 12.3488 15.5076 12.3475 15.4632C12.2979 15.4632 12.2608 15.4632 12.2237 15.4632C11.3211 15.4632 10.4181 15.4648 9.5152 15.4608C9.42613 15.4602 9.3712 15.4919 9.3232 15.5595C9.224 15.6985 9.1248 15.8376 9.02213 15.9742C8.92053 16.1094 8.81333 16.2403 8.71067 16.3748C8.58933 16.5336 8.4696 16.6937 8.3504 16.8541C8.21227 17.0402 8.07733 17.2282 7.93867 17.4135C7.76907 17.6402 7.5976 17.8655 7.42613 18.0911C7.40267 18.122 7.37653 18.1276 7.3512 18.0909C7.32347 18.0503 7.29627 18.0094 7.2664 17.9705C7.16507 17.8393 7.06053 17.7103 6.9608 17.5774C6.8552 17.4371 6.75573 17.2921 6.65013 17.1514C6.504 16.9569 6.35467 16.7646 6.2064 16.5714C6.16293 16.5149 6.11787 16.4592 6.07547 16.4018C5.964 16.2506 5.85413 16.0983 5.74213 15.9477C5.63573 15.8048 5.52507 15.6653 5.42027 15.5208C5.38907 15.4778 5.35707 15.4618 5.30507 15.4618C4.37733 15.4635 3.4496 15.4629 2.5216 15.4635C2.49493 15.4635 2.46827 15.4675 2.44427 15.4694C2.44427 18.64 2.44427 21.8008 2.44427 24.9603C2.5656 24.9814 5.25627 24.9757 5.32747 24.953C5.32747 23.2861 5.32747 21.6171 5.32747 19.95C5.3656 19.9314 5.38373 19.9332 5.40907 19.9681C5.51787 20.1183 5.63227 20.2643 5.74587 20.4107C5.81173 20.4956 5.88187 20.5776 5.94613 20.6639C6.09573 20.864 6.2408 21.0675 6.39093 21.2668C6.52827 21.4497 6.66987 21.6288 6.8096 21.8097C6.86267 21.8782 6.91547 21.9469 6.96827 22.0158C7.03493 22.1029 7.1016 22.1906 7.16853 22.2774C7.23787 22.367 7.30747 22.4565 7.3768 22.546C7.3912 22.5395 7.4024 22.5382 7.4072 22.5317C7.4904 22.4281 7.5744 22.3261 7.6544 22.2206C7.768 22.0705 7.87787 21.9177 7.98987 21.7664C8.0376 21.7023 8.08613 21.6388 8.13547 21.5757C8.20533 21.4867 8.2776 21.3996 8.3464 21.3096C8.45867 21.1624 8.5688 21.0134 8.68027 20.8654C8.76053 20.7591 8.84027 20.6525 8.9216 20.5473C8.97787 20.4743 9.03787 20.4047 9.09387 20.3317C9.1648 20.2392 9.2336 20.1448 9.30347 20.0512C9.3352 20.0084 9.36507 19.9635 9.4272 19.9289C9.4272 21.6147 9.4272 23.2861 9.4272 24.9646C9.47973 24.9673 9.52267 24.9714 9.56587 24.9714C10.4595 24.9719 11.3528 24.9719 12.2461 24.9719C12.268 24.9719 12.2917 24.9773 12.3112 24.9697C12.3384 24.9597 12.3707 24.9459 12.3853 24.9232C12.4701 24.792 12.5507 24.6581 12.6323 24.5242C12.7267 24.37 12.8197 24.2145 12.9155 24.0608C13.02 23.8934 13.1275 23.7281 13.2317 23.5604C13.3243 23.4119 13.4139 23.2618 13.5048 23.1125C13.5923 22.9694 13.5923 22.9696 13.7592 22.9696C14.7213 22.9696 15.6835 22.9696 16.6456 22.9696C16.6707 22.9696 16.6957 22.9683 16.7205 22.9704C16.7787 22.9753 16.7893 22.9869 16.7928 23.0462C16.7939 23.0681 16.7936 23.0903 16.7928 23.1125C16.7837 23.4701 16.8035 23.8274 16.7776 24.185C16.7603 24.4276 16.7741 24.6733 16.7747 24.917C16.7747 24.9416 16.7803 24.9657 16.7837 24.9954C17.7435 24.996 18.6979 24.996 19.6696 24.996ZM37.3371 15.5205C37.3176 15.5119 37.3093 15.5065 37.3003 15.5049C37.2848 15.5021 37.2693 15.5008 37.2539 15.5008C36.3264 15.5024 35.3989 15.5043 34.4715 15.5065C34.4688 15.5065 34.4664 15.51 34.4645 15.5122C34.4621 15.5143 34.46 15.5168 34.4541 15.5235C34.4541 17.3946 34.4541 19.2702 34.4541 21.1459C34.4541 21.1584 34.4573 21.1711 34.4595 21.1832C34.46 21.1859 34.4621 21.1889 34.4643 21.1905C34.4667 21.1927 34.4699 21.1943 34.4795 21.2C34.4939 21.1938 34.5144 21.1878 34.5317 21.1773C34.6928 21.0799 34.8536 20.9817 35.0144 20.8835C35.1219 20.8178 35.2296 20.7521 35.3365 20.6855C35.4805 20.5954 35.6224 20.5027 35.7672 20.4142C35.9133 20.3249 36.0627 20.2411 36.2085 20.1515C36.3875 20.0414 36.5632 19.9259 36.7427 19.8161C36.9037 19.7177 37.0659 19.6211 37.2304 19.5291C37.3101 19.4848 37.3392 19.4279 37.3392 19.3346C37.3363 18.099 37.3371 16.863 37.3371 15.6274C37.3371 15.5925 37.3371 15.5576 37.3371 15.5205ZM35.8725 25.1131C35.8728 25.1107 35.8728 25.1082 35.8731 25.1061C35.9197 25.1061 35.9685 25.1153 36.0125 25.1042C36.1176 25.0782 36.2293 25.1017 36.3312 25.0457C36.392 25.0122 36.4667 25.006 36.5317 24.9792C36.6635 24.9254 36.7875 24.8567 36.904 24.7723C37.0408 24.6738 37.1568 24.5545 37.2544 24.4195C37.324 24.323 37.3776 24.2139 37.4317 24.1071C37.5195 23.9334 37.576 23.75 37.5811 23.5526C37.5819 23.5307 37.5837 23.5085 37.5864 23.4866C37.6067 23.3037 37.5957 23.1252 37.5472 22.9458C37.5149 22.8282 37.472 22.7186 37.4224 22.6077C37.3211 22.3808 37.1587 22.2055 36.9803 22.0464C36.8077 21.8922 36.5968 21.7943 36.3771 21.7305C36.2843 21.7034 36.1877 21.6718 36.0845 21.6812C36.024 21.6866 35.9619 21.6666 35.9005 21.6591C35.8821 21.6569 35.8632 21.6558 35.8451 21.658C35.7899 21.6647 35.7352 21.6758 35.68 21.6815C35.6064 21.6888 35.5317 21.6799 35.4605 21.7167C35.4128 21.7413 35.356 21.747 35.3037 21.7632C35.2483 21.78 35.1907 21.7927 35.1392 21.8181C34.9509 21.9109 34.7789 22.0283 34.6309 22.1803C34.4725 22.3432 34.3483 22.5301 34.2667 22.7421C34.2213 22.8595 34.1811 22.9821 34.1832 23.1125C34.1835 23.1368 34.172 23.1612 34.1661 23.1855C34.14 23.2886 34.1453 23.3916 34.1619 23.4947C34.1688 23.5412 34.1789 23.5872 34.1877 23.6332C34.2027 23.7162 34.2048 23.8039 34.2344 23.8807C34.2909 24.0284 34.3477 24.1766 34.4376 24.3097C34.5211 24.4336 34.6096 24.5523 34.7197 24.6524C34.8451 24.7658 34.9851 24.8558 35.1355 24.9346C35.2627 25.0011 35.3979 25.0376 35.5307 25.0798C35.6373 25.1136 35.7581 25.1034 35.8725 25.1131Z" fill="#EE3324"/>
<path fill-rule="evenodd" clip-rule="evenodd" d="M19.3126 24.6359C18.3462 24.6359 17.397 24.6359 16.443 24.6359C16.4393 24.6064 16.434 24.5825 16.434 24.5581C16.4335 24.3164 16.4194 24.0729 16.4369 23.8324C16.4627 23.4778 16.443 23.1235 16.4521 22.769C16.4526 22.747 16.4531 22.725 16.4521 22.7033C16.4486 22.6443 16.438 22.6327 16.3802 22.6282C16.3555 22.626 16.3306 22.6274 16.3057 22.6274C15.3488 22.6274 14.3919 22.6274 13.435 22.6274C13.269 22.6274 13.269 22.6271 13.182 22.769C13.0916 22.917 13.0024 23.0659 12.9104 23.2131C12.8067 23.3791 12.6998 23.543 12.5959 23.7093C12.5007 23.8616 12.4081 24.0158 12.3142 24.1687C12.2331 24.3012 12.153 24.4339 12.0686 24.5643C12.0541 24.5868 12.0217 24.6005 11.9949 24.6104C11.9758 24.6176 11.9519 24.6125 11.9302 24.6125C11.0415 24.6125 10.153 24.6125 9.26456 24.612C9.22159 24.612 9.17889 24.6077 9.12665 24.6053C9.12665 22.9412 9.12665 21.284 9.12665 19.6126C9.06485 19.647 9.03515 19.6915 9.00359 19.7339C8.9341 19.8266 8.86568 19.9202 8.79513 20.012C8.73944 20.0844 8.67977 20.1533 8.62381 20.2257C8.54292 20.33 8.46362 20.4357 8.38379 20.5411C8.27293 20.6878 8.16314 20.8356 8.05175 20.9815C7.98332 21.0708 7.91145 21.1571 7.84196 21.2454C7.79263 21.3079 7.74437 21.3709 7.69716 21.4345C7.58577 21.5844 7.4765 21.7359 7.36352 21.8848C7.28396 21.9896 7.20015 22.0907 7.11767 22.1932C7.11263 22.1993 7.10176 22.2007 7.08744 22.2074C7.01848 22.1186 6.94926 22.0298 6.88031 21.9411C6.81374 21.855 6.74744 21.7681 6.68113 21.6817C6.62862 21.6133 6.57611 21.5452 6.52333 21.4774C6.38436 21.2979 6.24354 21.1204 6.10695 20.9391C5.95764 20.7417 5.8131 20.54 5.66458 20.3413C5.60066 20.256 5.53091 20.1748 5.46541 20.0903C5.35243 19.9452 5.23865 19.8004 5.13044 19.6515C5.10525 19.6169 5.08721 19.6148 5.04929 19.6335C5.04929 21.2864 5.04929 22.9412 5.04929 24.5938C4.97848 24.6163 2.30249 24.6219 2.18182 24.601C2.18182 21.4682 2.18182 18.3344 2.18182 15.1912C2.20569 15.1893 2.23221 15.1853 2.25873 15.1853C3.18141 15.185 4.10408 15.1853 5.02701 15.1837C5.07873 15.1837 5.11055 15.1995 5.14158 15.2422C5.24555 15.3854 5.35561 15.5238 5.46169 15.6654C5.57308 15.8148 5.68235 15.966 5.79321 16.1157C5.83538 16.1725 5.8802 16.2275 5.92343 16.2838C6.07088 16.4753 6.2194 16.6657 6.36474 16.8588C6.46976 16.9983 6.56869 17.142 6.67371 17.2812C6.7729 17.4129 6.87686 17.5406 6.97764 17.6709C7.00734 17.7095 7.0344 17.75 7.06198 17.7903C7.08717 17.8267 7.11316 17.8214 7.1365 17.7905C7.30703 17.5671 7.47783 17.3435 7.64624 17.1187C7.78415 16.9347 7.91861 16.7483 8.05572 16.5641C8.17427 16.4051 8.29335 16.2463 8.41403 16.0889C8.51613 15.9556 8.62275 15.8258 8.72379 15.6917C8.8259 15.5565 8.92456 15.4184 9.02322 15.2805C9.07095 15.2135 9.12532 15.1821 9.21417 15.1826C10.1122 15.1867 11.0099 15.185 11.9079 15.185C11.9448 15.185 11.9816 15.185 12.031 15.185C12.0323 15.229 12.0344 15.2652 12.0344 15.3014C12.0344 16.1025 12.0344 16.9036 12.0344 17.7047C12.0344 18.2733 12.0344 18.8421 12.0344 19.4107C12.0344 19.4439 12.0371 19.4769 12.0556 19.5172C12.0745 19.4954 12.0968 19.4761 12.1119 19.452C12.266 19.2066 12.4203 18.9612 12.5715 18.7139C12.7468 18.4278 12.9176 18.1386 13.0929 17.853C13.1998 17.679 13.3127 17.5084 13.4217 17.3357C13.5276 17.1675 13.6339 16.9994 13.7368 16.8291C13.8331 16.67 13.9233 16.507 14.0201 16.3485C14.1139 16.1953 14.2137 16.0457 14.3097 15.8939C14.3566 15.8196 14.4014 15.7437 14.4473 15.6683C14.5388 15.5173 14.6298 15.3658 14.7229 15.2154C14.7314 15.2019 14.7507 15.1915 14.7666 15.188C14.7905 15.1829 14.8162 15.185 14.8409 15.185C19.2712 15.185 23.7016 15.185 28.1317 15.185C28.1747 15.185 28.2174 15.185 28.2688 15.185C28.2688 16.7711 28.2688 18.3473 28.2688 19.9363C28.4521 19.9476 28.6279 19.9404 28.8029 19.942C28.9769 19.943 29.1509 19.942 29.3249 19.942C29.5012 19.942 29.6771 19.942 29.8641 19.942C29.8641 18.3537 29.8641 16.7781 29.8641 15.206C29.9415 15.1813 32.5671 15.1724 32.7273 15.1939C32.7273 18.336 32.7273 21.479 32.7273 24.6286C32.701 24.6313 32.6774 24.6359 32.6535 24.6359C31.759 24.6363 30.8642 24.6363 29.9693 24.6361C29.8733 24.6361 29.8651 24.6276 29.8651 24.5262C29.8649 23.9356 29.8651 23.3451 29.8651 22.7545C29.8651 22.7175 29.8651 22.6807 29.8651 22.6303C29.3604 22.6255 28.8671 22.6287 28.3744 22.6282C27.8835 22.6276 27.3928 22.6279 26.9016 22.6279C26.4081 22.6279 25.9143 22.6279 25.4093 22.6279C25.4061 22.589 25.4011 22.5534 25.4011 22.5177C25.4003 22.1312 25.4008 21.7445 25.4008 21.3583C25.4008 20.249 25.4008 19.1401 25.4008 18.0314C25.4008 17.9909 25.4008 17.9501 25.4008 17.912C25.3295 17.8873 23.9573 17.879 23.8024 17.9024C23.8019 18.1215 23.8013 18.3433 23.8011 18.5651C23.8008 18.7912 23.8011 19.0175 23.8011 19.2436C23.8011 19.4667 23.8011 19.6899 23.8011 19.913C23.8011 20.1391 23.8011 20.3652 23.8011 20.5913C23.8011 20.8144 23.8011 21.0375 23.8011 21.2607C23.8011 21.4835 23.8011 21.7067 23.8011 21.9295C23.8011 22.1559 23.8011 22.3822 23.8011 22.6083C23.8011 22.8315 23.8011 23.0543 23.8011 23.2772C23.8011 23.5036 23.8011 23.7299 23.8011 23.956C23.8011 24.1781 23.8011 24.4007 23.8011 24.6281C23.7676 24.6313 23.7435 24.6359 23.7196 24.6359C22.8158 24.6363 21.9117 24.6363 21.0073 24.6361C20.9134 24.6361 20.8988 24.6208 20.8973 24.5281C20.8967 24.5061 20.8973 24.4841 20.8973 24.4621C20.8973 22.3163 20.8973 20.1705 20.8973 18.0247C20.8973 17.9844 20.8973 17.9442 20.8973 17.8991C20.8633 17.8959 20.8392 17.8916 20.8153 17.8916C20.3493 17.8914 19.8834 17.8927 19.4174 17.8898C19.3455 17.8892 19.3105 17.9083 19.3129 17.9938C19.3134 18.0126 19.3132 18.0314 19.3132 18.0501C19.3132 20.1957 19.3132 22.3415 19.3132 24.487C19.3126 24.5331 19.3126 24.5798 19.3126 24.6359ZM14.9449 19.9334C14.9791 19.9369 15.0059 19.9414 15.0326 19.9414C15.4705 19.942 15.9084 19.942 16.346 19.9414C16.4473 19.9414 16.451 19.9366 16.4521 19.8355C16.4521 19.8167 16.4521 19.7977 16.4521 19.7789C16.4521 19.1006 16.4521 18.4224 16.4521 17.7441C16.4521 17.7002 16.4552 17.6562 16.4531 17.6125C16.4526 17.6004 16.4401 17.5819 16.4295 17.5787C16.4186 17.5754 16.3972 17.5832 16.3908 17.5929C16.3611 17.6387 16.3359 17.6875 16.3078 17.7342C16.2165 17.8857 16.1253 18.0373 16.0325 18.188C15.9558 18.3124 15.8768 18.435 15.7994 18.5589C15.7182 18.6884 15.6384 18.8185 15.557 18.9478C15.4596 19.1023 15.3604 19.2551 15.2642 19.4101C15.1594 19.5791 15.0568 19.7494 14.9449 19.9334Z" fill="white"/>
<path fill-rule="evenodd" clip-rule="evenodd" d="M37.0888 15.9295C37.0888 15.9676 37.0888 16.0029 37.0888 16.0383C37.0888 17.2997 37.088 18.5615 37.0909 19.8229C37.0909 19.9182 37.0616 19.9762 36.9812 20.0215C36.8153 20.1154 36.6516 20.2139 36.4894 20.3145C36.3085 20.4266 36.1313 20.5445 35.9508 20.6569C35.8038 20.7486 35.6532 20.8339 35.5058 20.925C35.3598 21.0153 35.2168 21.11 35.0716 21.202C34.9637 21.2699 34.8551 21.337 34.7468 21.4041C34.5846 21.5044 34.4227 21.6046 34.2601 21.704C34.2426 21.7148 34.2216 21.7209 34.2074 21.7272C34.1977 21.7214 34.1945 21.7198 34.192 21.7176C34.1899 21.7156 34.1877 21.7126 34.1872 21.7101C34.185 21.6977 34.1818 21.6847 34.1818 21.672C34.1818 19.7572 34.1818 17.8424 34.1818 15.9323C34.1877 15.9254 34.1899 15.9229 34.1923 15.9207C34.1945 15.9184 34.1969 15.9149 34.1993 15.9149C35.1345 15.9126 36.0697 15.9107 37.0049 15.9091C37.0205 15.9091 37.0361 15.9104 37.0517 15.9132C37.0608 15.9151 37.0689 15.9207 37.0888 15.9295Z" fill="white"/>
<path fill-rule="evenodd" clip-rule="evenodd" d="M36.001 25.3637C35.8801 25.3537 35.7527 25.3642 35.6399 25.3284C35.4999 25.284 35.357 25.2456 35.2232 25.1756C35.0648 25.0927 34.9169 24.998 34.7848 24.8787C34.6686 24.7737 34.5755 24.6485 34.4872 24.5182C34.3925 24.3782 34.3326 24.2222 34.2729 24.0669C34.242 23.986 34.2395 23.8938 34.2237 23.8065C34.2147 23.7581 34.204 23.7097 34.1964 23.6608C34.179 23.5524 34.1734 23.4439 34.2009 23.3355C34.2071 23.3099 34.2192 23.2843 34.2189 23.2587C34.2167 23.1215 34.2594 22.9923 34.307 22.8691C34.3933 22.646 34.5241 22.4491 34.6911 22.278C34.8475 22.1181 35.0286 21.9946 35.2271 21.897C35.2814 21.8703 35.3421 21.8569 35.4006 21.8392C35.4557 21.8222 35.5156 21.8162 35.566 21.7903C35.6413 21.7516 35.7198 21.761 35.7974 21.7533C35.8556 21.7473 35.9133 21.7357 35.9715 21.7285C35.9906 21.7263 36.0106 21.7274 36.03 21.7297C36.0946 21.7376 36.1605 21.7587 36.224 21.753C36.3328 21.743 36.4346 21.7763 36.5325 21.8048C36.7642 21.872 36.9864 21.975 37.1686 22.1372C37.3567 22.3045 37.528 22.4889 37.6349 22.7277C37.6872 22.8443 37.7324 22.9596 37.7665 23.0834C37.8179 23.2721 37.8295 23.4599 37.8078 23.6522C37.805 23.6753 37.803 23.6986 37.8022 23.7217C37.7968 23.9291 37.7375 24.1224 37.6447 24.3051C37.5876 24.4177 37.5311 24.5321 37.4577 24.6337C37.3548 24.7757 37.2322 24.9009 37.0882 25.0048C36.965 25.0936 36.8345 25.1656 36.6956 25.2225C36.627 25.2507 36.5482 25.2572 36.4841 25.2925C36.3767 25.3514 36.2586 25.3267 36.1481 25.354C36.1017 25.3657 36.0499 25.356 36.001 25.356C36.0013 25.3585 36.0013 25.3611 36.001 25.3637ZM36.731 23.5179C36.7476 23.4977 36.7569 23.4735 36.7724 23.4684C36.834 23.4479 36.8621 23.4038 36.8629 23.3438C36.8652 23.1742 36.8677 23.0046 36.8621 22.835C36.8593 22.7567 36.8092 22.7106 36.7291 22.7092C36.535 22.7052 36.3404 22.7075 36.1461 22.708C36.0994 22.7083 36.0727 22.7331 36.0705 22.782C36.0696 22.8051 36.0699 22.8287 36.0699 22.852C36.0699 23.3116 36.0699 23.7718 36.0699 24.2319C36.0699 24.2649 36.0699 24.2977 36.0699 24.3344C36.1017 24.3477 36.129 24.3694 36.1551 24.3677C36.3863 24.352 36.6211 24.3998 36.8196 24.3406C36.9037 24.2646 36.8939 24.1898 36.8939 24.1169C36.8939 24.0003 36.8916 23.8836 36.8944 23.7669C36.8972 23.6505 36.8536 23.5657 36.731 23.5179ZM35.4529 22.9622C35.4529 23.4297 35.4529 23.8842 35.4529 24.3312C35.5173 24.383 35.5828 24.3634 35.6439 24.3679C35.695 24.3719 35.7144 24.3418 35.7144 24.294C35.7142 24.2706 35.7142 24.2473 35.7142 24.2239C35.7142 23.8446 35.7142 23.465 35.7144 23.0857C35.7144 23.0501 35.7175 23.0145 35.7198 22.9701C35.8112 22.9656 35.8944 22.9613 35.9768 22.9567C35.9824 22.9346 35.9875 22.9223 35.9883 22.9095C35.9903 22.8762 35.9912 22.8429 35.9906 22.8093C35.9884 22.7171 35.981 22.7086 35.8866 22.708C35.6891 22.7069 35.492 22.7075 35.2943 22.7077C35.2687 22.708 35.2431 22.7117 35.2114 22.7137C35.1931 22.798 35.1821 22.8774 35.2189 22.9622C35.2923 22.9622 35.3641 22.9622 35.4529 22.9622Z" fill="white"/>
<path fill-rule="evenodd" clip-rule="evenodd" d="M15.2727 20.265C15.3808 20.0952 15.4795 19.938 15.5807 19.782C15.6735 19.639 15.7693 19.4979 15.8629 19.3553C15.9414 19.236 16.0183 19.1159 16.0965 18.9964C16.1711 18.8822 16.2473 18.7689 16.3212 18.654C16.4106 18.5149 16.4983 18.375 16.5865 18.2352C16.6136 18.1919 16.6381 18.1471 16.6665 18.1047C16.6726 18.0958 16.6931 18.0887 16.7038 18.0916C16.714 18.0946 16.7258 18.1117 16.7265 18.1228C16.7286 18.1632 16.7255 18.204 16.7255 18.2444C16.7255 18.8704 16.7255 19.4964 16.7255 20.1224C16.7255 20.1397 16.7258 20.1573 16.7255 20.1746C16.7245 20.2679 16.7209 20.2724 16.6233 20.2724C16.2015 20.2729 15.7796 20.2729 15.3576 20.2724C15.3312 20.2724 15.3057 20.2679 15.2727 20.265Z" fill="#EE3324"/>
<path fill-rule="evenodd" clip-rule="evenodd" d="M36.802 23.1634C37.0183 23.2052 37.0952 23.2793 37.0907 23.381C37.0858 23.483 37.0897 23.585 37.0897 23.6869C37.0897 23.7506 37.1071 23.8162 36.9588 23.8824C36.6086 23.9341 36.1944 23.8923 35.7867 23.906C35.7406 23.9075 35.693 23.8886 35.6364 23.8769C35.6364 23.8448 35.6364 23.8162 35.6364 23.7874C35.6364 23.3855 35.6364 22.9833 35.6364 22.5814C35.6364 22.5611 35.6359 22.5404 35.6374 22.5203C35.6414 22.4775 35.6885 22.4559 35.7708 22.4556C36.1136 22.4551 36.4568 22.4531 36.7991 22.4566C36.9404 22.4581 37.0287 22.4981 37.0337 22.5665C37.0436 22.7148 37.0391 22.863 37.0352 23.0112C37.0337 23.0637 36.9836 23.102 36.8754 23.1201C36.8477 23.1246 36.8313 23.1457 36.802 23.1634ZM36.5788 23.6882C36.5788 23.5735 36.5803 23.4661 36.5778 23.3591C36.5764 23.2992 36.5263 23.2696 36.4092 23.2587C36.3586 23.2539 36.3055 23.2534 36.254 23.2539C36.124 23.2552 36.0997 23.2656 36.0977 23.3298C36.0937 23.4315 36.0957 23.5332 36.0982 23.6349C36.0982 23.6514 36.1121 23.668 36.122 23.6884C36.2688 23.6882 36.4112 23.6882 36.5788 23.6882ZM36.5764 22.6752C36.436 22.6752 36.3259 22.6752 36.2168 22.6752C36.1389 22.6752 36.0977 22.6946 36.0977 22.7332C36.0962 22.8172 36.0967 22.901 36.0977 22.9853C36.0977 23.0142 36.122 23.0405 36.181 23.0423C36.2728 23.0448 36.369 23.0468 36.4548 23.0343C36.5039 23.0274 36.5679 22.993 36.5709 22.9689C36.5848 22.8749 36.5764 22.7799 36.5764 22.6752Z" fill="#EE3324"/>
<path fill-rule="evenodd" clip-rule="evenodd" d="M35.1455 22.6777C35.0643 22.6777 34.9989 22.6777 34.9316 22.6777C34.8979 22.6035 34.9077 22.5339 34.9246 22.4602C34.9537 22.4582 34.977 22.4549 35.0004 22.4549C35.1809 22.4547 35.3609 22.4542 35.5412 22.4552C35.6275 22.4557 35.6342 22.4632 35.6362 22.5439C35.6367 22.5731 35.636 22.6022 35.6342 22.6316C35.6334 22.6428 35.6288 22.6536 35.6237 22.673C35.5484 22.677 35.4724 22.6807 35.3889 22.6847C35.3869 22.7236 35.3841 22.7547 35.3841 22.7859C35.3838 23.1181 35.3838 23.4506 35.3838 23.7828C35.3838 23.8032 35.3838 23.8236 35.3841 23.8441C35.3841 23.8859 35.3663 23.9121 35.3196 23.9089C35.2639 23.9049 35.2043 23.9221 35.1452 23.8767C35.1455 23.4852 35.1455 23.0872 35.1455 22.6777Z" fill="#EE3324"/>
<path fill-rule="evenodd" clip-rule="evenodd" d="M36.3544 23.909C36.1086 23.909 35.8998 23.909 35.6838 23.909C35.6693 23.8749 35.6489 23.8475 35.6489 23.8196C35.6453 23.6498 35.6424 23.4797 35.6482 23.3091C35.6518 23.2017 35.6875 23.1843 35.8773 23.1822C35.9529 23.1809 36.0315 23.1822 36.1049 23.1901C36.2758 23.2084 36.35 23.2579 36.3522 23.3582C36.3566 23.5375 36.3544 23.7172 36.3544 23.909Z" fill="white"/>
<path fill-rule="evenodd" clip-rule="evenodd" d="M36.3497 23.1818C36.3497 23.388 36.362 23.5752 36.3417 23.7609C36.3366 23.8084 36.2428 23.8755 36.1715 23.8897C36.0457 23.9142 35.9046 23.9103 35.77 23.9054C35.6835 23.9015 35.6479 23.85 35.6479 23.7932C35.6464 23.6271 35.6457 23.462 35.6479 23.2964C35.6479 23.2205 35.7082 23.1823 35.8224 23.1823C35.9824 23.1818 36.1439 23.1818 36.3497 23.1818Z" fill="white"/>
</svg>
