<svg width="40" height="40" viewBox="0 0 40 40" fill="none" xmlns="http://www.w3.org/2000/svg">
<path d="M30.0142 23.0527H31.9543H34.3509V24.9357H31.9543V25.3351H33.4949L32.9814 27.2181H31.9543V27.6176H34.3509V29.5006H31.9543H30.0142V27.6176V27.2181V25.3351V24.9357V23.0527ZM37.8316 24.9357H36.7474V26.2481H37.8316V24.9357ZM36.7474 23.0527H37.8316H38.231H39.8287V28.1311H36.7474V29.5006H34.8074V24.9357V23.0527H36.7474ZM27.5606 27.6176H26.4764V26.2481H27.5606V27.6176ZM26.4193 29.4435H27.5035H27.9029H29.5006V24.3651H26.4193V22.9956H24.4792V27.5605V29.4435H26.4193ZM21.9686 23.0527H23.9086V29.4435H21.9686V25.9057L20.5991 27.9599L19.2296 25.9628V29.5006H17.2895V23.0527H19.2296L20.5991 25.0498L21.9686 23.0527ZM9.98567 24.9357H8.90151V26.2481H9.98567V24.9357ZM8.90151 23.0527H9.98567H10.3851H11.9828V28.1311H8.90151V29.5006H6.96142V24.9357V23.0527H8.90151ZM1.36942 23.0527H1.88297H3.36656H4.45073H5.30665H6.39081V29.4435H4.45073V24.8786H3.36656V29.4435H1.36942V23.0527ZM16.776 27.6176V29.5006H14.3794H12.4393V27.6176V27.2181V25.3351V24.9357V23.0527H14.3794H16.776V24.9357H14.3794V25.3351H15.9201L15.4065 27.2181H14.3794V27.6176H16.776Z" fill="black"/>
<path d="M13.067 17.1758V21.7407H11.1269V20.3713H8.95857L8.10265 21.7407H6.16257V18.2029L4.79309 20.2001L3.36656 18.2029V21.7407H1.36942V15.3499H3.36656L4.73603 17.347L6.1055 15.3499H8.04559V18.3741L9.92861 15.3499H11.9258H13.067H14.2082H16.1483H17.2325H18.3737H19.1725V18.5453H20.2567V15.3499H22.1968V21.7407H20.2567V20.3713H17.1754V17.1758H16.0912V21.7407H14.2082V17.1758H13.067ZM10.1569 18.5453H11.1269V17.0046L10.1569 18.5453Z" fill="black"/>
<path d="M3.59481 11.5833V13.9799H1.36942V9.18676V7.53198H3.59481V9.8715L4.62191 7.53198H7.07555L5.53489 10.6133L7.13261 13.9229H4.67897L3.59481 11.5833Z" fill="black"/>
<path d="M23.9087 11.5833V13.9799H21.6833V9.18676V7.53198H23.9087V9.8715L24.9358 7.53198H27.3894L25.8488 10.6133L27.4465 13.9229H24.9928L23.9087 11.5833Z" fill="black"/>
<path d="M16.3765 7.58936H21.1697V13.9802H16.3765V7.58936ZM18.2596 9.41532V12.2113H19.3437V9.41532H18.2596Z" fill="black"/>
<path d="M11.5833 13.9802V7.58936H15.92L15.5206 9.47238H13.3522V10.2142H15.92V14.0373H11.5833V13.9802ZM13.2952 12.6108H14.3223V11.5266H13.2952V12.6108Z" fill="black"/>
<path d="M12.1538 7.58936H10.0426L9.18664 9.92887L8.10248 7.58936H5.99121L8.2166 12.3825H7.41774V13.9802H9.92844L12.1538 7.58936Z" fill="black"/>
<path d="M8.44492 1.36912C8.10255 0.912628 7.47488 0.627321 6.61896 0.513199L6.67602 0.342015C6.67602 0.284953 6.67602 0.227892 6.67602 0.170831C6.67602 0.11377 6.61896 0.11377 6.50483 0.11377H5.19242C5.0783 0.11377 4.96418 0.170831 4.96418 0.284953L4.90712 0.456137C4.45063 0.57026 4.0512 0.627321 3.70883 0.798505C3.36646 0.969689 2.96703 1.19793 2.68173 1.42618C2.39642 1.65443 2.16817 1.93973 1.99699 2.2821C1.76875 2.56741 1.65462 2.90977 1.5405 3.3092C1.36932 4.051 1.48344 4.67867 1.82581 5.13517C2.16817 5.59166 2.79585 5.87696 3.65177 5.99109L3.53765 6.27639C3.48059 6.39051 3.53765 6.44758 3.70883 6.44758H5.02124C5.13536 6.44758 5.19242 6.44758 5.19242 6.39051C5.19242 6.39051 5.24949 6.33345 5.24949 6.21933L5.30655 5.93402C5.76304 5.87696 6.16247 5.76284 6.50483 5.64872C6.90426 5.47753 7.18957 5.30635 7.47488 5.0781C7.76018 4.84986 7.98843 4.56455 8.21667 4.22218C8.44492 3.87982 8.55904 3.53745 8.67316 3.13802C8.90141 2.45328 8.78729 1.82561 8.44492 1.36912ZM3.93708 4.67867C3.70883 4.67867 3.59471 4.62161 3.48058 4.50749C3.36646 4.39337 3.3094 4.27925 3.25234 4.16512C3.19528 4.051 3.19528 3.87982 3.19528 3.70863C3.19528 3.53745 3.19528 3.36626 3.25234 3.19508C3.3094 3.08096 3.36646 2.96684 3.42352 2.79565C3.48058 2.62447 3.59471 2.51034 3.70883 2.33916C3.82295 2.22504 3.93708 2.11092 4.10826 1.99679C4.27944 1.88267 4.45063 1.82561 4.62181 1.76855L3.93708 4.67867ZM7.01839 3.19508C6.96133 3.36626 6.96133 3.48039 6.8472 3.65157C6.79014 3.82275 6.67602 3.93688 6.5619 4.10806C6.44777 4.22218 6.33365 4.33631 6.16247 4.45043C5.99128 4.56455 5.8201 4.62161 5.59185 4.67867L6.27659 1.76855C6.50483 1.82561 6.61896 1.88267 6.73308 1.99679C6.8472 2.11092 6.90426 2.22504 6.96133 2.33916C7.01839 2.45328 7.01839 2.62447 7.01839 2.73859C7.07545 2.96684 7.07545 3.08096 7.01839 3.19508Z" fill="#D51523"/>
<path d="M22.0826 0.114123C22.0826 0.114123 22.0255 0.0570613 21.9114 0.0570613H20.599C20.4848 0.0570613 20.3707 0.114123 20.3707 0.228245L19.8572 2.39658H17.86L18.3736 0.228245C18.3736 0.171184 18.3736 0.114123 18.3736 0.0570613C18.3736 0.0570613 18.3165 0 18.2024 0H16.89C16.7759 0 16.6617 0.0570613 16.6617 0.171184L15.2352 6.27674C15.1781 6.39087 15.2352 6.44793 15.4064 6.44793H16.7188C16.8329 6.44793 16.89 6.44793 16.89 6.39087C16.89 6.39087 16.947 6.33381 16.947 6.21968L17.5177 3.82311H19.5148L18.9442 6.21968C18.8871 6.33381 18.9442 6.39087 19.1154 6.39087H20.4278C20.5419 6.39087 20.599 6.39087 20.599 6.33381C20.599 6.33381 20.656 6.27674 20.656 6.16262L22.0255 0.171184C22.0826 0.228245 22.0826 0.171184 22.0826 0.114123Z" fill="#D51523"/>
<path d="M33.495 0.11377H30.8131C30.4707 0.11377 30.1854 0.170831 29.9572 0.284953C29.7289 0.399076 29.5007 0.513199 29.3295 0.684383C29.1583 0.855567 28.9872 1.02675 28.9301 1.255C28.816 1.48324 28.7589 1.65443 28.7018 1.88267L28.0171 4.7928C27.903 4.96398 27.903 5.13517 27.903 5.36341C27.903 5.59166 27.96 5.76284 28.0171 5.93402C28.1312 6.10521 28.2454 6.21933 28.4736 6.33345C28.7018 6.44758 28.9872 6.50464 29.3295 6.50464H32.1255C32.2396 6.50464 32.2967 6.44758 32.3538 6.27639L32.582 5.24929C32.582 5.13517 32.582 5.0781 32.582 5.0781C32.582 5.0781 32.525 5.02104 32.4679 5.02104H30.1854C30.1284 5.02104 30.0143 5.02104 29.9572 5.02104C29.9001 5.02104 29.8431 4.96398 29.786 4.96398C29.7289 4.90692 29.7289 4.90692 29.7289 4.7928C29.7289 4.67867 29.7289 4.62161 29.7289 4.50749L29.9001 3.82276H32.3538C32.4679 3.82276 32.525 3.76569 32.582 3.59451L32.8103 2.62447C32.8103 2.51034 32.8103 2.45328 32.8103 2.45328C32.8103 2.45328 32.7532 2.39622 32.6961 2.39622H30.2425L30.3566 1.99679C30.3566 1.93973 30.4137 1.88267 30.4137 1.82561C30.4137 1.76855 30.4707 1.71149 30.5278 1.65443C30.5849 1.59736 30.6419 1.5403 30.699 1.5403C30.7561 1.48324 30.8702 1.48324 30.9843 1.48324H33.1526C33.2097 1.48324 33.2667 1.48324 33.3238 1.42618C33.3809 1.42618 33.3809 1.36912 33.3809 1.255L33.6091 0.342015C33.6091 0.227892 33.6091 0.170831 33.6091 0.170831C33.6091 0.11377 33.5521 0.11377 33.495 0.11377Z" fill="#D51523"/>
<path d="M39.5434 0.114434C39.5434 0.114434 39.4864 0.057373 39.4293 0.057373H34.6362C34.5791 0.057373 34.522 0.057373 34.465 0.114434C34.4079 0.114434 34.4079 0.171496 34.4079 0.285618L34.1797 1.31272C34.1226 1.42684 34.1797 1.54097 34.2938 1.54097H35.8345L34.6932 6.27706C34.6362 6.39118 34.6932 6.44824 34.8644 6.44824H36.1768C36.2909 6.44824 36.348 6.44824 36.348 6.39118C36.348 6.39118 36.4051 6.33412 36.4051 6.22L37.4892 1.48391H39.0299C39.144 1.48391 39.2581 1.42684 39.2581 1.25566L39.4864 0.228557C39.5434 0.228557 39.5434 0.171496 39.5434 0.114434Z" fill="#D51523"/>
<path d="M27.8458 0.114434C27.8458 0.114434 27.7887 0.057373 27.7317 0.057373H23.7374C23.5091 0.057373 23.3379 0.114434 23.2238 0.228557C23.1097 0.34268 23.0526 0.456802 22.9956 0.685048L21.7973 5.87763C21.7402 6.10587 21.7402 6.22 21.7973 6.33412C21.8543 6.44824 22.0255 6.44824 22.2538 6.44824H24.6503C24.9927 6.44824 25.278 6.39118 25.5633 6.27706C25.8486 6.16293 26.1339 6.04881 26.3622 5.82057C26.5904 5.64938 26.8187 5.42114 26.9899 5.19289C27.161 4.96465 27.2752 4.67934 27.3322 4.39403C27.3322 4.27991 27.3893 4.16579 27.3893 4.05167C27.3893 3.93754 27.3893 3.76636 27.3893 3.59517C27.3893 3.42399 27.3322 3.30987 27.2752 3.13868C27.2181 2.9675 27.104 2.85338 26.9899 2.73925C26.8187 2.62513 26.6475 2.51101 26.4192 2.45395C26.191 2.39689 25.8486 2.33983 25.4492 2.33983H24.308C24.308 2.28276 24.365 2.2257 24.365 2.16864C24.365 2.11158 24.365 2.05452 24.4221 1.99746C24.4792 1.9404 24.4221 1.88334 24.4792 1.82627C24.5362 1.76921 24.5362 1.65509 24.5362 1.54097H27.3893C27.4464 1.54097 27.5034 1.54097 27.5605 1.48391C27.6175 1.42684 27.6175 1.42684 27.6175 1.31272L27.8458 0.285618C27.8458 0.228557 27.8458 0.171496 27.8458 0.114434ZM25.1068 3.76636C25.278 3.76636 25.4492 3.82342 25.5063 3.93754C25.6204 4.05167 25.6204 4.16579 25.6204 4.33697C25.6204 4.39403 25.5633 4.45109 25.5633 4.56522C25.5063 4.62228 25.5063 4.67934 25.3921 4.79346C25.3351 4.85052 25.278 4.90759 25.1639 4.96465C25.0498 5.02171 24.9927 5.02171 24.8786 5.02171H23.7374L24.0227 3.76636H25.1068Z" fill="#D51523"/>
<path d="M15.2923 1.94009C15.2923 1.54066 15.1782 1.19829 15.007 0.912981C14.8358 0.627675 14.6076 0.399429 14.2652 0.228245C13.9228 0.0570613 13.5234 0 13.0098 0C12.5534 0 12.0969 0.0570613 11.6974 0.228245C11.298 0.399429 10.9556 0.627675 10.6703 0.912981C10.385 1.19829 10.0997 1.54066 9.87147 1.94009C9.64323 2.33951 9.47204 2.796 9.35792 3.30956C9.2438 3.82311 9.18674 4.2796 9.18674 4.67903C9.18674 5.07846 9.30086 5.42083 9.47204 5.70613C9.64323 5.99144 9.87147 6.21968 10.2138 6.33381C10.5562 6.50499 10.9556 6.56205 11.4692 6.56205C11.9827 6.56205 12.4392 6.50499 12.8387 6.33381C13.2381 6.16262 13.5805 5.99144 13.9228 5.70613C14.2081 5.42083 14.4934 5.07846 14.6646 4.67903C14.8358 4.2796 15.007 3.82311 15.1211 3.30956C15.2352 2.796 15.2923 2.33951 15.2923 1.94009ZM13.4093 2.62482C13.4093 2.85307 13.3522 3.08131 13.2952 3.30956C13.2381 3.5378 13.181 3.76605 13.0669 3.99429C12.9528 4.22254 12.8957 4.39372 12.7816 4.56491C12.6675 4.73609 12.5534 4.85021 12.3822 4.96434C12.211 5.07846 12.0398 5.07846 11.8686 5.07846C11.6404 5.07846 11.5263 5.0214 11.3551 4.96434C11.2409 4.90727 11.1268 4.73609 11.1268 4.62197C11.1268 4.50784 11.0698 4.2796 11.0698 4.05135C11.0698 3.82311 11.1268 3.59486 11.1839 3.30956C11.2409 3.08131 11.298 2.85307 11.4121 2.68188C11.5263 2.45364 11.5833 2.28245 11.7545 2.16833C11.8686 1.99715 12.0398 1.88302 12.1539 1.82596C12.3251 1.71184 12.4963 1.71184 12.6675 1.71184C12.8957 1.71184 13.0669 1.7689 13.181 1.82596C13.2952 1.88302 13.3522 2.05421 13.4093 2.22539C13.4093 2.22539 13.4663 2.39658 13.4093 2.62482Z" fill="#D51523"/>
<path d="M18.4877 38.1173C18.3165 38.1173 18.2024 38.1744 18.0882 38.2885C17.9741 38.4026 17.9171 38.5167 17.9171 38.6879C17.9171 38.8591 17.9741 38.9732 18.0882 39.0874C18.2024 39.2015 18.3165 39.2585 18.4877 39.2585C18.6018 39.2585 18.773 39.2015 18.8871 39.0874C19.0012 38.9732 19.0583 38.8591 19.0583 38.6879C19.0583 38.5167 19.0012 38.4026 18.8871 38.2885C18.773 38.1173 18.6588 38.1173 18.4877 38.1173Z" fill="url(#paint0_linear)"/>
<path d="M20.0284 38.1173C19.8573 38.1173 19.7431 38.1744 19.629 38.2885C19.5149 38.4026 19.4578 38.5167 19.4578 38.6879C19.4578 38.8591 19.5149 38.9732 19.629 39.0874C19.7431 39.2015 19.8573 39.2585 20.0284 39.2585C20.1996 39.2585 20.3137 39.2015 20.4279 39.0874C20.542 38.9732 20.5991 38.8591 20.5991 38.6879C20.5991 38.5167 20.542 38.4026 20.4279 38.2885C20.3137 38.1173 20.1426 38.1173 20.0284 38.1173Z" fill="url(#paint1_linear)"/>
<path d="M24.7646 34.0084H23.7375C23.4522 34.0084 23.1669 33.9513 22.8816 33.8942C22.4822 33.7801 22.311 33.5519 22.311 33.3236V36.1767H20.9986V33.666C20.9986 33.8942 20.8274 34.1225 20.428 34.2366C20.1426 34.3507 19.8573 34.4078 19.572 34.4078H19.1155C18.659 34.4078 18.3167 34.579 17.9743 34.9784C17.689 35.3208 17.5749 35.7202 17.5178 36.1767H16.3195V34.9213C16.3195 34.7502 16.2625 34.636 16.1484 34.5219C16.0342 34.4078 15.9201 34.3507 15.7489 34.3507H14.9501C14.5506 34.3507 14.2653 34.5219 14.0371 34.8072C14.0371 34.6931 13.98 34.579 13.8659 34.4649C13.7518 34.3507 13.6377 34.3507 13.5235 34.3507H12.7247C12.3823 34.3507 12.097 34.5219 11.8688 34.8072V34.0084L10.7846 34.579V36.1196H9.5863V33.6089C9.5863 33.8372 9.41512 34.0654 9.01569 34.1795C8.73038 34.2937 8.44507 34.3507 8.15977 34.3507H7.70328C7.24679 34.3507 6.90442 34.5219 6.56205 34.9213C6.27674 35.2637 6.16262 35.6631 6.10556 36.1196H5.42083C5.3067 36.3479 4.96433 36.6332 4.67903 36.6332C4.56491 36.6332 4.50784 36.5761 4.39372 36.4049L3.65192 35.3208L4.56491 34.0654C4.67903 33.9513 4.73609 33.8942 4.85021 33.8942C5.07846 33.8942 5.24964 34.0084 5.42083 34.1795V33.0383C5.24964 32.9813 5.07846 32.9242 4.85021 32.9242C4.45078 32.9242 4.05135 33.1524 3.76605 33.5519L2.5107 35.2637V34.0084C2.5107 33.7231 2.39658 33.4377 2.22539 33.2666C1.99715 33.0383 1.7689 32.9813 1.48359 32.9813V36.0626V36.1196H0.627674L0 37.2038H2.39658L3.08131 36.2338C3.19543 36.462 3.36662 36.6332 3.48074 36.8614C3.65192 37.0897 3.82311 37.2609 3.99429 37.375C4.22254 37.5462 4.45078 37.6032 4.67903 37.6032C4.85021 37.6032 5.42083 37.4891 5.64907 37.2038H9.64336H11.9258V35.4349H13.067V36.1196V37.2038H14.1512V35.4349H15.2924V37.2038H16.2625H16.3766H20.9415H21.0556H23.4522V36.1196H24.8217C25.5635 36.1196 25.8488 35.492 25.8488 35.0925C25.7917 34.636 25.4493 34.0084 24.7646 34.0084ZM8.5592 36.1196H7.18973C7.24679 35.9484 7.24679 35.7773 7.36091 35.6631C7.47503 35.492 7.58916 35.3778 7.70328 35.3778H8.50214C8.50214 35.4349 8.50214 35.6061 8.50214 35.7202C8.5592 35.9484 8.5592 36.0626 8.5592 36.1196ZM19.9144 36.1196H18.5449C18.5449 35.9484 18.602 35.7773 18.7161 35.6631C18.8302 35.492 18.9444 35.3778 19.0585 35.3778H19.9144C19.9144 35.4349 19.9144 35.6061 19.9144 35.7202C19.9144 35.9484 19.9144 36.0626 19.9144 36.1196ZM24.9358 35.2637C24.8787 35.3208 24.8217 35.3208 24.7646 35.3208H23.3951V34.8072H24.7646C24.8217 34.8072 24.8787 34.8072 24.9358 34.8643C24.9929 34.9213 24.9929 34.9784 24.9929 35.0355C24.9929 35.1496 24.9929 35.2066 24.9358 35.2637Z" fill="url(#paint2_linear)"/>
<path d="M2.79588 39.8858C2.79588 39.8858 2.79588 39.8858 2.68175 39.8858C2.62469 39.8858 2.56763 39.8858 2.56763 39.8858V39.144H2.1682L1.76877 39.8858C1.76877 39.8858 1.71171 39.8858 1.65465 39.8858C1.59759 39.8858 1.54053 39.8858 1.54053 39.8858L1.93996 39.144C1.76877 39.087 1.65465 38.9158 1.65465 38.6305C1.65465 38.2881 1.82583 38.1169 2.1682 38.1169H2.79588V39.8858ZM2.1682 38.2311C1.93996 38.2311 1.82583 38.3452 1.82583 38.5734C1.82583 38.8017 1.93996 38.9158 2.1682 38.9158H2.62469V38.2311H2.1682Z" fill="black"/>
<path d="M4.33658 38.1169C4.33658 38.1169 4.39364 38.1169 4.4507 38.1169C4.50776 38.1169 4.56482 38.1169 4.56482 38.1169V39.8858C4.56482 39.8858 4.50776 39.8858 4.4507 39.8858C4.39364 39.8858 4.33658 39.8858 4.33658 39.8858V39.0299H3.48066V39.8858C3.48066 39.8858 3.42359 39.8858 3.36653 39.8858C3.30947 39.8858 3.25241 39.8858 3.25241 39.8858V38.1169C3.25241 38.1169 3.30947 38.1169 3.36653 38.1169C3.42359 38.1169 3.48066 38.1169 3.48066 38.1169V38.9158H4.33658V38.1169Z" fill="black"/>
<path d="M5.64903 38.1169C5.9914 38.1169 6.16258 38.3452 6.16258 38.6305C6.16258 38.9158 5.9914 38.9729 5.93434 39.0299C5.9914 39.087 6.21964 39.144 6.21964 39.4864C6.21964 39.7717 6.04846 40 5.70609 40H4.96429V38.174L5.64903 38.1169ZM5.59197 38.9158C5.82021 38.9158 5.93434 38.8017 5.93434 38.5734C5.93434 38.3452 5.82021 38.2311 5.59197 38.2311H5.19254V38.9158H5.59197ZM5.59197 39.7717C5.87728 39.7717 5.9914 39.6576 5.9914 39.4294C5.9914 39.2011 5.87728 39.087 5.59197 39.087H5.19254V39.7717H5.59197Z" fill="black"/>
<path d="M7.13257 38.1169C7.18963 38.1169 7.24669 38.1169 7.24669 38.1169L7.93143 39.8858C7.93143 39.8858 7.87436 39.8858 7.8173 39.8858C7.76024 39.8858 7.70318 39.8858 7.70318 39.8858L7.532 39.4294H6.73314L6.56195 39.8858C6.56195 39.8858 6.50489 39.8858 6.44783 39.8858C6.39077 39.8858 6.33371 39.8858 6.33371 39.8858L7.01845 38.1169C7.01845 38.1169 7.07551 38.1169 7.13257 38.1169ZM7.13257 38.2881C7.13257 38.2881 7.13257 38.3452 7.07551 38.4593L6.7902 39.2582H7.47494L7.18963 38.4593C7.13257 38.4022 7.13257 38.2881 7.13257 38.2881Z" fill="black"/>
<path d="M8.38782 39.8855C8.38782 39.8855 8.33076 39.8855 8.2737 39.8855C8.21664 39.8855 8.15958 39.8855 8.15958 39.8855V38.0596H8.78725C9.12962 38.0596 9.3008 38.2878 9.3008 38.5731C9.3008 38.9155 9.07256 39.0867 8.78725 39.0867H8.33076L8.38782 39.8855ZM8.84431 39.0296C9.07256 39.0296 9.18668 38.8584 9.18668 38.6302C9.18668 38.4019 9.07256 38.2308 8.84431 38.2308H8.38782V38.9726L8.84431 39.0296Z" fill="black"/>
<path d="M10.3851 38.8584C10.7275 38.8584 10.8986 39.0867 10.8986 39.372C10.8986 39.7143 10.6704 39.8855 10.3851 39.8855H9.70035V38.0596C9.70035 38.0596 9.70035 38.0596 9.81447 38.0596C9.87153 38.0596 9.92859 38.0596 9.92859 38.0596V38.8014H10.3851V38.8584ZM10.328 39.7714C10.5563 39.7714 10.6704 39.6573 10.6704 39.429C10.6704 39.2008 10.5563 39.0867 10.328 39.0867H9.87153V39.8285L10.328 39.7714Z" fill="black"/>
<path d="M11.8115 38.2875C11.8115 38.2875 11.9827 38.1733 12.268 38.1733C12.5533 38.1733 12.7816 38.2875 12.7816 38.6298C12.7816 38.9151 12.6104 39.0293 12.3251 39.2004C12.1539 39.3146 11.9256 39.3716 11.9256 39.6569C11.9256 39.714 11.9256 39.714 11.9256 39.714H12.7816V39.7711C12.7816 39.8281 12.7816 39.8281 12.7816 39.8281H11.7545C11.7545 39.8281 11.7545 39.7711 11.7545 39.6569C11.7545 39.2575 11.9827 39.1434 12.268 38.9722C12.4963 38.801 12.6674 38.744 12.6674 38.5157C12.6674 38.3445 12.5533 38.2304 12.3251 38.2304C12.0968 38.2304 11.9256 38.2875 11.9256 38.2875C11.8115 38.3445 11.8115 38.3445 11.8115 38.2875Z" fill="black"/>
<path d="M13.1241 39.0866C13.1241 38.459 13.3524 38.2307 13.7518 38.2307C14.1512 38.2307 14.3795 38.459 14.3795 39.0866C14.3795 39.7143 14.1512 39.9426 13.7518 39.9426C13.3524 39.9426 13.1241 39.7143 13.1241 39.0866ZM13.2953 39.0866C13.2953 39.6002 13.4094 39.8284 13.6947 39.8284C13.98 39.8284 14.0942 39.6572 14.0942 39.0866C14.0942 38.5731 13.98 38.3448 13.6947 38.3448C13.4665 38.3448 13.2953 38.516 13.2953 39.0866Z" fill="black"/>
<path d="M15.1211 38.2307C15.1211 38.2307 15.1211 38.2307 15.2352 38.2307C15.3493 38.2307 15.3493 38.2307 15.3493 38.2307V39.9426C15.3493 39.9426 15.3493 39.9426 15.2352 39.9426C15.1781 39.9426 15.1211 39.9426 15.1211 39.9426V38.8013C15.1211 38.6872 15.1211 38.516 15.1211 38.459C15.0069 38.5731 14.8358 38.6872 14.6646 38.7443C14.6075 38.6872 14.6075 38.6301 14.6075 38.5731C14.8358 38.516 15.0069 38.4019 15.1211 38.2307Z" fill="black"/>
<path d="M15.863 39.7714C16.2624 39.7143 16.4907 39.5431 16.5478 39.1437C16.4907 39.2008 16.3195 39.2578 16.2054 39.2578C15.9201 39.2578 15.6918 39.0866 15.6918 38.7443C15.6918 38.4019 15.9201 38.2307 16.2624 38.2307C16.6048 38.2307 16.8331 38.459 16.8331 38.9154C16.8331 39.6002 16.4907 39.9426 15.9201 39.9996C15.806 39.8855 15.806 39.8284 15.863 39.7714ZM16.2054 39.0866C16.3766 39.0866 16.4907 39.0296 16.5478 38.9725C16.5478 38.9154 16.5478 38.8584 16.5478 38.8013C16.5478 38.459 16.3766 38.2878 16.2054 38.2878C15.9771 38.2878 15.863 38.4019 15.863 38.6872C15.863 38.9725 15.9771 39.0866 16.2054 39.0866Z" fill="black"/>
<defs>
<linearGradient id="paint0_linear" x1="17.965" y1="38.6252" x2="19.0309" y2="38.6252" gradientUnits="userSpaceOnUse">
<stop offset="0.0012" stop-color="#DFAF46"/>
<stop offset="0.1524" stop-color="#E6BD4E"/>
<stop offset="0.4234" stop-color="#EFD059"/>
<stop offset="0.7026" stop-color="#F5DB60"/>
<stop offset="1" stop-color="#F7DF62"/>
</linearGradient>
<linearGradient id="paint1_linear" x1="19.4858" y1="38.6252" x2="20.5517" y2="38.6252" gradientUnits="userSpaceOnUse">
<stop offset="0.0012" stop-color="#DFAF46"/>
<stop offset="0.1524" stop-color="#E6BD4E"/>
<stop offset="0.4234" stop-color="#EFD059"/>
<stop offset="0.7026" stop-color="#F5DB60"/>
<stop offset="1" stop-color="#F7DF62"/>
</linearGradient>
<linearGradient id="paint2_linear" x1="0.0119829" y1="35.3148" x2="25.8105" y2="35.3148" gradientUnits="userSpaceOnUse">
<stop offset="0.0012" stop-color="#DFAF46"/>
<stop offset="0.1524" stop-color="#E6BD4E"/>
<stop offset="0.4234" stop-color="#EFD059"/>
<stop offset="0.7026" stop-color="#F5DB60"/>
<stop offset="1" stop-color="#F7DF62"/>
</linearGradient>
</defs>
</svg>
