<svg width="72" height="14" viewBox="0 0 72 14" fill="none" xmlns="http://www.w3.org/2000/svg">
<path fill-rule="evenodd" clip-rule="evenodd" d="M19.446 6.99919C19.5453 6.49595 19.612 6.01294 19.6445 5.55501C19.6786 5.09628 19.6544 4.69741 19.5703 4.36003C19.4869 4.02427 19.3262 3.75809 19.092 3.55744C18.8579 3.3576 18.5289 3.25647 18.106 3.25647C17.7544 3.25647 17.4239 3.35275 17.1155 3.54773C16.8063 3.74191 16.5311 4.00404 16.2886 4.33333C16.0453 4.66181 15.8369 5.04773 15.6543 5.48705C15.4724 5.92637 15.3307 6.3843 15.2246 6.86408C15.0957 7.45955 15.0146 7.99595 14.9813 8.47168C14.9502 8.95226 14.9813 9.35599 15.0806 9.68446C15.176 10.0162 15.3443 10.271 15.583 10.4523C15.8225 10.6327 16.1484 10.7233 16.5592 10.7233C16.9594 10.7233 17.314 10.6238 17.624 10.4223C17.9355 10.2233 18.2068 9.95146 18.438 9.60841C18.6714 9.26618 18.8707 8.86812 19.0344 8.41667C19.2012 7.96359 19.3384 7.49191 19.446 6.99919ZM21.2816 0.492718C21.9303 0.822006 22.4268 1.29045 22.7723 1.89725C23.1172 2.50566 23.3104 3.24191 23.3529 4.09951C23.3931 4.96116 23.2991 5.9199 23.0679 6.98058C22.8284 8.06634 22.5041 9.04288 22.0963 9.90939C21.6878 10.7751 21.1853 11.5129 20.5858 12.1189C19.9864 12.7265 19.2815 13.1926 18.4729 13.5162C17.6619 13.839 16.7426 14 15.7134 14C14.7335 14 13.9142 13.8414 13.2647 13.5267C12.6152 13.2095 12.1248 12.7508 11.7966 12.1489C11.467 11.5485 11.2851 10.8131 11.2525 9.94741C11.2176 9.08091 11.3199 8.10437 11.5579 7.01942C11.7906 5.95955 12.1263 4.99595 12.5651 4.13026C13.0032 3.26375 13.5277 2.52265 14.1408 1.90858C14.7539 1.29369 15.4542 0.822006 16.2401 0.492718C17.0268 0.16343 17.8923 0 18.8382 0C19.8196 0 20.6336 0.16343 21.2816 0.492718ZM5.76426 3.66319C5.66953 3.76756 5.5945 3.88406 5.5422 4.01351C5.49142 4.14296 5.44822 4.2716 5.42094 4.40105L5.15795 5.60251H9.93566C10.0812 5.60251 10.1683 5.62921 10.2002 5.68018C10.2312 5.73277 10.2221 5.8695 10.1736 6.08714L9.73104 8.10574C9.66662 8.40267 9.51959 8.55073 9.28919 8.55073H4.51224L3.44892 13.3994C3.41406 13.554 3.36934 13.6583 3.31629 13.7085C3.264 13.7619 3.13364 13.7878 2.92598 13.7878H0.347654C0.0695099 13.7878 -0.043415 13.6583 0.0149422 13.3994L2.09761 3.8962C2.20068 3.43099 2.3606 2.97629 2.58038 2.52969C2.79941 2.0839 3.08135 1.6907 3.42922 1.34765C3.77709 1.0038 4.19771 0.727103 4.6911 0.52241C5.18448 0.3161 5.75214 0.21254 6.39331 0.21254H11.9175C12.0631 0.21254 12.1517 0.236002 12.1851 0.28131C12.2154 0.32419 12.207 0.456876 12.1601 0.676941L11.6803 2.86869C11.6417 3.03778 11.5939 3.15105 11.5318 3.20849C11.4704 3.26675 11.3734 3.29587 11.2415 3.29587H6.75482C6.51154 3.29587 6.30918 3.33147 6.14927 3.40267C5.98708 3.47225 5.859 3.55882 5.76426 3.66319ZM44.8657 4.2647C44.7854 4.64092 44.627 4.89092 44.3951 5.02198C44.1616 5.15063 43.9229 5.21697 43.6834 5.21697H41.7872L42.1972 3.3537H44.1631C44.4398 3.3537 44.6421 3.43137 44.7702 3.5859C44.899 3.74205 44.9316 3.96778 44.8657 4.2647ZM44.2382 9.36666C44.2071 9.50663 44.1563 9.64902 44.0919 9.79223C44.0222 9.93543 43.9267 10.0705 43.8024 10.2C43.6773 10.3278 43.5288 10.4322 43.356 10.5107C43.1817 10.5859 42.9748 10.6264 42.7338 10.6264H40.6018L41.1581 8.08592H43.2901C43.6872 8.08592 43.9661 8.20647 44.1237 8.44514C44.2814 8.68381 44.3208 8.99126 44.2382 9.36666ZM47.9374 1.02606C47.6494 0.742075 47.2826 0.535764 46.8392 0.404696C46.3959 0.276864 45.8995 0.21133 45.3553 0.21133H40.6314C40.1365 0.21133 39.7917 0.318126 39.5999 0.532528C39.4067 0.745311 39.2634 1.0657 39.171 1.49207L36.7556 12.5074C36.6563 12.9605 36.657 13.2874 36.7586 13.4856C36.8602 13.6871 37.158 13.7874 37.6552 13.7874H42.3783C43.0074 13.7874 43.6152 13.6871 44.198 13.4856C44.7801 13.2874 45.3129 13.0026 45.7918 12.6345C46.2723 12.2655 46.6816 11.8262 47.0173 11.3157C47.3538 10.8044 47.5895 10.238 47.7252 9.61748C47.7934 9.30599 47.8283 8.9945 47.8313 8.67735C47.8343 8.3602 47.7919 8.0568 47.7055 7.76635C47.6168 7.47508 47.4804 7.21133 47.2978 6.97023C47.1151 6.73156 46.8703 6.53415 46.5641 6.37961L46.5906 6.26392C47.0333 6.0034 47.4365 5.63932 47.7919 5.16683C48.1511 4.69515 48.3868 4.20728 48.4952 3.70243C48.6324 3.0835 48.6445 2.55275 48.5361 2.11262C48.4255 1.67411 48.2277 1.31246 47.9374 1.02606ZM54.7362 0.212307H60.0937C60.24 0.212307 60.3302 0.23577 60.362 0.281077C60.3946 0.326385 60.3855 0.459071 60.3378 0.677517L59.8588 2.86927C59.8224 3.03755 59.7709 3.15082 59.7095 3.20826C59.6489 3.26571 59.5511 3.29564 59.4185 3.29564H55.0955C54.853 3.29564 54.6498 3.33124 54.4914 3.40163C54.33 3.47202 54.2027 3.5602 54.1072 3.66538C54.0109 3.76813 53.9367 3.88383 53.8836 4.01328C53.8313 4.14192 53.7919 4.27299 53.7624 4.40163L53.5827 5.21635H58.4529C58.5984 5.21635 58.6871 5.24305 58.7189 5.2924C58.7492 5.3458 58.7402 5.48172 58.6909 5.70098L58.2498 7.71635C58.1831 8.0149 58.0361 8.16215 57.8064 8.16215H52.9385L52.6195 9.61765C52.5641 9.86522 52.549 10.0594 52.5732 10.201C52.596 10.3426 52.6475 10.4469 52.7301 10.5198C52.812 10.5893 52.9166 10.6363 53.0439 10.6557C53.1742 10.6759 53.319 10.6832 53.4759 10.6832H58.0899C58.2354 10.6832 58.3233 10.7075 58.3559 10.7528C58.3885 10.7973 58.3809 10.9299 58.3339 11.15L57.8519 13.3426C57.7875 13.6395 57.6382 13.7876 57.4085 13.7876H51.7949C51.0673 13.7876 50.5027 13.6775 50.0972 13.4583C49.6902 13.2374 49.3954 12.951 49.2143 12.5958C49.0301 12.2382 48.9399 11.8418 48.9384 11.4016C48.9377 10.9623 48.9862 10.5295 49.0786 10.1023L50.4405 3.89758C50.5421 3.43156 50.702 2.97525 50.921 2.52946C51.1408 2.08367 51.425 1.68965 51.7714 1.34742C52.1193 1.00438 52.5391 0.728488 53.034 0.522987C53.5259 0.315867 54.0936 0.212307 54.7362 0.212307ZM71.9668 0.280268C71.9228 0.234152 71.8273 0.212307 71.6833 0.212307H62.1082C61.9642 0.212307 61.8581 0.234152 61.7944 0.280268C61.7285 0.326385 61.6732 0.458262 61.6247 0.677517L61.1495 2.85066C61.0835 3.14758 61.1798 3.29564 61.4329 3.29564H64.4675L62.256 13.379C62.1954 13.6516 62.3052 13.7876 62.5834 13.7876H65.1625C65.3686 13.7876 65.499 13.7584 65.5566 13.701C65.6104 13.6427 65.6559 13.5359 65.6884 13.379L67.9007 3.29564H71.0065C71.2612 3.29564 71.4203 3.14758 71.4855 2.85066L71.9615 0.677517C72.0107 0.458262 72.013 0.326385 71.9668 0.280268ZM34.5331 0.212307H37.1137C37.3918 0.212307 37.5017 0.349038 37.4396 0.620883L34.8393 12.256C34.7407 12.6953 34.574 13.061 34.3398 13.3507C34.1056 13.6435 33.7161 13.7884 33.1712 13.7884H32.2261C32.0563 13.7884 31.904 13.7795 31.7691 13.7584C31.6342 13.7398 31.5144 13.701 31.4136 13.6435C31.3113 13.5845 31.2151 13.4963 31.1287 13.379C31.0377 13.2641 30.9551 13.1079 30.877 12.9146L29.2256 8.84337L28.3101 6.43803H28.1828L26.6298 13.379C26.5965 13.5351 26.5518 13.6435 26.4965 13.701C26.4404 13.7584 26.31 13.7884 26.1039 13.7884H23.5248C23.2466 13.7884 23.1383 13.6524 23.1981 13.379L25.7992 1.74629C25.9349 1.13868 26.1198 0.730106 26.3555 0.522987C26.5874 0.317485 26.9603 0.212307 27.4681 0.212307H28.4131C28.5943 0.212307 28.7497 0.222825 28.8785 0.242242C29.0066 0.262469 29.1225 0.298877 29.2233 0.360365C29.3264 0.417 29.4196 0.504378 29.5022 0.620883C29.5856 0.737388 29.672 0.893537 29.7614 1.08609L31.431 5.23577L32.3193 7.60146H32.4466L34.0071 0.620883C34.042 0.464734 34.0859 0.360365 34.142 0.298877C34.1981 0.242242 34.3284 0.212307 34.5331 0.212307Z" fill="white"/>
</svg>
