<svg width="40" height="40" viewBox="0 0 40 40" fill="none" xmlns="http://www.w3.org/2000/svg">
<path d="M24.5422 21.9668C25.2487 21.9668 25.6328 21.8543 25.8824 21.7675L25.6057 20.7609C25.4807 20.7957 25.1945 20.8476 24.9535 20.8476C24.6321 20.8476 24.5337 20.6217 24.5337 20.214V18.3963H25.7579V17.1921H24.5337V15.6923L23.1036 15.9527V17.192H22.4402L22.3529 18.3963H23.1036L23.1037 20.4043C23.1056 21.2466 23.1636 21.9668 24.5422 21.9668ZM20.3276 22.0033V19.14C20.5835 18.8027 20.9941 18.5087 21.5406 18.5087C21.626 18.5087 21.8484 18.5258 21.8585 18.5345L21.9608 17.3148C21.9608 17.3148 21.8484 17.2974 21.7888 17.2974C21.0109 17.2974 20.5583 17.8079 20.3102 18.1972V18.1972H20.2932C20.2932 17.9376 20.2335 17.4621 20.1653 17.2974L18.8235 17.5136C18.9175 17.7474 18.9517 18.0847 18.9517 18.6383V22.0033H20.3276ZM33.2685 22.0033V19.14C33.5244 18.8027 33.9349 18.5087 34.4818 18.5087C34.5672 18.5087 34.789 18.5258 34.7992 18.5345L34.902 17.3148C34.902 17.3148 34.789 17.2974 34.7295 17.2974C33.9522 17.2974 33.4989 17.8079 33.2517 18.1972V18.1972H33.2344C33.2344 17.9376 33.1744 17.4621 33.1062 17.2974L31.7647 17.5136C31.8588 17.7474 31.8929 18.0847 31.8929 18.6383V22.0033H33.2685ZM9.75876 23.6196V21.4022C10.1036 21.7812 10.5351 22.0004 11.156 22.0004C12.2082 22.0004 12.9412 21.2334 12.9412 19.6812C12.9412 18.1297 12.2169 17.3451 11.1734 17.3451C10.4917 17.3451 10.0262 17.767 9.72423 18.1719C9.72423 17.9186 9.66403 17.5057 9.59482 17.3451L8.2353 17.5559C8.33017 17.7839 8.36471 18.1127 8.36471 18.6524V23.6196H9.75876ZM15.6905 22.051C16.8045 22.051 18.0392 21.4577 18.0392 19.703C18.0392 17.9305 16.8045 17.3451 15.6905 17.3451C14.5678 17.3451 13.3333 17.9305 13.3333 19.703C13.3333 21.4577 14.5767 22.051 15.6905 22.051ZM38.5345 22.0901L40 21.8696C39.8911 21.6401 39.8542 21.2238 39.8542 20.6807V17.3842H38.3893V20.5448C38.0614 20.8083 37.7243 21.0031 37.333 21.0031C36.9233 21.0031 36.7596 20.7826 36.7596 20.3751V17.3842H35.2941V20.7741C35.2941 21.7082 35.8859 22.0901 36.7141 22.0901C37.5606 22.0901 38.1064 21.6063 38.3985 21.2584H38.4164C38.4164 21.4877 38.4619 21.9122 38.5345 22.0901ZM5.7485 22.0972C6.8449 22.0972 7.84314 21.6648 7.84314 20.5714C7.84314 19.5454 6.85377 19.3417 5.91777 19.1893C5.32963 19.0876 5.07117 18.9771 5.07117 18.7057C5.07117 18.4597 5.30282 18.307 5.71293 18.307C6.15843 18.307 6.63104 18.4852 7.11237 18.7989L7.6737 18.0273C7.14781 17.6287 6.55952 17.3913 5.58808 17.3913C4.52763 17.3913 3.74313 17.9171 3.74313 18.8243C3.74313 19.8843 4.70595 20.088 5.60602 20.2407C6.2565 20.3507 6.50619 20.4691 6.50619 20.783C6.50619 21.0797 6.1943 21.2241 5.7485 21.2241C5.16939 21.2241 4.52763 20.9952 4.09977 20.6388L3.52942 21.4018C4.01061 21.7925 4.70595 22.0972 5.7485 22.0972ZM28.1013 22.0972C29.1978 22.0972 30.1961 21.6648 30.1961 20.5714C30.1961 19.5454 29.2068 19.3417 28.2711 19.1893C27.6826 19.0876 27.4241 18.9771 27.4241 18.7057C27.4241 18.4597 27.656 18.307 28.0663 18.307C28.5116 18.307 28.9839 18.4852 29.4653 18.7989L30.0268 18.0273C29.5009 17.6287 28.9128 17.3913 27.941 17.3913C26.8801 17.3913 26.0962 17.9171 26.0962 18.8243C26.0962 19.8843 27.0585 20.088 27.9591 20.2407C28.6098 20.3507 28.8592 20.4691 28.8592 20.783C28.8592 21.0797 28.5471 21.2241 28.1013 21.2241C27.5223 21.2241 26.8801 20.9952 26.4529 20.6388L25.8824 21.4018C26.3637 21.7925 27.0585 22.0972 28.1013 22.0972ZM15.8868 21.269C15.1658 21.269 14.902 20.6423 14.902 19.8881C14.902 19.0748 15.2097 18.5239 15.8868 18.5239C16.59 18.5239 16.8628 19.1342 16.8628 19.8881C16.8628 20.7097 16.5553 21.269 15.8868 21.269ZM10.8125 21.0349C10.4071 21.0349 10.1337 20.9085 9.80393 20.6479V19.0927C10.0585 18.8795 10.4072 18.682 10.7936 18.682C11.4722 18.682 11.7647 19.1244 11.7647 19.8274C11.7647 20.593 11.4444 21.0349 10.8125 21.0349ZM30.9807 22.0346C31.4121 22.0346 31.7647 21.6732 31.7647 21.2412C31.7647 20.8097 31.4121 20.4659 30.9807 20.4659C30.5487 20.4659 30.1961 20.8097 30.1961 21.2412C30.1961 21.6732 30.5487 22.0346 30.9807 22.0346Z" fill="#333333"/>
<path d="M0.784188 16.5684C0.352442 16.5684 0 16.2071 0 15.7751C0 15.3434 0.352406 14.9997 0.784188 14.9997C1.21597 14.9997 1.56863 15.3434 1.56863 15.7751C1.56863 16.2071 1.21593 16.5684 0.784188 16.5684Z" fill="#EC1A41"/>
<path d="M0.784188 18.5288C0.352442 18.5288 0 18.1675 0 17.7357C0 17.304 0.352406 16.9602 0.784188 16.9602C1.21597 16.9602 1.56863 17.3039 1.56863 17.7357C1.56863 18.1675 1.21593 18.5288 0.784188 18.5288Z" fill="#F8BE15"/>
<path d="M0.784188 20.4902C0.352442 20.4902 0 20.1288 0 19.6969C0 19.2652 0.352406 18.9216 0.784188 18.9216C1.21597 18.9216 1.56863 19.2652 1.56863 19.6969C1.56863 20.1288 1.21593 20.4902 0.784188 20.4902Z" fill="#33AF4A"/>
<path d="M0.784188 22.4507C0.352442 22.4507 0 22.0894 0 21.6572C0 21.2257 0.352406 20.8821 0.784188 20.8821C1.21597 20.8821 1.56863 21.2257 1.56863 21.6572C1.56863 22.0894 1.21593 22.4507 0.784188 22.4507Z" fill="#549BD4"/>
<path d="M0.784188 24.4119C0.352442 24.4119 0 24.0506 0 23.6186C0 23.1869 0.352406 22.8432 0.784188 22.8432C1.21597 22.8432 1.56863 23.1869 1.56863 23.6186C1.56863 24.0506 1.21593 24.4119 0.784188 24.4119Z" fill="#8F3D97"/>
</svg>
