<svg width="40" height="40" viewBox="0 0 40 40" fill="none" xmlns="http://www.w3.org/2000/svg">
<path d="M19.2 17.1872C19.1882 17.1872 19.1758 17.188 19.1629 17.188C15.7377 17.188 12.96 14.2942 12.96 10.7239C12.96 7.15341 15.7377 4.25932 19.1629 4.25932C19.1758 4.25932 19.1882 4.26014 19.2 4.26014V0.000822262C19.1882 0.000822262 19.1761 0 19.1629 0C13.44 0 8.79999 4.83545 8.79999 10.7996C8.79999 16.7646 13.44 21.6 19.1629 21.6C19.1758 21.6 19.1882 21.5986 19.2 21.5986V17.1872Z" fill="#C4161C"/>
<path d="M19.2 0V4.25975C21.9131 4.27565 24.216 6.08179 25.0618 8.59406H19.2V12.9303H25.0366C24.1702 15.4034 21.8858 17.173 19.2 17.1889V21.6C24.9471 21.5794 29.6 16.7525 29.6 10.7999C29.6002 4.84773 24.9471 0.0208328 19.2 0Z" fill="black"/>
<path d="M12.8 29.0941C12.4493 29.3739 11.971 29.6 11.2701 29.6C10.3851 29.6 9.84286 29.273 9.46879 28.8529C8.99075 28.3225 8.79999 27.6841 8.79999 26.921C8.79999 26.2901 8.92707 25.6979 9.1738 25.2459C9.59639 24.475 10.4013 24 11.2857 24C12.0909 24 12.5692 24.342 12.6809 24.4286L12.1784 25.1606C11.867 24.9109 11.5091 24.8565 11.3176 24.8565C10.9035 24.8565 10.5527 25.0595 10.3612 25.324C10.0824 25.721 10.0508 26.3987 10.0508 26.8115C10.0508 27.5435 10.1304 27.8863 10.2814 28.1588C10.5363 28.6108 10.9589 28.7588 11.3497 28.7588C11.6919 28.7588 12.0269 28.6339 12.2901 28.4161L12.8 29.0941Z" fill="#010101"/>
<path d="M15.7943 29.6V27.0635C15.7943 26.835 15.7867 26.6752 15.703 26.5837C15.6343 26.5073 15.5505 26.4924 15.482 26.4924C15.375 26.4924 15.2456 26.5149 15.101 26.591C14.9871 26.6516 14.8494 26.7508 14.743 26.8421V29.5997H13.7369V26.7736C13.7369 26.5532 13.7291 26.2482 13.5999 25.8594L14.4914 25.6C14.5597 25.7072 14.6286 25.8594 14.636 26.0876L14.7656 25.9968C14.8341 25.9509 14.8874 25.8896 15.0708 25.7912C15.1467 25.7453 15.4285 25.6083 15.7867 25.6083C16.2895 25.6083 16.6021 25.8825 16.7243 26.1942C16.7999 26.3927 16.7999 26.6062 16.7999 26.7505V29.5995H15.7943V29.6Z" fill="#010101"/>
<path d="M21.0597 26.2532C21.5147 26.7905 21.5999 27.3998 21.5999 28C21.5999 28.6001 21.5145 29.2089 21.0597 29.7462C20.6392 30.2387 20.1319 30.4 19.5999 30.4C19.0683 30.4 18.5618 30.2387 18.1405 29.7462C17.6854 29.2092 17.5999 28.6001 17.5999 28C17.5999 27.3998 17.6857 26.7907 18.1405 26.2532C18.5618 25.7613 19.0683 25.6 19.5999 25.6C20.1319 25.6003 20.6392 25.7613 21.0597 26.2532ZM19.4541 26.6641C19.2564 26.9266 19.1999 27.3693 19.1999 28C19.1999 28.6306 19.2567 29.0724 19.4541 29.3365C19.6237 29.5709 19.8493 29.6 19.9998 29.6C20.1502 29.6 20.3762 29.5709 20.5458 29.3365C20.7435 29.0724 20.7999 28.6306 20.7999 28C20.7999 27.3693 20.7435 26.9266 20.5458 26.6641C20.3762 26.4279 20.1502 26.4 19.9998 26.4C19.8493 26.4 19.6237 26.4279 19.4541 26.6641Z" fill="#010101"/>
<path d="M22.6775 25.6171C22.7309 25.7547 22.7309 25.8402 22.7577 26.0293C22.8453 25.9346 23.1724 25.6 23.8702 25.6C24.0906 25.6 24.399 25.6426 24.7614 25.8748C25.512 26.3642 25.5999 27.2923 25.5999 27.8677C25.5999 28.7441 25.4059 29.268 24.9736 29.6979C24.7881 29.8778 24.399 30.2041 23.7638 30.2041C23.596 30.2041 23.1812 30.1781 22.8185 29.9636C22.8362 30.1352 22.8362 30.187 22.8362 30.2302V30.3245V31.6991L21.6711 32V26.9053C21.6711 26.184 21.6361 25.9432 21.5999 25.7973L22.6775 25.6171ZM23.1999 28.5738C23.4212 28.7097 23.6886 28.8 23.9379 28.8C24.3214 28.8 24.5411 28.6193 24.6367 28.468C24.7429 28.2943 24.7999 27.9625 24.7999 27.5777C24.7999 27.064 24.7426 26.8526 24.675 26.724C24.551 26.4671 24.3214 26.4 24.0721 26.4C23.6788 26.4 23.3829 26.5581 23.2003 26.6938V28.5738H23.1999Z" fill="#010101"/>
<path d="M30.9138 29.6V27.0202C30.9138 26.7679 30.906 26.6232 30.8307 26.5467C30.7557 26.47 30.6474 26.4624 30.5888 26.4624C30.2807 26.4624 29.9882 26.6451 29.8215 26.7907V29.6H28.7362V27.0579C28.7362 26.7907 28.7198 26.6987 28.6942 26.6382C28.637 26.4931 28.5367 26.455 28.3781 26.455C28.2359 26.455 28.1192 26.4855 28.0267 26.5234C27.8939 26.5694 27.7767 26.6382 27.6439 26.7526V29.6H26.5591V26.8746C26.5591 26.2336 26.5002 26.0353 26.3999 25.875L27.4014 25.6226C27.4344 25.6684 27.4597 25.7067 27.485 25.7756C27.5103 25.8445 27.535 25.9438 27.5517 26.0199C27.8353 25.7377 28.2106 25.6002 28.595 25.6002C28.887 25.6002 29.1951 25.6681 29.4626 25.9436C29.5126 25.9972 29.5551 26.0422 29.6295 26.134C30.0632 25.6679 30.5221 25.6 30.8482 25.6C31.2983 25.6 31.5066 25.722 31.6827 25.8669C31.8408 25.997 31.9999 26.1492 31.9999 26.8215V29.6H30.9138Z" fill="#010101"/>
<path d="M4.11821 32.4291C4.43354 32.2103 4.8899 32 5.59056 32C5.96854 32 6.77955 32.0552 7.38584 32.7709C7.95231 33.4408 8 34.3284 8 34.7808C8 35.3489 7.93709 36.19 7.35414 36.8525C7.07864 37.1634 6.51192 37.6 5.55911 37.6C4.85033 37.6 4.36225 37.3739 4 37.0934L4.50381 36.3928C4.92136 36.712 5.29148 36.7433 5.48047 36.7433C6.07915 36.7433 6.3861 36.4703 6.51167 36.2912C6.67732 36.0575 6.75622 35.6448 6.75622 35.3487V35.0922H5.16514V34.2197H6.73237L6.72476 34.0483C6.71639 33.9317 6.6928 33.5656 6.48021 33.2772C6.21284 32.9109 5.77981 32.8564 5.54414 32.8564C5.23592 32.8564 4.89726 32.95 4.61441 33.1603L4.11821 32.4291Z" fill="#010101"/>
<path d="M9.98453 33.6V35.4662H10.2804C10.3607 35.4662 10.6031 35.4575 10.7464 35.3318C10.8715 35.215 10.9079 35.0266 10.9342 34.9098L11.0333 34.461C11.0688 34.2994 11.1315 34.0575 11.3112 33.8962C11.5178 33.717 11.8133 33.6803 12.0188 33.6627L12.4498 33.6271L12.6654 34.4436L12.4677 34.4881C12.3964 34.5066 12.3062 34.5243 12.2346 34.5777C12.1179 34.6676 12.0731 34.8017 12.0468 34.8829L11.8942 35.2959C11.8223 35.502 11.6518 35.8072 11.2751 35.8699C11.7145 35.9864 11.8223 36.2647 11.9211 36.5251L12.1442 37.0896C12.1898 37.1977 12.2164 37.3231 12.3684 37.4312C12.4412 37.4849 12.5394 37.5205 12.6379 37.5384L12.8 37.5748L12.5845 38.4L12.1901 38.3725C11.885 38.3546 11.4993 38.3277 11.2751 38.0766C11.159 37.9416 11.0599 37.7089 11.0148 37.502L10.8622 36.8656C10.8267 36.7037 10.7461 36.5164 10.6381 36.426C10.5395 36.3454 10.3876 36.3095 10.1989 36.3095H9.98424V38.3101H8.79999V33.8248L9.98453 33.6Z" fill="#010101"/>
<path d="M16 37.7726C15.8543 37.9426 15.7405 38.0422 15.6191 38.1131C15.2304 38.3642 14.8576 38.4 14.6065 38.4C14.1126 38.4 13.675 38.2476 13.3265 37.8358C12.8887 37.3164 12.8 36.6086 12.8 36.0355C12.8 34.5762 13.4884 34.0288 13.6505 33.9131C13.958 33.6891 14.4204 33.6 14.7041 33.6C15.1085 33.6 15.3594 33.7342 15.4813 33.806C15.6277 33.8952 15.7567 33.9843 15.8867 34.1278L15.3594 34.9161C15.0928 34.6379 14.8738 34.558 14.6796 34.558C14.364 34.558 14.2094 34.8085 14.1366 34.9877C14.0713 35.1398 13.999 35.4448 13.999 36.1252C13.999 36.4025 14.0152 36.9491 14.2094 37.2264C14.3068 37.3609 14.4854 37.4855 14.6955 37.4855C14.85 37.4855 14.9876 37.4318 15.0928 37.3787C15.2466 37.2982 15.3521 37.1912 15.4405 37.1098L15.5058 37.0466L16 37.7726Z" fill="#010101"/>
<path d="M18.9936 37.6V35.0627C18.9936 34.8347 18.9868 34.675 18.9025 34.5832C18.8343 34.5068 18.7506 34.4916 18.6816 34.4916C18.5753 34.4916 18.4457 34.5149 18.3003 34.591C18.1864 34.6519 18.0489 34.7508 17.9421 34.8421V37.5997H16.937V34.7734C16.937 34.5527 16.9291 34.2477 16.8 33.8591L17.6912 33.6C17.7599 33.707 17.8277 33.8591 17.836 34.0876L17.9654 33.9959C18.0339 33.9504 18.0875 33.8896 18.2701 33.7907C18.3457 33.745 18.6281 33.6081 18.9865 33.6081C19.4893 33.6081 19.8011 33.882 19.9236 34.1942C20 34.3922 20 34.6062 20 34.7505V37.5995H18.9936V37.6Z" fill="#010101"/>
<path d="M21.8772 33.6169C21.9304 33.7547 21.9304 33.8402 21.9569 34.029C22.0448 33.9349 22.3715 33.6 23.0689 33.6C23.29 33.6 23.599 33.6423 23.9609 33.8746C24.7118 34.3645 24.8 35.2921 24.8 35.8676C24.8 36.7442 24.6062 37.2682 24.1729 37.6978C23.9876 37.8777 23.599 38.2043 22.9633 38.2043C22.7954 38.2043 22.3809 38.1786 22.0184 37.9641C22.036 38.1354 22.036 38.1877 22.036 38.2301V38.3245V39.6999L20.8706 40V34.9054C20.8706 34.1846 20.835 33.9435 20.8 33.7976L21.8772 33.6169ZM22.4 36.5738C22.6213 36.71 22.8883 36.8 23.138 36.8C23.5207 36.8 23.7413 36.619 23.8367 36.4678C23.9429 36.2941 24 35.9628 24 35.5771C24 35.0637 23.9426 34.8528 23.8759 34.7244C23.7512 34.4676 23.521 34.4 23.2725 34.4C22.8802 34.4 22.5827 34.5581 22.4003 34.6943V36.5738H22.4Z" fill="#010101"/>
<path d="M26.1157 36.3766V36.4747C26.1157 36.8059 26.2326 37.0928 26.4147 37.2622C26.623 37.4595 26.8855 37.5043 27.1134 37.5043C27.2949 37.5043 27.7476 37.4777 28.2739 37.0472L28.7459 37.7646C28.1562 38.2476 27.5027 38.4 26.9959 38.4C26.36 38.4 25.8071 38.1763 25.4263 37.7908C25.0817 37.4324 24.8 36.8778 24.8 35.9905C24.8 35.1219 25.0367 34.612 25.381 34.2267C25.8343 33.7249 26.3331 33.6 26.8416 33.6C27.4668 33.6 27.9028 33.8147 28.1836 34.092C28.7544 34.6654 28.8 35.5787 28.8 36.0984V36.3766H26.1157ZM27.9997 35.1582C27.9997 34.9685 27.9893 34.751 27.804 34.5826C27.6486 34.449 27.4324 34.4 27.2251 34.4C26.9776 34.4 26.7813 34.4633 26.6475 34.5754C26.4306 34.7508 26.4 35.0103 26.4 35.186V35.2H28V35.1582H27.9997Z" fill="#010101"/>
<path d="M32 37.7726C31.8541 37.9426 31.7406 38.0422 31.6187 38.1131C31.2304 38.3642 30.8577 38.4 30.6069 38.4C30.1129 38.4 29.6753 38.2476 29.3271 37.8358C28.8898 37.3164 28.8 36.6086 28.8 36.0355C28.8 34.5762 29.4892 34.0288 29.6507 33.9131C29.9592 33.6891 30.4203 33.6 30.7032 33.6C31.1085 33.6 31.3598 33.7342 31.4814 33.806C31.6268 33.8952 31.7568 33.9843 31.8862 34.1278L31.3596 34.9161C31.0926 34.6379 30.8744 34.558 30.6797 34.558C30.3637 34.558 30.2087 34.8085 30.1369 34.9877C30.0722 35.1398 29.9994 35.4448 29.9994 36.1252C29.9994 36.4025 30.0156 36.9491 30.209 37.2264C30.3073 37.3609 30.4853 37.4855 30.6957 37.4855C30.8496 37.4855 30.9872 37.4318 31.0926 37.3787C31.246 37.2982 31.3515 37.1912 31.4402 37.1098L31.5055 37.0466L32 37.7726Z" fill="#010101"/>
<path d="M36 37.7726C35.8541 37.9426 35.7405 38.0422 35.6186 38.1131C35.2308 38.3642 34.8581 38.4 34.6067 38.4C34.1121 38.4 33.6754 38.2476 33.3272 37.8358C32.8893 37.3164 32.8 36.6086 32.8 36.0355C32.8 34.5762 33.4888 34.0288 33.6509 33.9131C33.9589 33.6891 34.4206 33.6 34.7035 33.6C35.1089 33.6 35.3608 33.7342 35.4811 33.806C35.6275 33.8952 35.757 33.9843 35.887 34.1278L35.3608 34.9161C35.0932 34.6379 34.8745 34.558 34.6798 34.558C34.3642 34.558 34.2102 34.8085 34.1374 34.9877C34.0716 35.1398 33.9993 35.4448 33.9993 36.1252C33.9993 36.4025 34.0155 36.9491 34.2105 37.2264C34.3073 37.3609 34.4859 37.4855 34.6957 37.4855C34.8502 37.4855 34.9878 37.4318 35.0932 37.3787C35.2467 37.2982 35.3522 37.1912 35.4414 37.1098L35.5056 37.0466L36 37.7726Z" fill="#010101"/>
</svg>
