<svg width="40" height="40" viewBox="0 0 40 40" fill="none" xmlns="http://www.w3.org/2000/svg">
<mask id="mask0" mask-type="alpha" maskUnits="userSpaceOnUse" x="0" y="0" width="40" height="40">
<path d="M40 0H0V39.2982H40V0Z" fill="white"/>
</mask>
<g mask="url(#mask0)">
<path d="M15.0125 11.6737H15.0198C15.0198 11.6737 17.932 13.1399 19.9761 13.6078C20.0946 13.6293 20.1019 13.6558 20.1016 13.6891C20.1009 13.7381 20.0678 13.74 20.0153 13.758C18.0838 14.1714 15.0182 15.6688 15.0109 15.6724C15.0087 15.6734 12.6345 16.7467 12.6316 18.0901C12.6303 18.8721 13.187 19.5516 13.393 19.7929C13.4296 19.8357 13.4668 19.8785 13.505 19.9209C15.0453 21.4837 17.1617 22.4509 19.499 22.4561C23.2133 22.4643 26.3785 20.0421 27.5671 16.6501C27.5397 16.5067 27.2755 16.4796 27.0049 16.509C22.6203 16.9972 21.3286 20.7536 21.3098 20.7924C17.6216 21.9467 17.8871 19.803 17.8871 19.803C17.8817 18.271 20.7452 16.3085 23.0545 15.325C23.3568 15.196 25.3103 14.4346 27.8373 14.1364C28.0006 14.123 28.0569 13.9803 28.0642 13.8412C28.0747 13.6391 28.0732 13.5049 28.0445 13.3276C28.007 13.1552 27.8609 13.1131 27.7485 13.1017C27.4381 13.0628 27.1447 13.0207 26.8649 12.9763C25.9838 12.8208 24.5842 12.4959 23.0583 11.8605C21.3888 11.1653 17.9428 9.35864 17.9126 7.5588C17.9126 7.5588 17.656 5.41382 21.3394 6.58444C21.3585 6.62362 22.6337 10.3856 27.0167 10.8923C27.2869 10.9237 27.5511 10.8979 27.5792 10.7539C26.4052 7.35701 23.2499 4.92044 19.5356 4.91225C17.1983 4.90705 15.0781 5.86509 13.5308 7.42133C13.4926 7.46378 13.4547 7.50623 13.4181 7.54868C13.2115 7.78966 12.6529 8.46623 12.6491 9.24827C12.6456 10.187 13.711 11.0138 15.0125 11.6737Z" fill="#78A2BD"/>
</g>
<mask id="mask1" mask-type="alpha" maskUnits="userSpaceOnUse" x="0" y="0" width="40" height="40">
<path d="M40 0H0V39.2982H40V0Z" fill="white"/>
</mask>
<g mask="url(#mask1)">
<path d="M11.1923 16.8421C11.2277 16.8421 11.2995 16.8304 11.2995 16.7479C11.301 15.7997 12.2463 14.9641 13.4359 14.2874C14.0651 13.9508 14.7317 13.6204 15.35 13.4203C15.3479 13.4203 15.4386 13.3992 15.4386 13.3472C15.4386 13.2953 15.3292 13.2606 15.3292 13.2613V13.261C14.7969 13.0508 14.0365 12.7079 13.3924 12.3623C12.2277 11.6853 11.3107 10.8545 11.3128 9.91913C11.3128 9.83705 11.2414 9.82458 11.2063 9.82458C11.1447 9.82458 11.1078 9.93367 11.1078 9.93367C10.7346 10.9857 10.5285 12.1324 10.5263 13.332C10.5239 14.5316 10.7258 15.6789 11.0944 16.7327C11.0944 16.7327 11.1317 16.8418 11.1923 16.8421Z" fill="#78A2BD"/>
</g>
<mask id="mask2" mask-type="alpha" maskUnits="userSpaceOnUse" x="0" y="0" width="40" height="40">
<path d="M40 0H0V39.2982H40V0Z" fill="white"/>
</mask>
<g mask="url(#mask2)">
<path d="M16.711 27.0178C16.6242 26.8024 16.5028 26.6162 16.3469 26.4593C16.1914 26.3033 16.0055 26.1814 15.7897 26.0947C15.5731 26.0085 15.3385 25.965 15.0852 25.965C14.832 25.965 14.598 26.0085 14.3841 26.0947C14.1699 26.1814 13.985 26.3033 13.8292 26.4593C13.6737 26.6162 13.5519 26.8024 13.4648 27.0178C13.3774 27.2349 13.3333 27.4683 13.3333 27.7227C13.3333 27.9759 13.3774 28.2099 13.4648 28.4233C13.5519 28.637 13.6734 28.8218 13.8292 28.9787C13.9847 29.135 14.1699 29.2563 14.3841 29.3436C14.598 29.4296 14.832 29.4737 15.0852 29.4737C15.3385 29.4737 15.5731 29.4296 15.7897 29.3436C16.0055 29.2563 16.1914 29.135 16.3469 28.9787C16.5028 28.8218 16.6242 28.637 16.711 28.4233C16.7991 28.2096 16.8421 27.9759 16.8421 27.7227C16.8421 27.4683 16.7991 27.2349 16.711 27.0178ZM15.8614 28.491C15.6752 28.6786 15.4167 28.772 15.084 28.772C14.7568 28.772 14.499 28.6786 14.3136 28.491C14.1278 28.304 14.0351 28.048 14.0351 27.7229C14.0351 27.3933 14.1282 27.1354 14.3136 26.9477C14.499 26.7604 14.7564 26.6667 15.084 26.6667C15.4167 26.6667 15.6752 26.7604 15.8614 26.9477C16.0476 27.1357 16.1404 27.3933 16.1404 27.7229C16.1404 28.048 16.0476 28.3043 15.8614 28.491Z" fill="#78A2BD"/>
</g>
<mask id="mask3" mask-type="alpha" maskUnits="userSpaceOnUse" x="0" y="0" width="40" height="40">
<path d="M40 0H0V39.2982H40V0Z" fill="white"/>
</mask>
<g mask="url(#mask3)">
<path d="M27.5963 29.9284C27.4148 30.1007 27.133 30.1881 26.7523 30.1881C26.3143 30.1881 25.961 30.0933 25.6962 29.9031C25.5671 30.0039 25.503 30.1332 25.503 30.2886C25.503 30.3773 25.5361 30.4575 25.6023 30.5289C25.6688 30.6007 25.7606 30.663 25.878 30.7161C25.9955 30.7683 26.1353 30.8079 26.2968 30.8359C26.4584 30.864 26.6327 30.8772 26.8188 30.8772C27.4519 30.8772 27.9365 30.7185 28.2702 30.403C28.6047 30.0869 28.772 29.6191 28.772 28.9996V26.1166C28.688 26.1 28.5884 26.0817 28.4731 26.0628C28.3585 26.0438 28.2336 26.0273 28.1009 26.0124C27.9682 25.9975 27.8333 25.9863 27.6956 25.9772C27.5582 25.9694 27.4273 25.965 27.3031 25.965C26.9936 25.965 26.7121 26.0069 26.4595 26.0912C26.2068 26.1759 25.9919 26.295 25.8147 26.4487C25.6372 26.6027 25.5005 26.7892 25.4066 27.0086C25.3102 27.2272 25.2632 27.4713 25.2632 27.7411C25.2632 27.999 25.3009 28.2285 25.376 28.4336C25.4511 28.6377 25.5574 28.8111 25.6955 28.9522C25.8321 29.0934 25.9994 29.202 26.1965 29.2782C26.3936 29.3537 26.6118 29.3916 26.8512 29.3916C27.0722 29.3916 27.2722 29.3496 27.449 29.265C27.6266 29.1807 27.766 29.0609 27.8678 28.9041V29.1259C27.8685 29.4881 27.7778 29.7558 27.5963 29.9284ZM27.1742 28.4947C27.0442 28.6804 26.8615 28.772 26.6236 28.772C26.4074 28.772 26.2438 28.6945 26.1323 28.5394C26.021 28.3837 25.9649 28.1449 25.9649 27.8211C25.9649 27.4437 26.0407 27.1561 26.1918 26.9604C26.343 26.7644 26.5664 26.6667 26.8615 26.6667C27.0121 26.6667 27.1809 26.6906 27.3684 26.7371V27.719C27.3684 28.052 27.3037 28.3099 27.1742 28.4947Z" fill="#78A2BD"/>
</g>
<mask id="mask4" mask-type="alpha" maskUnits="userSpaceOnUse" x="0" y="0" width="40" height="40">
<path d="M40 0H0V39.2982H40V0Z" fill="white"/>
</mask>
<g mask="url(#mask4)">
<path d="M12.5168 25.965C12.404 25.965 12.2869 25.9755 12.1642 25.9976C12.0418 26.0193 11.9222 26.0484 11.8054 26.0824C11.6886 26.1174 11.5809 26.1602 11.4816 26.2107C11.3823 26.2605 11.2977 26.3141 11.2281 26.3702V29.4737H12.0215V26.8227C12.0874 26.7873 12.1711 26.76 12.2719 26.7407C12.3731 26.7214 12.4821 26.7112 12.5986 26.7112C12.6492 26.7112 12.7044 26.7158 12.765 26.7246C12.8253 26.733 12.8837 26.7445 12.9402 26.7572C12.9961 26.7705 13.0451 26.7859 13.0857 26.8031C13.1266 26.8213 13.1547 26.8385 13.1703 26.8553C13.2287 26.7905 13.2699 26.7232 13.2955 26.6562C13.3211 26.5886 13.3333 26.5107 13.3333 26.4235C13.3333 26.1171 13.0617 25.965 12.5168 25.965Z" fill="#78A2BD"/>
</g>
<mask id="mask5" mask-type="alpha" maskUnits="userSpaceOnUse" x="0" y="0" width="40" height="40">
<path d="M40 0H0V39.2982H40V0Z" fill="white"/>
</mask>
<g mask="url(#mask5)">
<path d="M6.38943 28.7281H5.01441V27.7474H6.68941C6.71577 27.7158 6.7388 27.6614 6.75758 27.5854C6.77637 27.5094 6.78606 27.4369 6.78606 27.3686C6.78606 27.1238 6.65971 27.0014 6.40701 27.0014H5.01441V26.0091H6.36095C6.58396 26.0091 6.74395 25.9508 6.84212 25.8349C6.93999 25.718 6.98908 25.5279 6.98908 25.2632H4.66929C4.36356 25.2632 4.21054 25.4519 4.21054 25.8288V28.9085C4.21054 29.285 4.36356 29.4737 4.66929 29.4737H7.01756C7.01756 29.2093 6.96817 29.0189 6.8706 28.9027C6.77273 28.7861 6.61153 28.7281 6.38943 28.7281Z" fill="#78A2BD"/>
</g>
<mask id="mask6" mask-type="alpha" maskUnits="userSpaceOnUse" x="0" y="0" width="40" height="40">
<path d="M40 0H0V39.2982H40V0Z" fill="white"/>
</mask>
<g mask="url(#mask6)">
<path d="M10.0101 29.431C10.2099 29.4026 10.3818 29.364 10.5263 29.3171V26.0897C10.4808 26.0508 10.4234 26.0196 10.3553 25.9986C10.2865 25.9769 10.216 25.965 10.1442 25.965C9.88153 25.965 9.75049 26.1153 9.75049 26.4164V28.701C9.68177 28.7227 9.54524 28.7339 9.33967 28.7339C8.77644 28.7339 8.49512 28.4567 8.49512 27.9023V26.0897C8.44931 26.0508 8.39249 26.0196 8.32408 25.9986C8.25535 25.9769 8.1851 25.965 8.11301 25.965C7.85095 25.965 7.7193 26.1153 7.7193 26.4164V27.9412C7.7193 28.435 7.85369 28.8135 8.12157 29.0774C8.38975 29.3416 8.81645 29.4737 9.40229 29.4737C9.60816 29.4737 9.81036 29.4594 10.0101 29.431Z" fill="#78A2BD"/>
</g>
<mask id="mask7" mask-type="alpha" maskUnits="userSpaceOnUse" x="0" y="0" width="40" height="40">
<path d="M40 0H0V39.2982H40V0Z" fill="white"/>
</mask>
<g mask="url(#mask7)">
<path d="M24.5614 29.3202V27.3992C24.5614 26.908 24.4317 26.5467 24.173 26.3143C23.9143 26.0815 23.5087 25.965 22.9565 25.965C22.8336 25.965 22.7138 25.9763 22.5967 26.0006C22.48 26.0239 22.3762 26.0568 22.286 26.099C22.1961 26.1422 22.1234 26.1953 22.0676 26.2591C22.0122 26.3235 21.9842 26.3962 21.9842 26.4771C21.9842 26.5583 22.002 26.6375 22.0362 26.7136C22.0701 26.7911 22.12 26.8521 22.1859 26.8997C22.339 26.7842 22.4788 26.7095 22.6054 26.6756C22.7316 26.6409 22.8641 26.6245 23.0021 26.6245C23.5232 26.6245 23.7844 26.8295 23.7844 27.2388V27.3474C23.7532 27.3437 23.7126 27.3399 23.6608 27.3351C23.6088 27.3306 23.5543 27.3265 23.497 27.3221C23.4397 27.3176 23.38 27.3152 23.3187 27.3128C23.2571 27.3101 23.2016 27.3087 23.1524 27.3087C22.6574 27.3087 22.3008 27.3961 22.0818 27.5689C21.8631 27.7416 21.7544 28.0052 21.7544 28.3597C21.7544 28.53 21.7907 28.6836 21.8634 28.8207C21.9364 28.9575 22.039 29.0734 22.1714 29.17C22.3035 29.2653 22.4649 29.3404 22.6543 29.3935C22.8441 29.447 23.0563 29.4737 23.29 29.4737C23.3935 29.4737 23.5072 29.4693 23.6322 29.4607C23.7563 29.4528 23.8798 29.4405 23.9996 29.4254C24.121 29.4107 24.2309 29.3942 24.3307 29.3774C24.4305 29.3606 24.5078 29.3407 24.5614 29.3202ZM23.8597 28.7294C23.7948 28.7417 23.6993 28.7523 23.5732 28.7601C23.4463 28.7677 23.3225 28.772 23.2029 28.772C23.1253 28.772 23.0426 28.7657 22.955 28.7526C22.8668 28.7402 22.785 28.7195 22.7102 28.6915C22.6347 28.6633 22.5737 28.625 22.5272 28.5763C22.4796 28.5276 22.4561 28.4676 22.4561 28.3948C22.4561 28.2725 22.5165 28.1877 22.6358 28.1408C22.7561 28.0934 22.9512 28.0702 23.2219 28.0702C23.3377 28.0702 23.4539 28.0733 23.5694 28.0793C23.6856 28.0856 23.7821 28.0937 23.8597 28.1033V28.7294Z" fill="#78A2BD"/>
</g>
<mask id="mask8" mask-type="alpha" maskUnits="userSpaceOnUse" x="0" y="0" width="40" height="40">
<path d="M40 0H0V39.2982H40V0Z" fill="white"/>
</mask>
<g mask="url(#mask8)">
<path d="M31.1976 25.965C30.9351 25.965 30.8037 26.1153 30.8037 26.4164V28.701C30.7355 28.7227 30.598 28.7339 30.3927 28.7339C29.8295 28.7339 29.5481 28.4567 29.5481 27.9023V26.0897C29.5025 26.0501 29.4448 26.0203 29.377 25.9979C29.3082 25.9762 29.2379 25.965 29.1655 25.965C28.9036 25.965 28.7719 26.1153 28.7719 26.4164V27.9412C28.7719 28.435 28.9061 28.8135 29.1734 29.0774C29.4426 29.3416 29.8689 29.4737 30.4553 29.4737C30.6607 29.4737 30.8633 29.4594 31.0628 29.431C31.2624 29.4026 31.435 29.364 31.5789 29.3171V26.0897C31.5334 26.0501 31.4766 26.0203 31.4078 25.9979C31.34 25.9758 31.2694 25.965 31.1976 25.965Z" fill="#78A2BD"/>
</g>
<mask id="mask9" mask-type="alpha" maskUnits="userSpaceOnUse" x="0" y="0" width="40" height="40">
<path d="M40 0H0V39.2982H40V0Z" fill="white"/>
</mask>
<g mask="url(#mask9)">
<path d="M34.8763 27.8466C35.0173 27.7175 35.0877 27.5119 35.0877 27.2282C35.0877 27.042 35.0566 26.8715 34.9947 26.7169C34.9327 26.5626 34.8437 26.4294 34.729 26.3166C34.6139 26.2055 34.4765 26.1182 34.3176 26.0567C34.1582 25.9959 33.9821 25.965 33.788 25.965C33.5616 25.965 33.3558 26.0085 33.1712 26.0948C32.9868 26.1814 32.8282 26.3034 32.6973 26.4593C32.5658 26.6163 32.4636 26.8059 32.3902 27.0278C32.3171 27.2493 32.2807 27.4939 32.2807 27.7606C32.2807 28.0267 32.3183 28.2669 32.3931 28.4806C32.4677 28.6947 32.5749 28.8741 32.7135 29.0198C32.8526 29.1659 33.0238 29.2777 33.2264 29.3562C33.4292 29.4343 33.6588 29.4737 33.9148 29.4737C34.2108 29.4737 34.4474 29.4262 34.6247 29.331C34.8023 29.2356 34.8904 29.1081 34.8904 28.9464C34.8904 28.8747 34.8787 28.8102 34.8552 28.7504C34.8311 28.6909 34.7915 28.6301 34.7369 28.5666C34.6456 28.6383 34.5334 28.6947 34.4001 28.7344C34.2665 28.7745 34.1306 28.7949 33.9915 28.7949C33.7208 28.7949 33.5009 28.7266 33.3303 28.5886C33.1606 28.4514 33.0652 28.2679 33.0429 28.0403H34.194C34.5082 28.0403 34.7354 27.9757 34.8763 27.8466ZM32.9825 27.3682C32.9894 27.2721 33.0139 27.1821 33.0555 27.0975C33.0969 27.0125 33.153 26.938 33.2243 26.873C33.2958 26.8086 33.3785 26.7583 33.473 26.7216C33.5666 26.6851 33.6699 26.6667 33.7828 26.6667C33.9669 26.6667 34.114 26.7093 34.2226 26.794C34.3313 26.8786 34.386 26.9902 34.386 27.1297C34.386 27.2255 34.3651 27.2899 34.3238 27.3214C34.2824 27.3528 34.1961 27.3685 34.0644 27.3685H32.9825V27.3682Z" fill="#78A2BD"/>
</g>
<mask id="mask10" mask-type="alpha" maskUnits="userSpaceOnUse" x="0" y="0" width="40" height="40">
<path d="M40 0H0V39.2982H40V0Z" fill="white"/>
</mask>
<g mask="url(#mask10)">
<path d="M20.6931 26.3166C20.5777 26.2055 20.4413 26.1182 20.2819 26.0567C20.1231 25.9959 19.9464 25.965 19.7536 25.965C19.527 25.965 19.321 26.0085 19.1364 26.0947C18.9521 26.1814 18.7939 26.3033 18.6627 26.4593C18.5309 26.6166 18.4287 26.8058 18.3554 27.0273C18.2823 27.2492 18.2456 27.4938 18.2456 27.7605C18.2456 28.0265 18.2832 28.2667 18.358 28.4804C18.4329 28.6937 18.5394 28.8738 18.6785 29.0202C18.8179 29.1659 18.9882 29.278 19.1916 29.3558C19.3941 29.434 19.6239 29.4737 19.8792 29.4737C20.1757 29.4737 20.4116 29.4252 20.5892 29.3307C20.7665 29.2352 20.8551 29.1075 20.8551 28.9461C20.8551 28.8751 20.8425 28.8099 20.8193 28.7501C20.7958 28.6907 20.7559 28.6298 20.7019 28.5663C20.6103 28.638 20.4982 28.6937 20.365 28.7341C20.2308 28.7742 20.0949 28.7946 19.9555 28.7946C19.6896 28.7946 19.4698 28.7263 19.2987 28.5884C19.1264 28.4511 19.0295 28.2677 19.0084 28.0401H20.1592C20.4727 28.0401 20.701 27.9755 20.8413 27.8464C20.9819 27.7173 21.0526 27.5118 21.0526 27.2281C21.0526 27.0419 21.0218 26.8714 20.9596 26.7171C20.8968 26.5622 20.8087 26.4294 20.6931 26.3166ZM20.2887 27.3213C20.2474 27.3528 20.1611 27.3685 20.0292 27.3685H18.9474C18.9549 27.2689 18.9803 27.1762 19.0237 27.0899C19.0666 27.0033 19.1239 26.9293 19.1954 26.8662C19.2669 26.8031 19.3493 26.7541 19.4441 26.7195C19.5376 26.684 19.6387 26.6667 19.7473 26.6667C19.932 26.6667 20.0784 26.7093 20.1876 26.794C20.2959 26.8784 20.3509 26.9903 20.3509 27.1299C20.3506 27.2257 20.33 27.2899 20.2887 27.3213Z" fill="#78A2BD"/>
</g>
<mask id="mask11" mask-type="alpha" maskUnits="userSpaceOnUse" x="0" y="0" width="40" height="40">
<path d="M40 0H0V39.2982H40V0Z" fill="white"/>
</mask>
<g mask="url(#mask11)">
<path d="M16.8421 25.6957V29.4737H17.5439V25.3838C17.5042 25.3478 17.4529 25.3191 17.3902 25.2966C17.3275 25.2748 17.2637 25.2632 17.1979 25.2632C16.9606 25.2635 16.8421 25.4076 16.8421 25.6957Z" fill="#78A2BD"/>
</g>
<mask id="mask12" mask-type="alpha" maskUnits="userSpaceOnUse" x="0" y="0" width="40" height="40">
<path d="M40 0H0V39.2982H40V0Z" fill="white"/>
</mask>
<g mask="url(#mask12)">
<path d="M10.352 32.8919C10.2892 32.8135 10.2107 32.7441 10.1156 32.682C10.0203 32.6211 9.90593 32.5732 9.77406 32.5391C9.83614 32.5188 9.90031 32.4865 9.96625 32.4417C10.0325 32.3974 10.0921 32.3436 10.1444 32.2785C10.1967 32.2133 10.2408 32.1374 10.2759 32.0483C10.311 31.9601 10.3285 31.8609 10.3285 31.7515C10.3285 31.639 10.3054 31.5296 10.258 31.4242C10.2121 31.3191 10.1363 31.2257 10.0332 31.1461C9.93047 31.0653 9.79896 31.0007 9.63974 30.951C9.47982 30.9018 9.28729 30.8772 9.06179 30.8772H7.97075C7.88904 30.8772 7.82626 30.8963 7.78348 30.934C7.74069 30.9715 7.7193 31.0207 7.7193 31.0819V34.386H9.20768C9.47176 34.386 9.68919 34.3543 9.85858 34.2938C10.0273 34.2323 10.1619 34.1536 10.2612 34.0584C10.3601 33.9625 10.4288 33.8593 10.4685 33.7459C10.507 33.634 10.5263 33.5261 10.5263 33.4238C10.5263 33.3279 10.5126 33.2357 10.4856 33.1451C10.4586 33.0547 10.4141 32.9702 10.352 32.8919ZM8.42147 30.8772H9.45322C10.1683 30.8772 10.5263 31.1006 10.5263 31.5477C10.5263 31.7663 10.4494 31.9439 10.2961 32.0781C10.1415 32.2131 9.88188 32.2807 9.51482 32.2807H8.42105V30.8772H8.42147ZM10.2814 34.2085C10.1176 34.3261 9.87047 34.386 9.53901 34.386H8.42105V32.9825H9.55767C9.72751 32.9825 9.87383 33.0008 9.99552 33.0373C10.1176 33.075 10.2184 33.1245 10.2971 33.1882C10.3755 33.2512 10.4337 33.3273 10.4711 33.4151C10.508 33.5029 10.5263 33.5983 10.5263 33.7001C10.5267 33.9216 10.4453 34.0912 10.2814 34.2085Z" fill="#78A2BD"/>
</g>
<mask id="mask13" mask-type="alpha" maskUnits="userSpaceOnUse" x="0" y="0" width="40" height="40">
<path d="M40 0H0V39.2982H40V0Z" fill="white"/>
</mask>
<g mask="url(#mask13)">
<path d="M13.0374 32.5438C12.8397 32.3683 12.5495 32.2808 12.1672 32.2808C11.9807 32.2808 11.8395 32.2989 11.7427 32.3354C11.6465 32.3719 11.5819 32.4052 11.5499 32.4339C11.5243 32.4559 11.5021 32.4814 11.4848 32.5105C11.4672 32.5399 11.4586 32.5742 11.4586 32.6142C11.4586 32.6537 11.4672 32.6895 11.4848 32.7241C11.5021 32.7583 11.5226 32.7845 11.5447 32.8023C11.5865 32.759 11.6586 32.7118 11.7611 32.6598C11.8637 32.6081 12.0049 32.5822 12.1847 32.5822C12.4795 32.5822 12.6922 32.6498 12.8218 32.7845C12.9521 32.9202 13.0169 33.1144 13.0169 33.3678V33.3784C12.9564 33.3739 12.8576 33.3684 12.7219 33.3594C12.5861 33.3497 12.4461 33.3451 12.302 33.3451C12.0945 33.3451 11.9211 33.3681 11.7819 33.4127C11.6433 33.4579 11.5326 33.52 11.4508 33.6014C11.3695 33.6815 11.3119 33.7756 11.2785 33.8832C11.2448 33.9908 11.2281 34.1055 11.2281 34.2273C11.2281 34.3242 11.2393 34.4234 11.2621 34.5255C11.284 34.6276 11.3338 34.7204 11.411 34.8018C11.488 34.8849 11.5992 34.9527 11.745 35.0067C11.8908 35.0613 12.0868 35.0878 12.334 35.0878C12.593 35.0878 12.8014 35.0778 12.9584 35.0574C13.1155 35.038 13.2402 35.019 13.3333 35.0015V33.3936C13.3336 33.003 13.2351 32.7196 13.0374 32.5438ZM12.6316 34.998C12.5981 35.0154 12.5302 35.0344 12.4297 35.0553C12.3286 35.0773 12.1805 35.0878 11.9849 35.0878C11.7003 35.0878 11.5033 35.0301 11.3929 34.9137C11.2833 34.798 11.2281 34.6247 11.2281 34.3926C11.2281 34.1264 11.2954 33.9419 11.4297 33.8386C11.5643 33.7353 11.7464 33.6843 11.9758 33.6843C12.0398 33.6843 12.1077 33.6866 12.1797 33.6912C12.2514 33.6955 12.3181 33.7005 12.3791 33.7075C12.4404 33.7137 12.4937 33.7195 12.5398 33.7264C12.5857 33.7334 12.6162 33.7384 12.6316 33.7427V34.998Z" fill="#78A2BD"/>
</g>
<mask id="mask14" mask-type="alpha" maskUnits="userSpaceOnUse" x="0" y="0" width="40" height="40">
<path d="M40 0H0V39.2982H40V0Z" fill="white"/>
</mask>
<g mask="url(#mask14)">
<path d="M15.953 33.8057C15.8859 33.7427 15.7987 33.6891 15.69 33.6445C15.5805 33.599 15.447 33.5628 15.288 33.5334L14.8687 33.4643C14.7059 33.4352 14.5806 33.389 14.4907 33.3238C14.4014 33.2595 14.3569 33.1645 14.3569 33.0392C14.3569 32.8777 14.4111 32.7595 14.52 32.6842C14.6286 32.6089 14.7964 32.5708 15.0245 32.5708C15.1641 32.5708 15.2851 32.5857 15.3876 32.6144C15.4897 32.6432 15.5758 32.6752 15.6455 32.7113C15.7155 32.7462 15.7679 32.7811 15.8039 32.8131C15.8399 32.8451 15.8625 32.8664 15.8724 32.8774C15.8982 32.8596 15.9237 32.8351 15.948 32.8044C15.972 32.7743 15.9846 32.734 15.9846 32.6839C15.9846 32.6051 15.9392 32.5376 15.8478 32.4794C15.7767 32.4365 15.6757 32.3932 15.5457 32.3476C15.416 32.3031 15.2435 32.2808 15.0292 32.2808C14.8371 32.2808 14.6775 32.3031 14.5493 32.3476C14.4207 32.3928 14.3182 32.4513 14.2418 32.525C14.166 32.598 14.1124 32.68 14.0817 32.7714C14.0509 32.8632 14.0351 32.9562 14.0351 33.0534C14.0351 33.264 14.1039 33.4288 14.2418 33.5463C14.3803 33.6646 14.5809 33.7447 14.8444 33.788L15.1952 33.8467C15.3149 33.8684 15.4145 33.8929 15.4921 33.9194C15.57 33.9466 15.6326 33.9795 15.6798 34.0192C15.7269 34.0583 15.76 34.1045 15.7796 34.1562C15.7992 34.2079 15.8086 34.2657 15.8086 34.3303C15.8086 34.4165 15.7913 34.4873 15.7556 34.5451C15.7199 34.6023 15.6707 34.6478 15.6092 34.684C15.5477 34.7199 15.4733 34.7457 15.3876 34.7622C15.3012 34.7783 15.2095 34.7864 15.112 34.7864C14.9727 34.7864 14.8482 34.7735 14.7396 34.7483C14.6307 34.7234 14.5364 34.6953 14.457 34.662C14.3777 34.6297 14.313 34.5984 14.2647 34.5684C14.2158 34.5374 14.1835 34.5173 14.1674 34.506C14.1674 34.506 14.1086 34.6075 14.0966 34.6452C14.0752 34.7124 14.096 34.8006 14.173 34.8675C14.2225 34.8943 14.2828 34.9208 14.3543 34.9479C14.4474 34.9822 14.5572 35.0145 14.6857 35.0438C14.8142 35.0729 14.9592 35.0878 15.1217 35.0878C15.3003 35.0878 15.4537 35.0678 15.5826 35.028C15.7108 34.9889 15.8165 34.9337 15.8994 34.8617C15.982 34.7893 16.0429 34.705 16.0821 34.6065C16.121 34.5073 16.1404 34.3991 16.1404 34.2809C16.1404 34.184 16.126 34.0961 16.097 34.0173C16.0675 33.9385 16.0194 33.8681 15.953 33.8057Z" fill="#78A2BD"/>
</g>
<mask id="mask15" mask-type="alpha" maskUnits="userSpaceOnUse" x="0" y="0" width="40" height="40">
<path d="M40 0H0V39.2982H40V0Z" fill="white"/>
</mask>
<g mask="url(#mask15)">
<path d="M17.538 33.621C17.5541 33.611 17.5959 33.5796 17.6619 33.5277C17.7285 33.4765 17.808 33.414 17.9 33.3415C17.9923 33.2685 18.0914 33.1903 18.1965 33.107C18.302 33.0236 18.4007 32.9451 18.4936 32.8724C18.5857 32.7993 18.6649 32.7355 18.7318 32.6827C18.7978 32.6295 18.8372 32.5961 18.8504 32.582C18.8439 32.5715 18.8241 32.5474 18.7896 32.5099C18.7557 32.4724 18.7093 32.4538 18.6511 32.4538C18.5924 32.4538 18.5351 32.4708 18.4785 32.5045C18.4221 32.5381 18.3514 32.5884 18.2669 32.6564C18.1439 32.7528 18.0198 32.8499 17.895 32.9502C17.77 33.0493 17.6552 33.1412 17.55 33.2242C17.4442 33.3079 17.3572 33.3778 17.2873 33.4345C17.2175 33.4915 17.176 33.5236 17.1635 33.5306V31.6165C17.1503 31.6094 17.1299 31.6008 17.1027 31.5924C17.0747 31.5838 17.0466 31.579 17.0174 31.579C16.956 31.579 16.9113 31.596 16.8839 31.6293C16.8558 31.6633 16.8421 31.7068 16.8421 31.7604V35.0878H17.1635V33.7488C17.2961 33.8456 17.429 33.9504 17.562 34.0642C17.6952 34.178 17.8223 34.2943 17.9438 34.4132C18.0654 34.5324 18.1778 34.6497 18.2815 34.765C18.3853 34.8804 18.4712 34.9884 18.5395 35.0878H18.9474C18.8112 34.8817 18.6254 34.6487 18.3885 34.3895C18.1521 34.1296 17.8684 33.8742 17.538 33.621Z" fill="#78A2BD"/>
</g>
<mask id="mask16" mask-type="alpha" maskUnits="userSpaceOnUse" x="0" y="0" width="40" height="40">
<path d="M40 0H0V39.2982H40V0Z" fill="white"/>
</mask>
<g mask="url(#mask16)">
<path d="M20.4938 32.2808C20.2749 32.2808 20.0709 32.3166 19.8807 32.3883C19.6906 32.4604 19.5269 32.5602 19.3891 32.6891C19.2521 32.818 19.1441 32.9724 19.0652 33.152C18.9863 33.331 18.9474 33.5281 18.9474 33.7429C18.9474 33.9652 18.9863 34.1596 19.0666 34.3263C19.1462 34.4934 19.2542 34.6329 19.3902 34.746C19.5266 34.8591 19.6877 34.9437 19.8724 35.0015C20.0578 35.0584 20.2578 35.0878 20.4716 35.0878C20.6087 35.0878 20.7366 35.0778 20.8559 35.0574C20.9752 35.038 21.0821 35.0144 21.1766 34.988C21.2133 34.9773 21.2468 34.9673 21.2784 34.956C21.5671 34.8435 21.4177 34.621 21.3853 34.5757C21.3119 34.6129 21.2032 34.6529 21.0588 34.6975C20.9017 34.7457 20.7243 34.7699 20.5261 34.7699C20.1916 34.7699 19.9273 34.6995 19.7331 34.5576C19.5397 34.4165 19.4229 34.1929 19.3826 33.8883H21.0188C21.2781 33.8883 21.466 33.835 21.5813 33.7274C21.6962 33.6201 21.7544 33.4712 21.7544 33.2809C21.7544 32.966 21.6464 32.7201 21.43 32.5444C21.2144 32.3683 20.9017 32.2808 20.4938 32.2808ZM21.6159 32.9346C21.523 32.9665 21.3903 32.9825 21.2185 32.9825H19.6491C19.6534 32.8971 19.682 32.8125 19.7366 32.7288C19.7903 32.6445 19.867 32.5694 19.9656 32.5039C20.0651 32.4385 20.1862 32.3849 20.3301 32.3429C20.4748 32.3016 20.6439 32.2808 20.8377 32.2808C21.0049 32.2808 21.1488 32.2939 21.2668 32.3192C21.3852 32.3449 21.48 32.3787 21.5505 32.4198C21.622 32.4613 21.6731 32.5094 21.7056 32.5645C21.7381 32.619 21.7544 32.6759 21.7544 32.7341C21.7548 32.8362 21.7083 32.9034 21.6159 32.9346Z" fill="#78A2BD"/>
</g>
<mask id="mask17" mask-type="alpha" maskUnits="userSpaceOnUse" x="0" y="0" width="40" height="40">
<path d="M40 0H0V39.2982H40V0Z" fill="white"/>
</mask>
<g mask="url(#mask17)">
<path d="M23.6229 34.7323C23.5292 34.774 23.4126 34.795 23.2708 34.795C23.101 34.795 22.9683 34.7568 22.8703 34.6802C22.7734 34.6037 22.7249 34.4691 22.7249 34.2777V32.7382H23.7803C23.7887 32.7279 23.7996 32.7094 23.8138 32.683C23.8284 32.6566 23.835 32.6246 23.835 32.5864C23.835 32.5302 23.8157 32.4913 23.7778 32.4684C23.7399 32.4464 23.6918 32.4352 23.6353 32.4352H22.7253V31.6151C22.7089 31.6085 22.6834 31.6003 22.6498 31.5922C22.6152 31.5837 22.5798 31.579 22.5434 31.579C22.4665 31.579 22.4107 31.5956 22.3769 31.6289C22.3422 31.6612 22.3247 31.7042 22.3247 31.7562V32.4352H21.8087C21.801 32.4455 21.7897 32.4637 21.7755 32.4901C21.7617 32.5158 21.7544 32.5484 21.7544 32.5867C21.7544 32.6428 21.7737 32.6817 21.8123 32.704C21.8502 32.7266 21.8983 32.7382 21.9548 32.7382H22.3247V34.3511C22.3247 34.4524 22.3422 34.5478 22.3769 34.6385C22.4107 34.7292 22.464 34.8073 22.5343 34.8738C22.6054 34.9394 22.6954 34.9918 22.8073 35.0297C22.9188 35.068 23.0507 35.0878 23.2045 35.0878C23.3138 35.0878 23.4115 35.0796 23.499 35.0642C23.5689 35.0517 23.6313 35.0363 23.6874 35.0178C23.9695 34.9105 23.8284 34.7006 23.7934 34.6535C23.757 34.6705 23.7001 34.6975 23.6229 34.7323Z" fill="#78A2BD"/>
</g>
<mask id="mask18" mask-type="alpha" maskUnits="userSpaceOnUse" x="0" y="0" width="40" height="40">
<path d="M40 0H0V39.2982H40V0Z" fill="white"/>
</mask>
<g mask="url(#mask18)">
<path d="M26.9992 32.5489C26.8802 32.4256 26.7381 32.3299 26.574 32.2618C26.4085 32.1955 26.2251 32.1614 26.0235 32.1614C25.8408 32.1614 25.6855 32.1827 25.5574 32.2258C25.4293 32.2686 25.3236 32.3198 25.24 32.3774C25.1567 32.435 25.093 32.494 25.0482 32.5539C25.0027 32.6136 24.9691 32.6597 24.946 32.6931V30.9163C24.9306 30.9092 24.9061 30.9004 24.8732 30.891C24.8403 30.8823 24.8067 30.8772 24.7714 30.8772C24.6975 30.8772 24.6447 30.8951 24.6114 30.9304C24.5778 30.9661 24.5614 31.012 24.5614 31.0679V35.0096C24.5768 35.0126 24.6762 35.0267 24.8589 35.0513C25.0412 35.0753 25.2974 35.0877 25.6274 35.0877C25.9262 35.0877 26.1856 35.05 26.405 34.9749C26.6241 34.9007 26.805 34.7987 26.9464 34.6669C27.0885 34.5359 27.1941 34.3796 27.2638 34.1966C27.3338 34.0127 27.3684 33.8132 27.3684 33.5963C27.3684 33.376 27.3362 33.1768 27.2729 32.9996C27.2078 32.8221 27.1168 32.6715 26.9992 32.5489ZM27.2896 33.7427C27.236 33.8767 27.1539 33.9912 27.0417 34.0858C26.9298 34.1799 26.7879 34.2535 26.6148 34.3064C26.4414 34.36 26.2353 34.386 25.9955 34.386C25.7758 34.386 25.6079 34.3785 25.492 34.3606C25.3765 34.3436 25.2995 34.3312 25.2632 34.325V33.295C25.2632 33.1505 25.2855 33.0171 25.3303 32.8933C25.375 32.7696 25.441 32.6631 25.5287 32.5716C25.6159 32.4809 25.7248 32.4091 25.8554 32.3581C25.9852 32.3067 26.1381 32.2807 26.3134 32.2807C26.6709 32.2807 26.9364 32.3686 27.1095 32.5456C27.2822 32.7226 27.3684 32.9723 27.3684 33.295C27.3681 33.4599 27.3416 33.6087 27.2896 33.7427Z" fill="#78A2BD"/>
</g>
<mask id="mask19" mask-type="alpha" maskUnits="userSpaceOnUse" x="0" y="0" width="40" height="40">
<path d="M40 0H0V39.2982H40V0Z" fill="white"/>
</mask>
<g mask="url(#mask19)">
<path d="M29.1774 32.5438C28.9791 32.3683 28.6895 32.2808 28.3068 32.2808C28.1206 32.2808 27.9788 32.2989 27.882 32.3354C27.7854 32.3719 27.7214 32.4052 27.6895 32.4339C27.6638 32.4559 27.6422 32.4814 27.6249 32.5105C27.607 32.5399 27.5984 32.5742 27.5984 32.6142C27.5984 32.6537 27.6067 32.6895 27.6249 32.7241C27.6422 32.7583 27.6621 32.7845 27.6848 32.8023C27.7263 32.759 27.7981 32.7118 27.901 32.6598C28.0039 32.6081 28.1448 32.5822 28.3246 32.5822C28.6198 32.5822 28.8322 32.6498 28.9618 32.7845C29.0921 32.9202 29.1569 33.1144 29.1569 33.3678V33.3784C29.0961 33.3739 28.9982 33.3684 28.8621 33.3594C28.7258 33.3497 28.5866 33.3451 28.4425 33.3451C28.2347 33.3451 28.0615 33.3681 27.9223 33.4127C27.7831 33.4579 27.673 33.52 27.5912 33.6014C27.5099 33.6815 27.4526 33.7756 27.4188 33.8832C27.3851 33.9908 27.3684 34.1055 27.3684 34.2273C27.3684 34.3242 27.3794 34.4234 27.4018 34.5255C27.4243 34.6276 27.4739 34.7204 27.5508 34.8018C27.6278 34.8849 27.7393 34.9527 27.8849 35.0067C28.031 35.0613 28.2269 35.0878 28.4739 35.0878C28.7333 35.0878 28.942 35.0778 29.0982 35.0574C29.2561 35.038 29.3806 35.019 29.4737 35.0015V33.3936C29.4737 33.003 29.3748 32.7196 29.1774 32.5438ZM28.7719 34.998C28.7384 35.0154 28.6711 35.0344 28.5705 35.0553C28.4693 35.0773 28.3212 35.0878 28.1253 35.0878C27.8411 35.0878 27.6435 35.0301 27.5336 34.9137C27.4231 34.798 27.3684 34.6247 27.3684 34.3926C27.3684 34.1264 27.4355 33.9419 27.5701 33.8386C27.7045 33.7353 27.8862 33.6843 28.1156 33.6843C28.18 33.6843 28.2481 33.6866 28.3198 33.6912C28.3918 33.6955 28.4586 33.7005 28.5199 33.7075C28.5809 33.7137 28.6345 33.7195 28.6804 33.7264C28.726 33.7334 28.7565 33.7384 28.7719 33.7427V34.998Z" fill="#78A2BD"/>
</g>
<mask id="mask20" mask-type="alpha" maskUnits="userSpaceOnUse" x="0" y="0" width="40" height="39">
<path d="M40 0H0V38.5965H40V0Z" fill="white"/>
</mask>
<g mask="url(#mask20)">
<path d="M30.5591 30.8772C30.424 30.8772 30.3271 30.8942 30.2672 30.9281C30.2066 30.9614 30.1754 31.0047 30.1754 31.0588V34.386H30.8772V30.9147C30.8485 30.9076 30.8039 30.8996 30.744 30.8907C30.6847 30.8817 30.6222 30.8772 30.5591 30.8772Z" fill="#78A2BD"/>
</g>
<mask id="mask21" mask-type="alpha" maskUnits="userSpaceOnUse" x="0" y="0" width="40" height="40">
<path d="M40 0H0V39.2982H40V0Z" fill="white"/>
</mask>
<g mask="url(#mask21)">
<path d="M31.9611 31.579C31.8256 31.579 31.7298 31.596 31.669 31.6299C31.6083 31.6632 31.5789 31.7065 31.5789 31.7606V35.0878H32.2807V31.6165C32.2526 31.6094 32.2085 31.6014 32.1477 31.5924C32.087 31.5835 32.0257 31.579 31.9611 31.579Z" fill="#78A2BD"/>
</g>
</svg>
