<svg width="40" height="40" viewBox="0 0 40 40" fill="none" xmlns="http://www.w3.org/2000/svg">
<path d="M19.671 27.2308C20.0995 27.2308 20.3077 27.5654 20.3077 28.1114L20.3065 28.1471L20.3077 28.1527L20.3065 28.1649L20.3057 28.2011C20.2841 28.6752 20.0875 29.0769 19.6347 29.0769C19.378 29.0769 19.1721 28.9461 19.1114 28.6191L19.5054 28.5441C19.5258 28.7164 19.6306 28.7319 19.6673 28.7319C19.7819 28.7319 19.8616 28.6338 19.8992 28.4944L19.9089 28.4498L19.886 28.4446C19.8532 28.4335 19.8233 28.417 19.7973 28.3958L19.7895 28.3883L19.7555 28.4071C19.7036 28.4304 19.6418 28.446 19.5721 28.446C19.2569 28.446 19.0769 28.1712 19.0769 27.8589C19.0769 27.5111 19.2951 27.2308 19.671 27.2308ZM20.9583 27.2308C21.3962 27.2308 21.5385 27.5063 21.5385 27.817C21.5385 27.92 21.5269 28.079 21.3929 28.259C21.2994 28.3861 21.1815 28.4775 20.9353 28.6534H21.5194V29.0769H20.3077V28.7325C20.4246 28.6374 20.5415 28.5382 20.6541 28.4349C20.7519 28.3472 20.8477 28.2565 20.9369 28.1569C21.0172 28.063 21.0956 27.9683 21.0956 27.8236C21.0956 27.7109 21.0482 27.6112 20.9214 27.6112C20.8365 27.6112 20.7347 27.6551 20.7347 27.8802C20.7347 27.9396 20.737 27.9593 20.7499 28.0122L20.3182 27.9491V27.9081C20.3182 27.3972 20.5886 27.2308 20.9583 27.2308ZM26.4615 27.8462L26.6067 28.3506H27.0769L26.6945 28.6059L26.8402 29.0526L26.4604 28.7488L26.0806 29.0769L26.2263 28.6017L25.8462 28.3506H26.3161L26.4615 27.8462ZM14.7689 27.8462L14.914 28.3506H15.3846L15.0044 28.6059L15.1495 29.0526L14.7692 28.7488L14.389 29.0769L14.5341 28.6017L14.1538 28.3506H14.6239L14.7689 27.8462ZM23.2058 27.2308L23.2055 28.0252L22.7692 28.4615H23.3846V28.693H23.2058V29.0769H22.8065V28.693H22.1538V28.3252L22.7901 27.2308H23.2058ZM17.8462 27.2308V29.0761H17.487V27.8528C17.4295 27.8848 17.3806 27.8977 17.2308 27.8977V27.4819H17.2761C17.3704 27.4819 17.5046 27.4366 17.5359 27.2308H17.8462ZM20.0019 27.8462C19.7802 27.8462 19.6923 28.017 19.6923 28.1554C19.6923 28.2391 19.718 28.3088 19.7615 28.3605L19.7895 28.3883L19.804 28.3814C19.8491 28.3536 19.8836 28.3206 19.9057 28.29L19.9236 28.2605V28.2968C19.9236 28.3438 19.9199 28.3894 19.9127 28.4323L19.9089 28.4498L19.9374 28.4572C19.9552 28.4601 19.9736 28.4615 19.9925 28.4615C20.157 28.4615 20.2781 28.3683 20.303 28.2136L20.3065 28.1649V28.1471L20.3032 28.0934C20.2793 27.9419 20.1631 27.8462 20.0019 27.8462ZM23.3846 27.8462V28.328L23.2058 28.3286L23.2055 28.0252L23.3846 27.8462ZM26.8295 16.1538C26.8295 16.1538 28.4524 18.5653 30.6916 16.8203C30.6971 16.815 30.7009 16.8097 30.705 16.8044L30.7181 16.7971L30.7304 16.7896L32.5345 17.0241L31.3792 19.6097L31.9543 19.1394L34.1543 17.2346L35.8486 17.4546L34.646 19.999C35.3525 19.4062 36.7934 18.2033 37.4739 17.6381L37.5858 17.5452L39.1957 17.7547C38.6763 18.9137 37.1806 21.6203 37.6256 21.8093C38.0082 21.9722 38.4821 21.0635 38.6145 20.6513C38.6443 20.657 39.918 20.9327 40 20.9602C39.0736 23.8442 34.3393 23.9207 36.2786 20.2726C36.2731 20.268 36.2631 20.2733 36.2631 20.2733L36.2382 20.2956C35.9613 20.5431 33.4609 22.7795 33.1733 23.0802L33.1538 23.1016H31.3748C31.4183 22.9528 31.4478 22.9768 31.4478 22.9768C31.6263 22.6291 32.7139 20.4599 32.786 20.1429C31.5388 21.1009 30.496 22.0501 29.3737 23.0272C29.365 23.0399 29.3566 23.076 29.3482 23.0932L29.3397 23.1026H27.758L30.0874 18.249C29.5133 18.4807 28.7437 18.6464 27.9014 18.5293C28.0551 21.2871 26.661 23.1178 25.0419 22.9591C24.6617 22.9218 24.3944 22.7564 24.2115 22.5409C24.0976 22.7324 23.9724 22.9218 23.8368 23.1132C23.7363 23.2606 23.6231 23.4031 23.5016 23.5497C22.7135 24.5265 21.6546 25.4059 20.4022 25.8635C20.262 25.9197 20.127 25.9733 20.0002 25.9925L19.9068 26H18.4087L22.8816 18.3509C22.4033 18.7508 21.5009 19.005 20.7941 18.9317C20.7807 18.9567 20.7725 18.9835 20.7701 19.0082C20.4479 22.273 15.5345 25.0846 14.865 21.4288C14.863 21.4175 14.8561 21.413 14.8455 21.3872C9.28186 25.4464 10.2059 20.8974 10.6629 20.4376C9.70141 21.0676 8.90021 21.8582 8.01802 22.8321L7.77524 23.1023H5.82737C5.82737 23.1023 6.29126 22.2899 6.88382 21.285C2.36053 24.957 -0.35558 23.2155 0.0376306 21.0854C0.835032 16.7681 6.60418 15.6373 6.88176 17.7522C6.95691 18.3217 6.25489 19.5491 5.84315 19.8051C4.70298 19.328 4.85086 19.3985 4.81346 19.3456C7.60677 16.1327 1.98962 18.1538 1.55009 21.0776C1.37304 22.256 2.80932 22.6287 5.04506 21.2892C6.27765 20.5509 7.86629 19.2622 9.21509 17.2741L9.38239 17.022L9.3848 17.0209L10.9429 17.2265C10.4378 18.054 9.91628 18.846 9.48018 19.6944C9.48018 19.6944 11.875 17.8989 12.9354 17.2979L13.0184 17.2519L14.3902 17.5823C8.86051 24.4394 15.2634 20.2666 17.2672 16.8393C17.7304 17.0375 18.745 17.4416 18.745 17.4416C18.8013 17.1694 20.5563 16.34 20.7756 17.6767C22.2451 17.719 23.0771 17.3399 23.7276 16.6311L23.8114 16.5368L25.1338 16.8026L26.8295 16.1538ZM24.8487 17.3846L20.9231 24.1538C21.0925 24.0762 21.2629 23.9823 21.4313 23.8617C22.4599 23.0606 23.28 21.9432 23.7232 20.6374L23.7935 20.4181H23.7763L24.7635 20.2201C24.7209 20.3973 24.735 21.8286 25.5441 21.3621C26.1715 21.0004 26.7756 19.3372 26.2777 18.1073C25.7812 17.9729 25.2967 17.7446 24.8487 17.3846ZM18.9945 18C18.8965 18.0238 18.7876 18.0673 18.6682 18.1332C18.6271 18.1581 18.6047 18.1691 18.5859 18.1839C16.7761 19.6197 15.8998 22.6082 17.3244 22.2832C18.8116 21.9431 19.8379 19.5107 19.6754 18.6908C19.3596 18.4926 19.1165 18.2497 18.9945 18ZM12.4049 10.352C12.8184 10.8685 12.1816 11.9755 12.085 12.1367L12.073 12.1564L11.467 11.8539C12.5179 10.27 11.1787 10.4515 9.74485 12.0576C7.81173 14.2229 8.55311 16.5472 11.5501 12.9507L11.6568 12.8213L11.9354 13.0051C12.1608 12.8791 12.3917 12.8053 12.6043 12.8046C13.0865 12.8024 13.3292 13.1732 13.249 13.6932C13.3887 13.7135 13.5304 13.7168 13.6738 13.7048C13.8439 13.3362 14.1073 12.9056 14.4883 12.4092C15.8606 10.6204 17.2492 10.0731 17.6564 10.6462C18.1086 11.2824 16.6788 12.9226 15.5201 13.6075C15.6546 13.8061 15.6898 14.0142 15.6549 14.2157C15.7783 14.2677 15.9145 14.2836 16.0905 14.2851C16.3186 13.5029 17.4359 12.6641 18.2797 12.7934C19.4176 12.9677 18.2202 14.4449 16.8098 14.6958C16.7573 14.7052 16.7258 14.7637 16.7483 14.8142C16.9024 15.1622 18.5319 14.5573 19.8181 12.8817L19.9244 12.7396L20.53 12.9894L20.0136 13.9245C20.0025 13.9443 20.018 13.9652 20.036 13.9646L20.0495 13.9597L21.3662 13.0668L21.8675 13.2447L21.3476 14.2735C21.3351 14.2993 21.3561 14.3261 21.3795 14.3246L21.397 14.3178L22.686 13.3319L23.2488 13.5741C21.9954 15.1526 22.824 15.2416 23.7888 14.1409C23.8085 14.1064 23.8299 14.0723 23.8527 14.0382C25.3059 11.8593 27.0622 12.7057 25.8651 13.8549L25.8017 13.9136L25.3588 13.7429C25.5932 13.5033 25.6983 13.1855 25.6174 13.1754C25.3865 13.1463 24.7342 13.6747 24.4867 14.1602C23.746 15.6108 25.8788 14.605 26.8229 13.241L26.875 13.1634L27.0997 12.7487H27.828L27.2144 13.8697C27.6337 13.7749 28.0678 13.4444 28.4271 12.8906L28.5087 12.7589L29.0583 12.8645C28.6155 13.6434 28.1388 14.0229 27.7074 14.1664C27.8017 15.2951 29.0633 14.2908 29.9624 12.8196L30.0231 12.7185L30.198 12.7465L30.5565 12.8257C29.7158 14.2564 29.4444 14.7535 29.8119 14.7721C30.0087 14.7818 30.7222 13.9914 31.386 12.9688L31.4687 12.8398L32.0045 13.0323C31.253 14.2259 31.0767 14.7118 31.3623 14.7248C31.6365 14.7374 32.2217 13.9264 32.9098 12.7864L32.9928 12.6481L33.5328 12.8881C32.7329 14.2226 32.4311 14.7964 32.8342 14.7829C33.1721 14.7715 33.5576 14.3164 34.2487 13.221L34.3406 13.0744L34.9552 13.1721C33.355 15.3976 34.3073 15.033 34.6627 14.3653L34.6818 14.3279L35.0769 14.5113C34.5442 15.5506 33.464 15.6915 33.5808 14.7546C33.5808 14.7546 33.1636 15.3404 32.5372 15.3404C32.1597 15.3404 32.0422 15.0687 32.0097 14.836C31.3941 15.4722 30.4797 15.5826 30.6246 14.6391C30.6246 14.6391 30.1548 15.3676 29.5284 15.3676C29.0777 15.3676 28.9625 15.0012 28.9408 14.767C28.5502 15.1138 28.144 15.3661 27.7903 15.3661C27.1572 15.3661 27.0107 14.7605 26.9826 14.3618L26.979 14.3007L26.3855 15.3734H25.6596L26.1708 14.4467C25.6499 15.0215 24.8863 15.4733 24.3132 15.4733C23.8956 15.4733 23.6505 15.2107 23.6149 14.853C22.8653 15.5113 21.5433 15.8017 22.0259 14.5084L22.0635 14.4133L20.6704 15.3738H20.0841C20.0606 15.3738 20.0444 15.3496 20.0463 15.3264L20.0513 15.3095L20.6438 14.2343L19.0941 15.3738H18.4421L18.9015 14.5411C17.1071 16.0118 16.057 15.4725 16.039 14.735C15.8416 14.7172 15.6722 14.67 15.5132 14.5829C15.2197 15.0785 14.5629 15.4598 14.08 15.4315C13.6244 15.4046 13.2905 15.0426 13.4633 14.2938C13.315 14.296 13.1785 14.2844 13.053 14.2619C12.6956 14.9514 11.9762 15.4947 11.3951 15.4972C10.9025 15.4994 10.6599 15.1116 10.7567 14.5738C10.0622 15.2245 9.22287 15.7728 8.58855 15.4362C6.39106 14.2709 10.9495 8.53745 12.4049 10.352ZM11.7446 13.6923C11.1538 13.9681 10.8343 14.9231 11.2997 14.9231C11.7296 14.9231 12.1472 14.5247 12.3077 14.1683C12.0495 14.0272 11.8677 13.8484 11.7446 13.6923ZM14.6794 13.6923C14.5141 13.8185 14.3612 13.908 14.2204 13.9664C14.1118 14.5035 14.1253 14.8862 14.3417 14.9209C14.6662 14.9724 14.9078 14.081 14.6794 13.6923ZM16.6154 14.3077C17.3154 14.0771 17.8805 13.3823 17.8445 13.1626C17.7864 12.8087 16.9434 13.6224 16.6154 14.3077ZM15.9547 11.5354C15.363 11.972 14.6162 12.8898 14.1538 13.6923C15.953 12.9613 17.562 10.3488 15.9547 11.5354ZM35.6923 11.8462L35.3608 12.4008L33.8462 12.4615L34.2161 11.8462H35.6923Z" fill="#333333"/>
</svg>
