<svg width="28" height="28" viewBox="0 0 28 28" fill="none" xmlns="http://www.w3.org/2000/svg">
<path d="M24.5021 14.8976L24.5016 13.0997L22.9934 11.5893L23.5442 9.527L22.6439 7.96977L20.5838 7.41622L20.0297 5.35392L18.4708 4.45738L16.4102 5.00769L14.8998 3.5H13.1024L11.592 5.00769L9.53078 4.45738L7.97245 5.35607L7.41837 7.41676L5.3577 7.97083L4.459 9.52915L5.00877 11.5888L3.5 13.1002L3.50214 14.8998L5.00821 16.4091L4.45792 18.4714L5.35822 20.0302L7.41729 20.5832L7.97139 22.6439L9.53078 23.5426L11.5904 22.9928L13.1008 24.5016L14.9008 24.4995L16.4107 22.9928L18.4724 23.5431L20.0291 22.6434L20.5838 20.5832L22.6455 20.0286L23.5437 18.4708L22.9928 16.4096L24.5021 14.8976ZM21.1928 15.9266L21.8109 18.2425L21.5805 18.6421L19.2661 19.264L18.6431 21.5788L18.2436 21.8098L15.9282 21.1922L14.2326 22.8852H13.7695L12.0745 21.1922L9.76014 21.8093L9.35846 21.5783L8.73708 19.264L6.42332 18.6426L6.19175 18.242L6.80938 15.9261L5.117 14.231V13.7685L6.80991 12.0723L6.19283 9.75799L6.42384 9.35792L8.73814 8.73654L9.35955 6.42223L9.75962 6.19122L12.0755 6.80884L13.7706 5.11593H14.2321L15.9271 6.80884L18.2436 6.19122L18.6431 6.42115L19.2645 8.736L21.5794 9.35792L21.8109 9.75692L21.1928 12.0728L22.8862 13.769L22.8868 14.2299L21.1928 15.9266ZM14.8093 8.07638L10.612 15.3456H13.1939V19.9241L17.3912 12.6533H14.8093V8.07638Z" fill="#E21D02"/>
</svg>
