<svg width="32" height="32" viewBox="0 0 32 32" fill="none" xmlns="http://www.w3.org/2000/svg">
<path fill-rule="evenodd" clip-rule="evenodd" d="M14.992 20.8288C15.1897 20.638 15.3879 20.4467 15.5867 20.2544C15.6085 20.2697 15.6299 20.2844 15.6509 20.299C15.6962 20.3302 15.7396 20.3602 15.7811 20.3911C16.4198 20.8593 17.0582 21.328 17.6967 21.7966C18.3351 22.2653 18.9736 22.7339 19.6123 23.2021C20.3755 23.7603 21.0263 23.5199 21.2237 22.5997C22.0557 18.7207 22.8837 14.8396 23.7107 10.9596C23.7352 10.8439 23.7612 10.7283 23.7872 10.6126C23.8715 10.2374 23.9559 9.86166 23.9931 9.48117C24.069 8.70275 23.5113 8.31152 22.7875 8.5891C18.9776 10.0504 15.1697 11.5107 11.3608 12.971C10.9745 13.1193 10.5881 13.2671 10.2018 13.415C9.08695 13.8415 7.97257 14.2679 6.86155 14.7048C6.60445 14.8054 6.35646 14.9643 6.14895 15.1474C5.92425 15.3455 5.96069 15.62 6.21171 15.789C6.37366 15.8976 6.56193 15.9751 6.7502 16.0354C7.9689 16.4206 9.19062 16.7997 10.4134 17.1708C10.5723 17.2201 10.6462 17.2956 10.6968 17.4504C10.998 18.3852 11.3026 19.3182 11.6073 20.2513C11.8248 20.9175 12.0423 21.5838 12.2586 22.2507C12.3305 22.471 12.46 22.5715 12.6918 22.5836C13.0319 22.6007 13.2992 22.473 13.535 22.2417C14.0179 21.769 14.5033 21.3005 14.992 20.8288ZM12.9384 20.9958C12.9337 20.9973 12.929 20.9987 12.9243 21C12.8072 20.6501 12.6903 20.3001 12.5732 19.9499C12.4257 19.5082 12.278 19.0662 12.1298 18.6239C12.0767 18.4648 12.0241 18.3055 11.9716 18.1462C11.8276 17.71 11.6837 17.2738 11.5295 16.8409C11.4681 16.6685 11.4983 16.5837 11.6595 16.4843C13.4721 15.3702 15.2832 14.2537 17.0945 13.1371C18.134 12.4962 19.1735 11.8554 20.2135 11.2149C20.3474 11.1321 20.4894 11.0464 20.6395 11.009C20.7156 10.9892 20.8015 11.0059 20.8873 11.0226C20.9252 11.0299 20.963 11.0373 21 11.0415C20.982 11.0731 20.9665 11.1072 20.951 11.1411C20.9187 11.2118 20.8866 11.2822 20.8328 11.3302C19.7824 12.263 18.7306 13.1912 17.6786 14.1197C17.4396 14.3306 17.2006 14.5415 16.9617 14.7524C16.5903 15.0796 16.2195 15.4071 15.8488 15.7346C15.0531 16.4374 14.2577 17.1399 13.4581 17.8388C13.311 17.9688 13.2436 18.1048 13.2275 18.2969C13.1738 18.9533 13.1109 19.6085 13.0479 20.264C13.0281 20.4702 13.0083 20.6765 12.9888 20.8828C12.9866 20.9082 12.9803 20.9332 12.9739 20.9583C12.9714 20.9682 12.9689 20.9782 12.9666 20.9882C12.9572 20.9901 12.9478 20.993 12.9384 20.9958Z" fill="#1C2546" fill-opacity="0.8"/>
<path d="M4 1H28V-1H4V1ZM31 4V28H33V4H31ZM28 31H4V33H28V31ZM1 28V4H-1V28H1ZM4 31C2.34315 31 1 29.6569 1 28H-1C-1 30.7614 1.23858 33 4 33V31ZM31 28C31 29.6569 29.6569 31 28 31V33C30.7614 33 33 30.7614 33 28H31ZM28 1C29.6569 1 31 2.34315 31 4H33C33 1.23858 30.7614 -1 28 -1V1ZM4 -1C1.23858 -1 -1 1.23858 -1 4H1C1 2.34315 2.34315 1 4 1V-1Z" fill="#989CB4" fill-opacity="0.4"/>
</svg>
