<svg width="32" height="32" viewBox="0 0 32 32" fill="none" xmlns="http://www.w3.org/2000/svg">
<path fill-rule="evenodd" clip-rule="evenodd" d="M24 12.4215C23.4473 12.6617 22.8542 12.8248 22.2321 12.8975C22.8677 12.5229 23.3555 11.9278 23.5838 11.2204C22.9885 11.5686 22.3306 11.8198 21.6302 11.9565C21.0685 11.368 20.2696 11 19.3834 11C17.6849 11 16.3064 12.3576 16.3064 14.0303C16.3064 14.2683 16.3333 14.4997 16.387 14.7201C13.8292 14.5945 11.5623 13.3868 10.0451 11.5532C9.78099 12.0006 9.62882 12.5207 9.62882 13.076C9.62882 14.1273 10.1726 15.0551 10.9984 15.5972C10.4949 15.5818 10.0204 15.4452 9.60421 15.2182C9.60421 15.2314 9.60421 15.2424 9.60421 15.2556C9.60421 16.7234 10.6649 17.9488 12.0725 18.2264C11.8152 18.2948 11.5421 18.3322 11.2624 18.3322C11.0633 18.3322 10.8708 18.3124 10.6828 18.2771C11.0744 19.4804 12.2112 20.3576 13.5562 20.3818C12.5022 21.195 11.1774 21.6799 9.734 21.6799C9.4856 21.6799 9.24168 21.6645 9 21.638C10.3606 22.4975 11.9785 23 13.7173 23C19.3767 23 22.4716 18.3829 22.4716 14.3785C22.4716 14.2463 22.4693 14.1163 22.4626 13.9862C23.0646 13.5587 23.586 13.0253 23.9978 12.4171L24 12.4215Z" fill="#1C2546" fill-opacity="0.8"/>
<path d="M4 1H28V-1H4V1ZM31 4V28H33V4H31ZM28 31H4V33H28V31ZM1 28V4H-1V28H1ZM4 31C2.34315 31 1 29.6569 1 28H-1C-1 30.7614 1.23858 33 4 33V31ZM31 28C31 29.6569 29.6569 31 28 31V33C30.7614 33 33 30.7614 33 28H31ZM28 1C29.6569 1 31 2.34315 31 4H33C33 1.23858 30.7614 -1 28 -1V1ZM4 -1C1.23858 -1 -1 1.23858 -1 4H1C1 2.34315 2.34315 1 4 1V-1Z" fill="#989CB4" fill-opacity="0.4"/>
</svg>
