<svg width="32" height="32" viewBox="0 0 32 32" fill="none" xmlns="http://www.w3.org/2000/svg">
<path fill-rule="evenodd" clip-rule="evenodd" d="M21.7687 17.9235C21.7687 17.9235 23.0952 19.2328 23.4218 19.8406C23.4312 19.8531 23.4358 19.8656 23.439 19.8719C23.5718 20.0953 23.603 20.2688 23.5374 20.3985C23.428 20.6141 23.053 20.7203 22.9249 20.7297C22.9249 20.7297 20.6468 20.7297 20.5812 20.7297C20.4187 20.7297 20.078 20.6875 19.6655 20.4031C19.3483 20.1813 19.0358 19.8172 18.7312 19.4625C18.2765 18.9344 17.8827 18.4781 17.4858 18.4781C17.4358 18.4781 17.3843 18.486 17.3374 18.5016C17.0374 18.5985 16.653 19.0266 16.653 20.1672C16.653 20.5235 16.3718 20.7281 16.1733 20.7281C16.1733 20.7281 15.1499 20.7281 15.0999 20.7281C14.7343 20.7281 12.8296 20.6 11.1421 18.8203C9.07646 16.6406 7.21709 12.2688 7.20146 12.2281C7.08428 11.9453 7.32646 11.7938 7.59053 11.7938H9.95771C10.2733 11.7938 10.3765 11.986 10.4483 12.1563C10.5327 12.3547 10.8421 13.1438 11.3499 14.0313C12.1733 15.4781 12.678 16.0656 13.0827 16.0656C13.1593 16.0656 13.2296 16.0453 13.2999 16.0094C13.828 15.7156 13.7296 13.8328 13.7062 13.4422C13.7062 13.3688 13.7046 12.6 13.4343 12.2313C13.2405 11.9641 12.9108 11.8625 12.7108 11.825C12.7624 11.7485 12.878 11.6313 13.0218 11.561C13.3843 11.3797 14.0374 11.3531 14.6858 11.3531H15.0468C15.7499 11.3625 15.9312 11.4078 16.1858 11.4719C16.7015 11.5953 16.7124 11.9281 16.6671 13.0672C16.653 13.3906 16.639 13.7563 16.639 14.1875C16.639 14.2813 16.6343 14.3813 16.6343 14.4875C16.6187 15.0672 16.5999 15.725 17.0093 15.9953C17.0624 16.0281 17.1233 16.0469 17.1874 16.0469C17.3296 16.0469 17.7577 16.0469 18.9171 14.0578C19.4249 13.1797 19.8187 12.1438 19.8468 12.0672C19.8702 12.0266 19.939 11.9016 20.0202 11.8531C20.0843 11.8156 20.1702 11.8078 20.214 11.8078H22.9968C23.2999 11.8078 23.5077 11.8531 23.5468 11.9703C23.6155 12.1563 23.5343 12.7235 22.264 14.4438C22.0499 14.7281 21.8608 14.9766 21.6968 15.1922C20.5452 16.7016 20.5452 16.7781 21.7687 17.9235Z" fill="#1C2546" fill-opacity="0.8"/>
<path d="M4 1H28V-1H4V1ZM31 4V28H33V4H31ZM28 31H4V33H28V31ZM1 28V4H-1V28H1ZM4 31C2.34315 31 1 29.6569 1 28H-1C-1 30.7614 1.23858 33 4 33V31ZM31 28C31 29.6569 29.6569 31 28 31V33C30.7614 33 33 30.7614 33 28H31ZM28 1C29.6569 1 31 2.34315 31 4H33C33 1.23858 30.7614 -1 28 -1V1ZM4 -1C1.23858 -1 -1 1.23858 -1 4H1C1 2.34315 2.34315 1 4 1V-1Z" fill="#989CB4" fill-opacity="0.4"/>
</svg>
