<svg width="32" height="32" viewBox="0 0 32 32" fill="none" xmlns="http://www.w3.org/2000/svg">
<path fill-rule="evenodd" clip-rule="evenodd" d="M8.96884 21.4811C8.67744 22.3121 8.38603 23.143 8.12061 24C8.67681 23.8663 9.17235 23.7013 9.69154 23.5283C9.87147 23.4684 10.0542 23.4075 10.2434 23.3467C10.441 23.2832 10.6559 23.1969 10.8778 23.1079C11.4088 22.8949 11.9796 22.6659 12.4478 22.6935C12.7384 22.7106 13.0401 22.8728 13.324 23.0255C13.5043 23.1224 13.6774 23.2155 13.8359 23.265C19.2452 24.9574 24.0542 20.7937 24.0417 15.8352C24.0298 11.136 20.0993 7.69266 15.3055 8.16047C10.2282 8.65588 6.47955 14.6199 9.50861 19.9176C9.33291 20.443 9.15088 20.9621 8.96884 21.4811ZM22.6537 16.5701C22.21 20.9015 16.9794 23.875 12.6112 21.2239C12.1304 21.3448 11.6791 21.4951 11.2279 21.6454C10.9034 21.7535 10.5788 21.8616 10.2434 21.9588C10.4711 21.2068 10.7162 20.4721 10.9782 19.7543C8.01902 15.5551 10.9066 9.81688 15.7137 9.46682C19.9244 9.16012 23.0553 12.649 22.6537 16.5701ZM14.3537 12.2195C14.3443 12.1999 14.335 12.1804 14.3258 12.1612C12.5103 11.6141 12.0323 13.8499 12.4479 15.0188C13.1483 16.9889 16.0511 19.6572 18.1632 19.7543C19.1643 19.8005 20.3479 19.2811 20.2859 17.8765C19.6831 17.4451 18.9882 17.1059 18.2448 16.8151C18.1229 16.9356 18.0099 17.0651 17.8969 17.1945C17.6802 17.4429 17.4634 17.6913 17.1834 17.8765C15.9027 17.3066 14.9201 16.4385 14.3258 15.1821C15.4726 14.5566 14.813 13.179 14.3537 12.2195Z" fill="#1C2546" fill-opacity="0.8"/>
<path d="M4 1H28V-1H4V1ZM31 4V28H33V4H31ZM28 31H4V33H28V31ZM1 28V4H-1V28H1ZM4 31C2.34315 31 1 29.6569 1 28H-1C-1 30.7614 1.23858 33 4 33V31ZM31 28C31 29.6569 29.6569 31 28 31V33C30.7614 33 33 30.7614 33 28H31ZM28 1C29.6569 1 31 2.34315 31 4H33C33 1.23858 30.7614 -1 28 -1V1ZM4 -1C1.23858 -1 -1 1.23858 -1 4H1C1 2.34315 2.34315 1 4 1V-1Z" fill="#989CB4" fill-opacity="0.4"/>
</svg>
