<svg width="32" height="32" viewBox="0 0 32 32" fill="none" xmlns="http://www.w3.org/2000/svg">
<path fill-rule="evenodd" clip-rule="evenodd" d="M22.2511 10.3422C22.9395 10.5305 23.4816 11.0854 23.6656 11.79C24 13.067 24 15.7316 24 15.7316C24 15.7316 24 18.396 23.6656 19.6731C23.4816 20.3777 22.9395 20.9326 22.2511 21.121C21.0034 21.4631 16 21.4631 16 21.4631C16 21.4631 10.9966 21.4631 9.74891 21.121C9.06055 20.9326 8.51836 20.3777 8.33436 19.6731C8 18.396 8 15.7316 8 15.7316C8 15.7316 8 13.067 8.33436 11.79C8.51836 11.0854 9.06055 10.5305 9.74891 10.3422C10.9966 10 16 10 16 10C16 10 21.0034 10 22.2511 10.3422ZM18.5455 15.7316L14.3636 13.3124V18.1507L18.5455 15.7316Z" fill="#1C2546" fill-opacity="0.8"/>
<path d="M4 1H28V-1H4V1ZM31 4V28H33V4H31ZM28 31H4V33H28V31ZM1 28V4H-1V28H1ZM4 31C2.34315 31 1 29.6569 1 28H-1C-1 30.7614 1.23858 33 4 33V31ZM31 28C31 29.6569 29.6569 31 28 31V33C30.7614 33 33 30.7614 33 28H31ZM28 1C29.6569 1 31 2.34315 31 4H33C33 1.23858 30.7614 -1 28 -1V1ZM4 -1C1.23858 -1 -1 1.23858 -1 4H1C1 2.34315 2.34315 1 4 1V-1Z" fill="#989CB4" fill-opacity="0.4"/>
</svg>
